<mxfile host="app.diagrams.net" modified="2021-12-22T23:05:53.719Z" agent="5.0 (Windows NT 10.0; Win64; x64) AppleWebKit/537.36 (KHTML, like Gecko) Chrome/96.0.4664.110 Safari/537.36" etag="ewoMdp8426nEmJJcb_Dq" version="16.0.0" type="github">
  <diagram id="891At1b4vaVnnhVTjAuj" name="Page-1">
    <mxGraphModel dx="1203" dy="720" grid="1" gridSize="10" guides="1" tooltips="1" connect="1" arrows="1" fold="1" page="1" pageScale="1" pageWidth="827" pageHeight="1169" math="0" shadow="0">
      <root>
        <mxCell id="0" />
        <mxCell id="1" parent="0" />
        <mxCell id="NcHaRKYVKd67BcyuAStn-37" value="Prosumer&#39;s Profit Maximization Flowchart" style="swimlane;sketch=0;startSize=30;fontSize=14;" parent="1" vertex="1">
          <mxGeometry x="34" y="80" width="760" height="790" as="geometry">
            <mxRectangle x="80" y="80" width="310" height="30" as="alternateBounds" />
          </mxGeometry>
        </mxCell>
        <mxCell id="NcHaRKYVKd67BcyuAStn-46" style="edgeStyle=orthogonalEdgeStyle;rounded=0;orthogonalLoop=1;jettySize=auto;html=1;exitX=0;exitY=0.5;exitDx=0;exitDy=0;entryX=0.5;entryY=0;entryDx=0;entryDy=0;fontSize=15;" parent="NcHaRKYVKd67BcyuAStn-37" source="NcHaRKYVKd67BcyuAStn-42" target="NcHaRKYVKd67BcyuAStn-44" edge="1">
          <mxGeometry relative="1" as="geometry">
            <Array as="points">
              <mxPoint x="247" y="231" />
              <mxPoint x="210" y="231" />
              <mxPoint x="210" y="80" />
              <mxPoint x="92" y="80" />
            </Array>
          </mxGeometry>
        </mxCell>
        <mxCell id="NcHaRKYVKd67BcyuAStn-47" value="&lt;b style=&quot;font-size: 13px&quot;&gt;Surplus P&lt;sub&gt;net&lt;/sub&gt;&lt;/b&gt;" style="edgeLabel;html=1;align=center;verticalAlign=middle;resizable=0;points=[];fontSize=15;labelBackgroundColor=none;" parent="NcHaRKYVKd67BcyuAStn-46" vertex="1" connectable="0">
          <mxGeometry x="-0.0741" y="-3" relative="1" as="geometry">
            <mxPoint x="-55" y="-56" as="offset" />
          </mxGeometry>
        </mxCell>
        <mxCell id="NcHaRKYVKd67BcyuAStn-112" style="edgeStyle=orthogonalEdgeStyle;rounded=0;orthogonalLoop=1;jettySize=auto;html=1;exitX=0.5;exitY=1;exitDx=0;exitDy=0;labelBackgroundColor=none;fontSize=12;fontColor=#000000;strokeColor=#000000;" parent="NcHaRKYVKd67BcyuAStn-37" source="NcHaRKYVKd67BcyuAStn-111" target="NcHaRKYVKd67BcyuAStn-42" edge="1">
          <mxGeometry relative="1" as="geometry" />
        </mxCell>
        <mxCell id="NcHaRKYVKd67BcyuAStn-111" value="" style="rounded=0;whiteSpace=wrap;html=1;labelBackgroundColor=none;labelBorderColor=none;sketch=0;fontSize=12;fontColor=#000000;strokeColor=#000000;" parent="NcHaRKYVKd67BcyuAStn-37" vertex="1">
          <mxGeometry x="337.88" y="40" width="136" height="58" as="geometry" />
        </mxCell>
        <mxCell id="NcHaRKYVKd67BcyuAStn-82" style="edgeStyle=orthogonalEdgeStyle;rounded=0;orthogonalLoop=1;jettySize=auto;html=1;entryX=0.5;entryY=0;entryDx=0;entryDy=0;labelBackgroundColor=none;fontSize=13;fontColor=#000000;strokeColor=#000000;exitX=1;exitY=0.5;exitDx=0;exitDy=0;" parent="NcHaRKYVKd67BcyuAStn-37" source="NcHaRKYVKd67BcyuAStn-42" target="NcHaRKYVKd67BcyuAStn-48" edge="1">
          <mxGeometry relative="1" as="geometry">
            <Array as="points">
              <mxPoint x="630" y="216" />
              <mxPoint x="630" y="323" />
              <mxPoint x="374" y="323" />
            </Array>
          </mxGeometry>
        </mxCell>
        <mxCell id="NcHaRKYVKd67BcyuAStn-83" value="&lt;b style=&quot;font-size: 12px&quot;&gt;Surplus P&lt;sub&gt;net&lt;/sub&gt;&lt;/b&gt;" style="edgeLabel;html=1;align=center;verticalAlign=middle;resizable=0;points=[];fontSize=13;fontColor=#000000;" parent="NcHaRKYVKd67BcyuAStn-82" vertex="1" connectable="0">
          <mxGeometry x="-0.3801" y="4" relative="1" as="geometry">
            <mxPoint y="-18" as="offset" />
          </mxGeometry>
        </mxCell>
        <mxCell id="NcHaRKYVKd67BcyuAStn-42" value="" style="shape=image;verticalLabelPosition=bottom;labelBackgroundColor=#ffffff;verticalAlign=top;aspect=fixed;imageAspect=0;image=data:image/png,iVBORw0KGgoAAAANSUhEUgAAAg0AAAEYCAYAAADf68UhAAAEDWlDQ1BJQ0MgUHJvZmlsZQAAOI2NVV1oHFUUPrtzZyMkzlNsNIV0qD8NJQ2TVjShtLp/3d02bpZJNtoi6GT27s6Yyc44M7v9oU9FUHwx6psUxL+3gCAo9Q/bPrQvlQol2tQgKD60+INQ6Ium65k7M5lpurHeZe58853vnnvuuWfvBei5qliWkRQBFpquLRcy4nOHj4g9K5CEh6AXBqFXUR0rXalMAjZPC3e1W99Dwntf2dXd/p+tt0YdFSBxH2Kz5qgLiI8B8KdVy3YBevqRHz/qWh72Yui3MUDEL3q44WPXw3M+fo1pZuQs4tOIBVVTaoiXEI/MxfhGDPsxsNZfoE1q66ro5aJim3XdoLFw72H+n23BaIXzbcOnz5mfPoTvYVz7KzUl5+FRxEuqkp9G/Ajia219thzg25abkRE/BpDc3pqvphHvRFys2weqvp+krbWKIX7nhDbzLOItiM8358pTwdirqpPFnMF2xLc1WvLyOwTAibpbmvHHcvttU57y5+XqNZrLe3lE/Pq8eUj2fXKfOe3pfOjzhJYtB/yll5SDFcSDiH+hRkH25+L+sdxKEAMZahrlSX8ukqMOWy/jXW2m6M9LDBc31B9LFuv6gVKg/0Szi3KAr1kGq1GMjU/aLbnq6/lRxc4XfJ98hTargX++DbMJBSiYMIe9Ck1YAxFkKEAG3xbYaKmDDgYyFK0UGYpfoWYXG+fAPPI6tJnNwb7ClP7IyF+D+bjOtCpkhz6CFrIa/I6sFtNl8auFXGMTP34sNwI/JhkgEtmDz14ySfaRcTIBInmKPE32kxyyE2Tv+thKbEVePDfW/byMM1Kmm0XdObS7oGD/MypMXFPXrCwOtoYjyyn7BV29/MZfsVzpLDdRtuIZnbpXzvlf+ev8MvYr/Gqk4H/kV/G3csdazLuyTMPsbFhzd1UabQbjFvDRmcWJxR3zcfHkVw9GfpbJmeev9F08WW8uDkaslwX6avlWGU6NRKz0g/SHtCy9J30o/ca9zX3Kfc19zn3BXQKRO8ud477hLnAfc1/G9mrzGlrfexZ5GLdn6ZZrrEohI2wVHhZywjbhUWEy8icMCGNCUdiBlq3r+xafL549HQ5jH+an+1y+LlYBifuxAvRN/lVVVOlwlCkdVm9NOL5BE4wkQ2SMlDZU97hX86EilU/lUmkQUztTE6mx1EEPh7OmdqBtAvv8HdWpbrJS6tJj3n0CWdM6busNzRV3S9KTYhqvNiqWmuroiKgYhshMjmhTh9ptWhsF7970j/SbMrsPE1suR5z7DMC+P/Hs+y7ijrQAlhyAgccjbhjPygfeBTjzhNqy28EdkUh8C+DU9+z2v/oyeH791OncxHOs5y2AtTc7nb/f73TWPkD/qwBnjX8BoJ98VVBg/m8AAAAJcEhZcwAAFxIAABcSAWef0lIAAEAASURBVHgB7L33lx3Jded5n3/lfaHgC950N7obbcgmNaQoUSQPqd3RzJndMyvtH7N/xv6452h/2Fmd0aykkTgUSdF2k+xmO3iP8r5eVb163u7nG/my8IAuNECyAaKqIoBXmRkZGeZGZtxv3HvjRqRJMB88BTwFPAU8BTwFPAU8BT6fAn8b/fz7/q6ngKeAp4CngKeAp4CnQEABDxr8m+Ap4CngKeAp4CngKfBUFPCg4anI5BN5CngKeAp4CngKeAp40ODfAU8BTwFPAU8BTwFPgaeigAcNT0Umn8hTwFPAU8BTwFPAU8CDBv8OeAp4CngKeAp4CngKPBUFPGh4KjL5RJ4CngKeAp4CngKeAh40+HfAU8BTwFPAU8BTwFPgqSjgQcNTkckn8hTwFPAU8BTwFPAU8KDBvwOeAp4CngKeAp4CngJPRQEPGp6KTD6Rp4CngKeAp4CngKeABw3+HfAU8BTwFPAU8BTwFHgqCnjQ8FRk8ok8BTwFPAU8BTwFPAU8aPDvgKeAp4CngKeAp4CnwFNRwIOGpyKTT+Qp4CngKeAp4CngKeBBg38HPAU8BTwFPAU8BTwFnooCHjQ8FZl8Ik8BTwFPAU8BTwFPgbgngaeAp8DOpkCzVf1I2IwwQteNtsgoF1uJwvgHx/CxpsVakc2t5JFm+KBStc7DqAdZPJuzZp18+akOzbg1ohGrtcpOuEo3rR6p09SmRfnnBrVmqw1h+zU9cs/UyIMf6UztjJCBrpskbBAXSVg1FiMn7lJkTCf6kb/FKMHlEeGxVv6RsADSbBPCx7e5tRWlHBrUJ1ZvWIxymtE6+dNOWlKnvBj1i5rqHLFmk7MIaTmP1qPcj1iDqqieqgq3njqoLa45qmQYHmqO2hze2P74NO3b/sntY6O0r1Wr7RMQ6/qAglV2VQ3gJNmqd4nHG8QliUs8NofwRpO0DzU4vPHQUUVEnkSIh57Y3RceNOzu/vWt2+sU0Miqn2MPn89RHAMhCSx4i5vAwhwFozCnIGiQjZKb/j2Bo7Se+EMPDccJGeApLwbH0DgPu3TZBsybuIg4p2obMIGAsYi1BkGMJAyuKS5BNEjPvWiTdupHzq7JitMDrvmUxT3Rpe5iASdkoixh2Ur12KA0AQUfm4QbgAGXTq2iDZQVr6s8GGA8KEf1U5UbNKQaC0pNKYFAT6sOEVd/Ll3N/oC+CSoTZKM8XRnK97Ph6dr32eceF9PeT9unARY6QnBX4KpF3ZD3xx0I5JYyAvwFjdg+pyA2bOznpfn87+bzntyN9zxo2I296tvkKRBSQKN6Kzi5wVOMf1FNXaMaTB8MymIcDky4QVqZJsNsn/lRUo46s+4mdajHag44xDXxVpAEgDrFqLNrmhMN6IaYLCw4FjQ4lJnAjrkXs3iL6QuIaJYfh+sgwCA/QSHaLl4pyQyPixKKDyQwOqo+5AJDbSOvUm0bePRzg2rowE5UICbZKkdd0IDsYnxIHVrAiYo8yEt1drVRbFDX4OYfABiUQViEK1OA6UGR2509qX3bPbN9nOgagKXt7wftjNDXAkhKjVzIgaka/ax3IOEwnOsdsngSHQJA9riyHsQH79CD67195kHD3u5/3/pdQIFwjN+2Kb/jeBfO2JyMl0HXSROceoABeysvSlShn1vwtrX5vSPFyOswCAGZpgTPEQ1dAhFlmD0MpCYGS4U0w3T1FKfTMzoGEgdVV1ekdJhILEWPCBoZkooEEZGGZAlilHAfops0OoBOkq7E3XPiSw0AiY5RqTSeEB7QbfuEDoYI4DhgRrvqVKROqXQGJVIPQQJAEYxSaooErQjZoRi2Y58UItAjNrilOtm+uK1Ykn82PNocN/XfNuXWs09q31bCJ5y4HnMg8PMSqi68DRz0U1A/VKL0sfoQ2jnQx72ngQSB2q2VkcvtMX+eIsljntx10TsSNEh8F3kMvNW99qB0YVz7M9vF6bkwXuftz4bXOoZp2vNTvILubRcf3PV/PQWeAwXaBzg+B30RitoCBA9/Ig9VyA3GTsqg9OGwyyxfz2sCp6DMQq7lIp7tH9VJjN6YdWuQF1MUg21gYyCEIPYdRYwfr8HxYOJNJASagavlqqqqLf22mqW8xBf1E0CIMEPVeZCSEz3XBJw48MHYQaODe4FYXDTQ0AOPcs+1cgqec6Upj88GzZ9Dauruw9cqo2EN9PmqryM/7XO1oo5NCgsUQrQFsKQ6NSSFcFSh9ow5apekMYJHjxkaVez2QYWGQcVuBd34nI7WWOuefZBBs0E7nchmKxN34uQHQXephg/fbF1JcrBVmgNtahsPPYJK1J/1QCxE+vCJwKJF5bjXlHcgBojYvqS24kPblLYof/r5FNiRoKHRYFBAlKdjzOmtHjQyZNhi3nWH1vm0SKf4eJwPrhUfPhE+H6ZVfMj4dU/PPhp0X0F5hvVQXJg+jGt/TnFh3drj/bmnwLOgQPiO6k2FHbUYowZhlYb8QKOpzh8ZVWWEJybsovXHzTQZmMWJdN16RkO1S8PxWQd9gZIxJMQiwpk99gtiPnyB8BUxDDHUQFiPAgMAgcSAyCbqiihoKQKgkB2C4zW0kf96AuBQ5cc9jSPYEfDBY2upWStGiFxrZq9cGW24B/2wTORTdnxM/CwghwriQswtiFDmjCMad4L6qQ0qoyFbBSQ3boyhE4KZrlk5GqckxijGkRRlSJbQoO5K16yrDoINwQy7DqMLimH80/hE1WtSYagM7sg4VP0ThvYxLKJxqHXj0fFIeepm+O5ElDeR4AAXorTFqUEcnYnnX4AvaTd3xLAVJ4ijM/WNy5Arja96hwRcNRa6QFkNjD+5HQTXYWoD8Uon240atHeNIYI7iq9jGCpD2Cat1lshhU6yWVLVOYNujqvxXGucbm//VtkuLX8Ieov0pCuTwh9KT5/prg8PKLAjQUP4UqsZ2WzW5ubmrFAouM52HyMvZ0dHhx08eND6+vqCD5S4Wo3PkmMIFNpfDuUVXuvF0k95tb9kSvNoHopTOv30fHv6sBylUQjrFlz5v54Cz4YCGoP10zDrxmMGeQGBGPYAbgLbig/G6uAvUbyfvL+M7YnWYLs1+44wODNy69rxWiWW4eFzGk5V5kq5ZKvZsjUqUSsxipfVEJjKQDJlhzsS1ou5/GapZrP5ikWTETvI99/VGu11cIZxjofRCtc+nof5BmwQ4MDYoJl+A+adZwVFpVi3dCxu3UgworUKLSW9MgqbLRWCqEpc1CERpB8t7toq1n3vAmdNxhIxJHfb8Us9G8yMlWeZTCY38parlG28p8diiYTlER1kC03rYoTu7cDmAsASATzEeV62DsF8GrZJnYv1uC2Ua7ZWKthAqsP2p6PWqSIC9ksdaTPjngMeHMXcw+YoFVcuaHyqAWicUSnpBDBcNq0XqanGBDEufbCGQ4ClNUEjNgKTxcqAM9dQMg9yV7wIqCtl50p1Yh/SBRGOvnFowevqxmiBNqmhELYQXE1cGmABVzUrUsZiiZwqTRvqRGnDipOZzZLlKHNfT9LGUoIUQTsEZprk5/pGf8i63gJ6oocDDoAWFSXpk6uokpFOLdlGeELs3gw7EjSoq0IGfffuXfu7v/s7x6xHR0ddvD6Qzc1NGx8ftz//8z+z4eGRrd5tZ+oho9dRIbwXxocPifmHaZR3eF/xDkG3PRtKLB59Rnmpzo8CibAMf/QU+L0pELy+bkDdyoP3NAiAWQZHsRkl0wevd9gNkq0U4SEKEGh9Cm60DNK0ADGjaYxBFT7i8glzD599lscalfp4JWM//mjOljNJK9OQegRGzuA+NDBoXzk1Yl8/2mXLmzn7Hx/ctN6+pH3nwhk7CuMQSlJdYzBDGXhqFiqJhWhR07csVkq7Yg1AA9wqw/Wvbq7Y0uKa/cmr43YinWQWC2giE81uycIBrzjSAFkcOH7aIoYrSWnIW4wvAuioUpDKesDzSEB7ZDkhyYfovV6u2g8vzdn0/Kz9r39ywU6MDtqHi+t2c3LeLhwesdcODbgZfQKQw9TH1VUrEyWir1OhPGjk1zcn7NLdeXv77DkbPruPOtDjLQCgV0HXDa5VGb0JMTKIagof1p2KBPXWO9AAPGAyKmAIY1dZDwUlVPs4iO9jTuKAkcuK/B2Ico2mXD2rOGXQKkvgaUveocpxU++n/qsP3D2ilbfoGARuEpRFrC6kULXFXNJ+eH3eUvGEffOVfVat1uxffnvP5jZK9j995awNHkiTOniOlx4VloCdKkucaE/eOnXnOjoEKDDBeSuoeF1uVSO8sYePOxI0hMxaTLhcLls+n7eLFy/at7/9bUsmEVbxJnz00Uf2j//4j04l8Vd/9VfuqMGyrg9Jb2MrKK3iBRhChh8CA70pSqs0kjCEoCK4z4fFWBITKm0FpVFapdO56qeQYOagZ3zwFHgeFAjfNL2ZbpLGyCtBbgZGVyKiWmF2W0VEzujtZr9tlWq4kVrvbNzNclNk0o1BQIqRQoOFjPDC/Nsee6anakO+krT5XMLq6T47OtZlvbGSrSHansjk7Sc3p6y/8wjfftwmSTzEKJ9lSo5QgrpGqDODPt8pzXd0EFNSM8siEN9lsuX0oUqapYLZb+6u2cbGpp2+ELMDJEnC/KV+qKAnr8L9JeToFDHgLkjPA8YjHwtMItwXrzGgRSUxQ9Vf16JbMCKoWCfod9d5yp8vdtpcucPypMqQ6QfTWbu9kLPRg/usAPPuoBwBkKIgDzNq1V8qkzh1TgJ6Du0fsnqK2fVgp5oUsEqd8L8RTNUpPYhXTcKxzEXyRwBGoKIhBECekjbUNBPX7Jx26b4ydfWHbk6CwnNqm3htGJSs6sZUvS/BDT0jOoQ0Ud313FZwyegT/jWUAYGiqJSADHVt3XdR/ElGWTNRi9v15ZL98v6aHRsfc8tQOwBV44dGra+/YiNIHiRH2iqJOql9rh0hOHZgWk10EI7+A5LxQcgmQ0WqDqq7cvHhAQX06u+4IObuPlCYss5lq9DV1WX9/f2WTgtdmr322uv24x//xO7dm7BSoWyJVMM+/uhju3HjhgMZR8eP2le/+lW+j6j9/Be/tAMHDtgbF193IOSnP/25FYtF+9Ovf80Ghwbt5s07duvWLXvrrTdcWR9++LFNTU7yVjXt9NkzAJbXKTflgIpUJQIM6+vr9uqrr9qFCxdcXb2EYce9Zs+4wgxJGpTdVIwBk0mdrAk0VKGRd4zJDXit+05vICs8PeOGMR5wR11rcGUWxVDHHMyKZL1aqNtqrmFrm0XLbOZtvVCxDKN1jvtV3s9yseQG0WA8dkM0DEb5KDcYKQNzmu+qAwbSxbEXefdAV6f19/JDHXCA615Gjw4y6OCZqJueUT9G2KYGZfJweYmB8J3GJaJoMQSSq5BgRNbxCaOQ5tdxxNSpeNL2DafsP78xZCe6IzaFWPr/uTxtN+/M2yLgYeRgn5WTCduM9diNbNOu3F62Sq1o4/v67eJojw3H61aGTlPQ5cr8us0u5S2eSNnJA9320ljSGtDst/c37PoGk5F6yn54d8WqR7vtjaFOWwVofTyXtemFDYtVG3Z8ZMAuHOpHfVG3axPLdn8ta8cPjtrLY/0w1IjdWMnb5YkZO9TXYRdgasVY0u4s5ez2/IqVULWM9vXbKweHUEcksGOg7xJdVot3WQEGfX1uw24tlm2+kLb3p3KAtoS9Otpti0WzjxboT8pKJOt2ZJQ8RrqsBzF8FZpXGkA66CTCbkLXiY26XZ1dsMVsznq6OuzVsWE7T1sEeKpITwQAtaq0hEpmplCzT6cWbG59wwYHB2ygt99WVlatH9T4Fow4DSC5BaK6Np1BjYI6oLcXCUi3HeuP2QYqoZ/fX7RiNGlDfQOWQSpUYDI3Bo3O7+uy/eiJZLB4b61hH82u2HIhY51IcM6MjdjpoR7rqFbt8jxtXi9ZR3ePlUobluZdf+P0EauXGnZpYt7m85tIBlJ2aGDEXj5MP+fL0CZrC/Ueqy1X7P1bK7Svxxop6Im6Ji6gA/PPAbBuLhft6syibebyNtTfZScBWMcHuwGLMft0bs1u0adDI4O8ug1bXM1YurPDzh0ZsTN9ceuEjsE3All9cBR4wuf6YlJJIEFBjFg/oXYdNcsPQ7FQtDqouSPVidiqbj/56c/syuWrdvLUCRsaGrHLn16F8c/an33jG3bt2g2bnp61V16+YGurG/bDf/0RwKJgx8ePW29vn/36V+/b5MSEnTtzzn757nsOMJw7fx7U2rT33vu1baxn7S/+4s/s6tWr9vOf/9zefvttB0JUnxAstNctrKM/7mUKMFrLSr+pebDeXfFR4hihNPMRJBBoaJBGvgWcHp7ZrETpYgp1wIRmbFWkCDne7+VKzRYY+CeXNuz+at4WGVTXESlsVvNWrBQRrWMPEC8g0i4yk3LsnLJ0lOhd5bbi3DcksTT1qieJTsJY0ixHTMGoOi0Fc0tzvi/WbYcYXI+PdtrJgYTtS0WwK2BGDDhoSuLGsS4LdjEmJ0unsvyXYaJDCypSqx0UqcZyeFwIv2rRpYx9wTrtXSrGbKVYsQK2B6JPCsmIjAjjkaStLBfsveykZVeKtlmp2/Bo2SKvRuxr+zvtLozp//143m4szVuzKLp22s+nluzfnR+wi6gBplfXLVuJYDPRaVcZE8SkugEi3786bx8CNCrlhiWga+e9FXt7ddS++dJ+m6nG7J9uZ+yVGnQZ7rVOTUTmyvbTG2uIzZM2iojjVzC1d28u2Gq+CA0S1mlLdmOmZH95YQx9fAqgQT/T15uMWavrVVtfq6N2iNrE7JrdQ9STwLbip5em7eoSdWtWrMZ70D21ad88NWpfPtlrlxey9tGdVUBbpx0DWF0FYfz3T5dtcnHDyoAKqxcBMRv2H14+ZBeP9FoShwaCdXX65na+bn9/bd4+ub1kJd6j3h4kSumKrQBOTh/stiOHojY7s2nfvzxns+t1JBCobKj/7eVV+8tXhi0BWPjR/bLd3cjaaFferFCFhhUAQNm+e67PvnNu0FYydfuHjzP26Qo0REqUiFYAYXH7zpmUneuP2AdIVb5/dx1btKyli6t2fKjD+vaP2qXLM3YJNU0BmlV451I46Pgativ7u6M2hT1brsp7ulazmzMVGwSgvUe/rKyWbGwgbd09HfbhxKb986VZm0FloTclwTcwNrlmf35h3M6P9NsHSw3715ub1jNRBgA3bAOwU43l7I1ywv730/12poP3Sq9p8EE+7hXdU/E7EjS095AAg6QNmuGLaYdM+uOPL3Eety99+R1bXFyy3/zmfWb+F+y73/2edXambWRk1P7+7/+rXb02ZqdPnrZPPv3UZqbnLJPJAEKiTqUwN7dgY/sP2OzsjB0+csTu3Z+wK1cuYyfxTQcSJN79l+//wH772w/t5InjrloCNO+8846TMEjiENZHdfTBUyCkgBhhUwBAOncYaBTezVvHH4Y2Vgbon8S1tbiABULxOvP5KlI0BjB4uWUYxGaZGd/PlO3WfM7uZVYwhMvZRinPLLlgtcSm1ZJr1kwvW2QgY7EkU2VWCgiINCkw4NECCpIOqDZ6P3WtO/xAJE3NXGEQkUY3s1h+5S5mmV0YlPXafGXIrjbT1jGbdMaI+3u67PToiJ0dHrBjTH37EUHI8Y7yRG4RZK/BV4wqSjxtjCLN0BzUGd7p1mOCHgOTwOBidpPZ/v/543VL0IYycVWY+Nn9lDvWC6PCZwMGD3GYysvH+2z/hcP28eQ6uv4Zu5vpthMj3fbzyYxdXd20k8f22zeO7LNirmk/vj5nv7m+BOjptLfPHLXZzKptVNCLv3GW9sTt1xNL2Bes2ol9w/bmmVG6oGrvXpm2D+4yPgz02gFm/CMj+2wKZjW1XiCftN2HiQ8NjNk46oXbmw177/oiUs2G/ed3Tlt/d9o+uMXMemrZ/g1G/s75EWwlMOCkTR3YGZw51ms3szSOseids/vtq4e7YeAbvCMle+vUQdsPuLk2l0NqOmWzy0tWHu9CWsNqDwxAGxiE5lB3/HZy0+4vbdqXTx2wLx/vscnlNbs5vWLTqHJP8C7tT0iFGrV1yru8WrDr99aQKnTbn71xxLpwWPFrxP7rzQLMPWEZgNl7MNqJfMPOvXzQDvbTvomMXZ6btdRoh715MG1xgE8CQHYKycnFiwcBEDV79+qM3VnJ2lRhwH4zvWafLGUZRxlvD3Yyo6/Z1Xs5+9mdrKUuIl2ggyPxih0c6bHvHbpAPimbASBmUMicPDduxxmHp9eq9utrd21+ftkuvH7ULpzfb5lPFu1Uf6997/Uh6+Kdk51LBFpINXVjowpwW7K1tbz92SuH7eyBfru5AqC8OUn8gkWRDoMNnOHpMMDsa+eHrYik5odXJm0afrIwGrVTXYNOGOhe3ce8n3steseDBnVYBVQrg8gqYq6QOScTHfatb33LXn/9VWb/77o0p06dtu5uPjAG4/Pnz9kPftBjc7OzAIsv2fsfvG/TM9OWy6FHxKBSkoalZcSOAIUiotzjx48DKqZNEow1BpV3kTjIZGFtLWOrq8s2TT6SJkhNMjQ05NQYAgyhweZee7F8e59EAa1o4PMDNMTFRB2j1nQmnFfLN4Jmz8xCFce7JB38CknvSfSNOP6ThRWb2sgxO920anQJEJKxZv8K+oIVgMcGYGDTAQ6pNJwPABjFlrbWSRsEEvhRhwAw6Egh0pUIzFCuNCINqUgAEMjyuStPkFoeiJFfvc/ytQO2WjoEU9pnVxYY9Ds3mCV2wch7bZwZ735mewMuO1kDkB95Rxop/BcBiyhDImHl6trP38eFAHNLohBFVVJmpiy4kbTxw/0YQg7bSXQll5dQPjBzPjAwYO8cHbFDvQlATsKuTcUtC4OcLTXt/iJMCqb+5pFR+8pBAxzE7H552N6/UrT55RzAoN+a3Uhj1jftla5D1kPB94mvI3n5ytiofXs0DYNPWy5zwP51CZH7Shkm2OMAya+QJNxcqVg3+G4tRzzpj6SZ/d5ZQ1zfsItnR+0bx1PWC+1rkUG7nS3ZJFKhl/L9SIG0BgFwBL330bYewGI0XrLhQVaC9Mhuoc+Ov9RpC9mCTd+ftgXUFGAj3otOxPHAsmLKOvLMrpF65JEcLGfXrauzaK8fS9tX9sXtVcTv8yeHrQeR/QgTrSTvkQxBtSojj0QmUmnYKVQxb59IWj/dUW10wKRZbUM/VTSjX15nhVqHXYcJ38cItVBJWbWUJL5qjaEKxpkVG0Ll8BXK+OoR6gFdfnsvbhvUZwnQMUu9MyiHcotzNsVLXKt1Wh4Dm97VqhU3ZVDahZqrwy4OdNk7x/pQT/AallL22okzqDXKdo1+m1pAClBGBVFPA8ASqEiipGvaIIDjCMavmVoV+w+gKm2MsrolQ79lchXbPz5qXzvTbed6SjYIuL2zOmSZpWVb20DyRlusUbYzBwbsW+M9tkCdrs512BIApQDIrgKo5T3UhwcU2PGgQYxayytfe+01+/rXv26pFAMSH3oSXWVPd7fF0INqIFa6wE9D0HitOU5hNNkgfhi7BdlD3L9/D3BRtUMHD1mNPJaWltxSzi50uYcOHbSpqUnia7a8HOglladUzG+++aYdPnwQicSUAwkunnuqR7sBZPv5gy7wZ3uRAjKwjYsRI2KIaOBylmUMTljDS2wch4M4kwdYo6T4jN92ncH9w5k19PEZm60u23qcWWZ6Hqu8Jd7tNbLIWxQJQzOK5QLqCAGEiNQMDNARqQjElWACFMJPF/wcYGidE7MVlL5l4SY1eUTLLo16RrLukWAvhEVymEYQcg0pxKCtF4dgJvttYmbE3p8dtsOD0j8P2hvYDJzqQX2BQZ5gkXO/DHjQZkNByQGU2Sr7kROlaTAjlp+D8eEe+08X+1lmCQCCMXSjCuhG/K4Nq/jkHP2S6U4MJc36kAh0CdlDhyp0kI2fJhYdhqQROvfLcRLPJLEZ0IyzypLUBLp+UlsNT5MVnEdp5YkYSz1Rt1RHA6PIJnc5YnQpSWYdxgI2sXMYIH6a7kZ9gMSAGXoUgHUee4N9dGSlrucRjWMLImaoXzfgJwp4qFCeLPqTECMGI6c5MGpBt6olADn9hah1YKRyb37TfnobMMjKgQOi5WCvLTZK1DkAX1oqWmfMK5HBGvWrwKAT6Sq6fQEzXhHoNyZROyqeBIxcgqUY9hg1JFt5pBw12pBKJwBJBrCgrsmolen3Aj1UZGMsMrce6HSc2fcQbalGkCzE++w0K1SQPfFq1KyT8bQ3DbCj7nGkBg0kHzWYe6NKRvQ3Zh12ZF/KjmBVGyNVg98hdpoawg6BUlgq27Qe6JqkU2JIS2bnC/bBpzOGeYr1U84IfV6kXyIRVGYQKVUt4Y8DQw9UTJLayZDRjfEiJG2TOkv0jRDfQT900pd9AIo0FZG0rQTQqVBylLb2U4cexv4CYzaYDRVM3Ep8o3rr9QaJhj4EFNiRoEFMWQw4POq8G4AwMjLiQEPQtNacih7vw2hHL9PCwqK99NI5VA8xGPysbWQ3bP+B/Rg7DjsbhCtXrrh03/vud/mg4nb79m27f++evfnW2+Q9xNLNIef34Z13vmLnXzrrLHEnJibtLmBDEgYNTrJKlnQhXDnxqJWyf/E8BUIKaDASSNDs3b2tYtScNaRGYFBrRDtsFSvxW4hZJWa/Ordq9zeXLBdfsUp6Bs5zj8F9gbRZAAPDG4NrU4weQzAHFgDGkheIy0vlEXEAxZWqglV6K3DuwAOXQiqU7QwmqJfMMgPwQB7SoSgd9/nLsUDuOYsklxmkZy2S6sHIcggAMcQMn9lcfswmbhy223P77a3RMbt4sMuwE4SBVQBMGtfh9pJqSD3CwB5+zzq2hzptEgDXuvoEM/IRyHRcw7g4LIy3CfMvIJZuakzgCKd3359kEeTOLBhVCeX1wxiHEJ/PLmzazaUiYvYBW2K6LulDAiY+3J8EUDC5gPwN1DJMom2wI2aH0l12v7RgV5Y37ADSkwplXEfa0yyv21jXiHVR9xP9nba/v8NuYEtQhhmdRCd/dihmfdgiDPUjLaKNUhd8fKDPRmGa16fzVlor2CjLAjsBE7A7SgYqUH0x6wYVlvfHfClBHQGMC+s2j/j/wslD9iVsGK7O5Gwacb/bvIm+hDq8SjjahrDd2Jb0dvWjx4/aTQRO+7E5kY+L6zOzNkR7vjI2ZIex0xBiEkDt6E2hykrY5ErN7uUBYjDcT1iZkK0DeqBDGiPKKMgslqva6eMH7ZXBhE2jdphfWbNepKoJGL2MDtVrZexuKjD0Ou9jEzsNrbfpggv3Y2+QymzakYE+++axAcsjibkxs2xdfciLcEYBf6fRMSthQOAm/8UGKp41u5NddXZoXz02ZIsrm7bgbCKQNADokhhkysg2SxsWKcot1mRS14T+AuNDGFl2dq3b3ErOLi8PWnqoDyNTVB6ZnHXSB72oVFawedHOprK+aQit8Q5FASUCyQHc0rdApxDvQ0CBHQkaVPVQDaGj1BPhckcxa21sE2MwqstSjHDixDHUCyfs008/wbCxFxCBbpMVE6lUGjuH15AyIPo7dswZMer+vn2jTkJRQ9wlYHHk8CGMg3rszJkz9tsPPnSqjBSiOL1HvyAfhlN7443XqBOeyrBjcHUQWmZm5KULrgv8n0coIN5ek1Eg/+MAAya5BKRTmvUxIBZgGLPotX81vWnvzy3bzNqs5SJIFrqnrN45AYNegBFhyS+AoRkRzEn7JMgeJwAgyo8BTzNwqSLEiN33sN3gx6CoET8MOlcy6uJAB6eKcuc6EZN3kgeXKMhXDDvBrC++YM0kM2JmasXqmJVyy7a5dMymsLy/tIjPgVM99vr+DmaYgAcpnhmz6+G+xmQdhnawrZ0LU3UcMFWzSAvQxTNrrkEfAQIM4OE1ajGDPd9+tIqUBbuGerML6QLMTNINrPEThT4bbvbbW0dHWVUwZe/enrZPFldh8E3LIz5/6WC/vb1vACZPE2By60tV+2+/vmPfxgfEOWwZrsHwP5yaRw2ThzHHLMsKjOMjnXZhfzdgJGZd0PfUQNJuTKxD76qd4pmDnUgzIdUFpBA3RnrtBqDv/85iIIjqdB3AMNIZsX93dMjGaEmB9lXjSAdowwDz2w7AUaZWsB/cm8HYb4DllF30d9HuzGLYiH3DZhFndmXWh8pok5Ur+leXEyqY4EGMQl8fGbN7Cw37yZUpuzyNVKdYsypqi7fHh6yxj34Tc0SCMMSzbwz02+W+CumL9n/98q6hUbIF3knEqtbB7PsAyy1ePtxjM6hffv7xgn0YZ2lobtN6Uxt2cqybeqOugu7YZ/Iu7OMPAANj1WQR2xOkDp0JViIc6GKVQtQuY0swM4kUB4lJrTJvX+lEhUMfpsppSxWQxLCu1HmCBE+metIOUM/w/v8ym6efWHpbRk3H61yETlpNE0Xac3N22X7wadQuHKVsrYEtFwGkNTvGOP/y/j772e15+28f3rX3kJRUWOkhSdebZ/bZecb6RaTJUdpSrw7yLiGbIvNoCWkGzgKjVWgOmhHg463g54MoEPs/CDuNFCFTFkPe2NhgadCKHTt2zMbHx50BowYQxgKCUCPiQNQXo0gh1vnYrl2/7n5JkLUMGl9iFYREjZDCGUEePHDQLgAkOjs63bJJeZR8550vg1r7UYN0Im0YtEUkFjdu3mQ5533r6elGLfI1DHwO2czMjBN/vvXWWw6cCNC0D347jc6+vs+OAgzxDKcS9wvgapbEi6qZYqJm88x8Plxu2n+/tGK/QNI1VbluhfQNq/detWbXNSZG8wyWWtEPG2cW1JB0ix858GPQY6AjBobJAMwA6eIBDHwNpGj7ATD0xFacU0kwgmv276IlndBMLADiwcyLWTHMWKs53KoIzmHp4BFUfTByeR9sIh5uYiFvWKobthW1FDrxSM7m8hhsMhPPFJIsueu2PpZtSnyuf3zKWyD7UaANj2DZaMU2YHwHYcznWFo3IAcSIC0ZEGq5YZR6ZLF8X2d56Vh3zM6iGuhE3L6RKxGXszMY2L0y3MX3i00By+4qparlNrHUhyG8CuP+9llUKeg0tEqhgkg9h1FprJm38UGWTB4esp7hTtoGg17PwWwr2Cv02rdfGWPJIzNo6NMBwWKoCGRAOYQNwtfG+51BaAzQ1sesdoAyI6gsijkx+7odYynin7+E/h/pSycIco58OwB3X9rfb+OoQwUAs+DBGI6fjvSl7TxqHnVXYXPdeYg8fWLEBtJ1G4BTn2BskrSlWirRzi47Q53HkKh0dUVts5C3Dbwk9sXT9s74sP3piUE7iNRAy3OdygralmjXIuqRdRY+gDxsP0BgkCWJuc0MNikxbBQG7fgA7SSPHIaepXzV9mF8+BcYRb4JU6bLWdaZpU8ASNiE7OtIs3S9ait4uRwDGL1Mm44jielN8I6gI9qE+3ch8Xjr9H77E0DcMNIM9VG0nrPXAGH7egEDgMoUhooNdHMN2pBEgnIcUDCKRHcgWmLFTsoOIr3II30qVwqoTBJ2rK/byqwg6kGV9PqBDpblJmwEwJZglU+ZJcd1vRtdMXuTFSd/emLYxgB/qxhJ1gBbLyEBGmc5qlbcqd4JGvXKvm4bR0rEK0Hgm/BBFLjEt8/Xv8NCOzMu8aFoxYPUAz1IA7YCrZIBl/NORqQcnMhhi9xOy+OZ1BkD2DFIT6oBS8sy5Vshjnist6ePJ7BCZpCrg7Z7QKRydgO4dR9nZg3DJgwiNbL2YFjZ19fr9GZ51hLLE6XUJHLoJMDw6AC4VT9/sqcpIIFylVUREQYn7RWgj7AEWJhjGeCP72WxVp+2+9kpK3feR8l8l9krqyDiMm6EGbvUYuwazVBjaLou/g8wiOLyMIphXFSM3wUE14ibpcPVc278a90JDo/EtECGEkowoXopAEH4S54wZ8XGYFba0MoBCWb+7ttgxi/RgSR9AhpiSjptSCfeHKKBxxFxn7a+6hE707vfvnZ62L58tNf2c1vLJeU/Qt9LuOKIzFyASjBjbIxYsy+3yoPo5juk80c9IvBVsR4EKhjlkccKzAqPBzAw6oLu2j1H3AAM+wCArMaseJP57ybShQoeBBsAq76uBMaaGAfyPHaTSEgi+BKQ62j07Vz3wOCKtH0dG4MyM1E1swOAMAADSmBXIGautSIFjCpnJW2kXw+iI+/UWj3yjEGEHDNVtAswOGb81LqDe8Np2oMYvYS9QAbbBY1rg+Qp+4Mc9cpgnNjgNyj7B+I3UKXkWO4ZY/lhGm9PTYBPAian1Rpqe46xalDlIimJ83yRDlzg+U2kWD303yiGld1pbCiiXUhisB1wtMOZFVKU//L+pK0WE3b2BKszRvDJwGqRmekJlqIetL9++Qj0Y2kvZa2xlBezSWxJYjbo6o/La9QKc4ClGO3el0DdQv2K1GeO1SxxXozhDuweAJSSEKzR/gp2JUme70nRVhi3hANL2Cds1Ms2ghvsIeoqN1lFxk8Z/uaQdqQgei8+eCq8B2WeH6adCdQwS7jP3uB+F2UOI3XYYBxHZmOj2J90YcdQA8yuQd8s/d3Ev0YKENyJbUQXeSf5RjIAuGX6bAjAM8REEtZgK9B1Hd6xD2A6kMCAl3cyEgn8/4Tv5B4+/u2OBA3qMGEdSRzCmbwGm/Y4DWJuEOUD5/tx9+RW1blO1bVeBD5ehSAfbLvJ0+3Q5qIZDt0gKPCtCAZBRgeSoLrQs0Go6h5vmgaO0Duk8lPwoCGg0Z77694f9/rxRwwlDAz0jnnzsihWLxMMrsZsFDdDNpmL2A8/3bR3707YUsddK/UjWei4g7h8HebLO+UUv7Ir0LvIswzWEUCCGDqnjkFLExG+1yq8wSCpjY8azKi1KaSTtIbVcUfV46GIoL7E8QT1DcCHJAhuKQWl6U4ICOTUSe3TbWWjGbKkHgGK0WALY8YorwkDa9YH8OGANLB4DFH0PhjEQfvGieP27cMYTYIG4qgDVXsZuW1hHuVJkfqG9dVJKiNGr9UXWnMfkWgeVYTAjDw+CujEG0g4cAtdw9dCFb16BfVBAgCTRNwfgbk0WSpahhjSZLOOwdElgSVkjXILgA38TtIbLICF1LVm2QoYyiUxpEwDkgKVkoiMmoSKJegTSRPEhGMYJNSlogEIyGV1CWNBreZIShfl6ChwB1Oj/5o0MAqTla1FNYqkhlvazVL+F8gOqQXWAE6tRDwGn9rZ0in7OchnQRRD1xiNTWAESGZQGB0841UaIsSks4EumLZYlOUY2tBLfd9EMlPVOCkbGp6RsaU297qDRucfrs7ZBxOrlsPxFHIkxq5OO4WE4H+5MGpvDyehCWmpG+yenwBHDXNSRBMy5q10UBZtjG1Sd42RMFheiDoTsihASACGF4F2shSSZEnuaaOtWJT3grzkZkrDqOgiV9lp0kegjcZrgbwGkh+9XMpHba7xvAxU5eVT35OeldQrCThUX4t4cdQ9zo223igkHIH2T98N9KfsOEAiyU/vSy0JWG0CC+VjnAj5RqkkMKKnDK0KER/woAFCBmHngoawBTqGwpJwVh9e87psJdOZxKCPBg1EQXyQInzmwRUvPx+cghsLg1OeIgX/w7IeLTu8biX3h71EgdZrpoGKMc0N2HBL3jOGdmaNYleaSzWJ0yCeY6C8jg79R1dm7JO5CVvvYBVP301rdEzDmzB2g0EG76VeODJk0HTAQCMeOemeO6VcxQQhqEQw61cM1w/dbyVreyKMcUf3uPJ9kCMcIsjHJQjiqUpQl1ace8zF6IZWIujrCoBHUAcYQG0Azjdu0cJpVlSM2zuHT9hfnkbUj0g9xWxZTKDB4C8gDv92ecgy3pVIFeAPBOUPE3DAS/lzVwSHWaqeciLVQDcpsCTAI7AR00oF7spQTz0Qh7k2YMxanaJ8IjAlgRW5GpakRsUoN3mZFrMKrhVDIE5Fuzqpk6mUzsVWHZ14Xrtu6hkBCHfi6qwaUE7QiOAZNZS8lLMorJxEN0d6Fx/k7HZuoi1yyESmeg14KDRCpJ1cOkoIpOiWAIg7E2FgsDp3RCV3R7eAZFJ0LSLFuMMS3iWWmkI9JLHYeQ334RURdY5rX6CiaiANU6uVm9YWuDqI2UoPLONBV4hqEYSg/OCcGjv68+ZzRnB2MY5CW+1Xy4NnlJFqovsPQnA3GLFFIPd+hQM0qVWG2qqvLBiwiXFtpgi+Hd11VSSFJGXuSuBM6V1ZKk/fKm0iuLo8+OPi9vif3QEannUnhh9YezkeFLRTw5+3U6A1HhPF4KgBTaOUZk0wlAazHs3S48zIauhptUHSb6bL9k8f32XGB1jonLJG1x2cMrEawS2dZKbYkni1l/Hin6vRDjbRdi171shbZlyGqeq6PIp4/Qi6gHHrrRy31/adsu+dwTJ/JGJ9MSQFzOybNWasDOwRVDJazaTtqj83iF+38FUdlOAm944voMGnU8RgNANwuxtqBksCbYstXtGAMcKOARNII121YY6Iu3/X8CzHii8y7ybgTEBHfLPO+6Umq4tEPv3EQgW0sK5osU8iCC/iuLcdXV7Uujoi7uw/f/u7fxU7u8G+9p4Cz5wCbtbPYBvFaYwbghHTykiwiV5Uk7ZglsYKCaa4H84V7R8u3bXrRQDD8KRF0teRrrIyIsLeEIiTg7w0+xH320lB9VW9238SM0MAidqTeF5FPB3BoDNXaNj7CxjioTP/96+M2JdGsTNg3Z1Agjz8Se33VK1XIia5otkDwCCaATyEYcQJCapRVWJqOiPJLDROP0Tk54AbdeIiAJsneal0Ge3gPw5AAWKlPokhCZH5hbQIaBOQvkAjJAdK80BmsIMb66v+hVLAg4anIGeIrh+HaJ8iC59kj1FA/KklEHZn0pJrUEZrzYDctHV0z+/OFu0fP7lpd4t3rDxw1+pdt1hNMA+wACwwcEu8rPmxY3g7jn7i0gqiRGCrEAAfhhyJYrSGP7HGPZaYYlRZQlR9lf0WYlcw9Hv5sF0YSWBsV2Hmn7AOdM+gKGX2ucEBLJI599xtKQXUgrIDQFGR5Sm9Eydv2YPIsE/VlFpepQSAQWe7OIieIkNLtM/rBiWwh1CTRa+WSN+d66YPngItCnjQ8JhXoR0gaEWEVkNoB81248vHPOqjPQUcs9e+DeJCzn8CMXE3QDOjJvLduXX7/67N2t3KPSv3IV3ovAFgWAIgMNWTaJ40Tkst3hXy3x1FV1W8VXkt29zi6GJLiieO2X4zjvFcesLiGOxVsuwXsMxyuyudVnl5hJ0psYjnObmiEN96knbC2TGQrp3HCTCIBzoLBW40nMMh2TZgVY9NwzX8HhTwGXBurM8OI55Igtbc/BoDJiet4NndGILuoB/aRTDCco5atBjjSwGH4NVrp+hupIZv0+9CAQ8aHqGWwEL76ocya7+1c+XJkyft7Nmzj6T2l54C21PAsUus4cWwZPAlS3mt3Mnhr/dXk1n7pxtTdrMwYZXumxbtuIWl/BIcTXp1+TyQqRi6dfew+K1y24EBI70A8aAxdwQJ0U/AhASMHIdPISavzeENGA+IWONfXkXCwl4Q3RdY6sfmSGgnguefSIKAYIHJohK7Qt1TTcTtKl1zadn+L6KS+DGbMr175Z714+9gdOAMDqfwauSWYFBvVf33kM2HUklX6Bf854vMW7RwphstY0LXI5BLADfoHUAdITAiFB1f3PBF0uXFbeWLUzMPGh7TF+FySe2e+d577zkpw6lTpxygELDw3h4fQzgf7ViVBl7xHzejxoN/TYaQkW77EOdG/3Rpwq7l2Pxs6Abr72/CnDKk01IvnBhjnS6PgvJkGJWVGoO4ls7tyCDluFiQW3YUMKFgZuvM7tRioJGWjLICAAlANDlj9f66849yfXHTfvwxvgxeHWenSXwoOOb2+Vxc5BZMc/DATaWZKVO8LPAr0F/7V2hBZYadv340tWI/ujzlvAq+fuIwG0t1ASWCCbasA9tXSu1I2j+h0lLLqG+CNReCqAGg01LeFlZ1d0VT9xo/IT9/e+9QYKcOR8+0h0LfDwIH2j1zmt0tb926ZV/60pecUyg5YfHBU+BxFNAQLJmBXJkHA24ERzUddmUtYv9wY95ulaetMoCEofM6+zZkABc8gSojmCHDPDUHZEx3/heIDebIjyvtRY2HCWmlhKMAzN5JHWBHMoIUW6LNwcyfZFw6G328SEbikw5AVHDWdGU1bf132Pegi+2UcW6E/53PDcHyS5LIZsKBBs4lYaATRFWVvICDpv9xY9l+c+sOXgkT9s1Xj9ifjg3YEAYn+MCyCshBC+4EUnbz4BguIcUTQQsViDoBcNBRQEvw6/NhGo/4sOcosJu/i9+7M0O7BYEDAQb5J79x47rJ+6Q8SbbbO/zehfgHdzAFQnb3uCZorqbZNKBBJvlsX7yAx78fXluzT1ZwoNN7Hxd9H1ossQpgkFMipAt4EorVCzAuJAwY/tVZ7lfVkniGb23utPNme1QaQ0bHiNgKm+US/DS7FW0UnHICtQ1p5MgHV0FyRY1MAD6/wv4ad2yllrJfzLH1c3ePDb/UZ/u1BtCFdmq094XO268pC2mHVBN1QMAy+wn84NqM/fD2pu3v7rfvvXrI3jrUaz2yrQDfyHeCXGLUHdgRM929LFMUlL2HekR/ApWYaCfAq6BzHzwFPksBDxo+SxOnehAwyOVybjfMYqlo84uLtrK6iu/6YbcTptOjbfddtY9n2+Tto3YuBTT/Cpz3YKPgRlp9PsEnJAdAki5o0HWvhTwEyv0dV4uIxb9/b9U+mJ2xfII9JDovo79nW2lmt87ts+bAAgvuQZhci1dp3wiFnflKiR2pIbTBkUEz2bAlHAO9gWPqjnOJgyESiMjDIM80E3NWQ7qwtNlhP7vbD5M/Yt8ZZ+tlVpbEagB3sq6zwZNzFFRPAwrgfVqeQhnaYVHHSBOwgqqhBl65vV6xf722bJfvLdmpoS771uvH7c3RLuvFSFM7JUZk+MhTuGRyW1fvTOkODfhdgkMMwQOyh9SYJiPQ4PUTdGhL8Lvk69Puagp40LBN9wow6ANaWFiw+XmWwDFTKSBluHXvrh0/cdxSOOjxYa9SQAwpkCIETNGxRbFGfhpog7NgMye2bMa3/q/ZivmXs1O2Er9vUTaeisXncamrtPghgNFpJz0nQ0ffLlG6ctDfrYm1u95pf9SQtu9EHLnVsnZmJDF4cC3fCKKrXBDzP66FkHN4g+635Wyf/fhWg42oxu1tNmPqEoFEPuXnVBHANZ6pYzHZBL1JqC7XznJZlGfV0+21mv3LJ7N2aSbLpkdH7H8+223nRtJsVkUPSrpAXq56ynTLi6Ly38UhaPBnGijqBaGFXD+TwkfsdQp4KPnIGxCunFC0VBMCDfKFX8jn7erly1ZkoyqBCq+ieIRwe+BSw6kkDFrhL8AgS3MxK42z2utRCyXdDxAQxzlRNdWwaxtV+7erMzabu2Xlrku4hr4PCNWeA/LLv8c/v4CgEFAIQL8AcAUsHAARy7EcEw+ZnTdtIrdoP7lTsLtsn1xmtUMkxmZIrESJIEZoolOow+xLgPsqXoo0V9bKyizf6YdsZf1ffjNp1yc37bVjo/YfXjtoL+0bZLMraI+xqQs61xIN8UnXn/xh0uCDp4CnwGcp4CUNj9AkNIKU/cLU1JTbtVKDWYWd1CYmJ90umT3YNYTpHnncX+5mCjiEIPE5Gx3BaGREJrbv+Aw+GCKBfsHdF/ubrjTth3dX7NrqopX65qzefR3GtOLAgjY3UpqtiZ3O92RwVKDlmu5z7nw4t4YlGUamFqATu0zWx+zKzH471NNlQ+eTNirHT9qSknt1AFoNJi9tPBtb46yara3jHfbBYt5+cHnSlleL9tqpg/YtvE0eZ/vrUP4Rpw+lmpBWQz3putf1qOoUqCv2ZJf4RnsKfA4FNOb50EaBcM3v8vKyTQISauFKCQalDDYN09NTTsoQpmt71J/uBQpo8yGnd5c2XRYMBJ0ohEcYTgHW9PFCyT5amLNc54LV2YQqkshYI15xySRGl77dBwe5WsQTAaWiEFV1DpBgH4pIYhn63WG74gn7cHLKri8CDCL4VJCEQAEVg86QOSAwaNgSEocfzlfsv17esJm1pr119oD9x9eG7GxP1DrJMsmmVjLNdNAEaQTJAQyqh0QNAnNeNA8hfPAU2JYCXtKwLVnMSRnu3bvn7gogxNngZn193T799JJdfP2iu37Moz56l1NANnzwHn4Be2nIiJEIJ32A32yizvrNfNn+5dq0zdRvW7X/fYulAA1KU++BL8ngDLsZJ5nYQhq7nGqf1zyxfA1FAAbnPVJpRWTJBKBVDF1D+o7lext2BwngP15JwNaP2xujEesxtnJGzRNjlUSOLZRvZpv2o/tzdmNqw4b7Bux7Z8ftrdGU7evAG4R8NSBOiEmiIcBGEVH2BXlIFcH9EMZ4KZD6wQdPgYcp4EHDw/RwV9Vq1UkZVpEsBPYLDC5YVxcZsO7cue3AQ0cHMx0f9iwF2FDZAQd5YnC8H0BQQy/OvNhu52v249vzdmftjlUGb6KXvwtOwF2yrP6N90ZMUCjD+SzYsyRsNRw6QBXHwbUkQsjKoSsBCUCDJDvQqpFcR6AwYVnrtsuZfhuc7Ld9g6N2CruROJKDIkDt0lLNvn9l3m4uLdjZo0P278/32wW225YEooxb5Br2DvGqdtpUOWTvpAscW0FYwnWqjqHgIbzpj54CngKOAh40bPMiZDIZwAGbCOFCWiHG4FKV7rNWY0XFogMUY2NjjCsaWXzYMxRwjEQyAi2rFLMTq+MtgMk05VeBTYA2EHd/NLVqNxYXrNozYZGeOxZNFEEUEoijOZeFnjPA4/mdvTzCtf8P+wPhBBAcLRmK3GoL6BMCB+2ICX21NFXAIpbcxJB00oqVUbu2NGSfTKVt6EQXKomIfbxYtn/+aMmW13P25dNH7TvnhuxUJztM1MuoHtgzRj4XABfyCinhgvJTrltBF2FVdHRptu76E08BT4EWBQTnfXiEAgINMoKUlCE0eBS/SKVStpnbtJmZmWB/Co8ZHqHcbr8MAAPwkYYG3vLcBlO8Bw0cBUgbP5Ut2qX787ZRXwYnsFIivsQyQFhUU86LZCxZBGi0/BM+xLV2O+22ax+ECwGCuw2nludI6X8UtAQTg8cYxpFxqQ0qeQDYEqspJmy1NG0fz2fs2mbTfjKzbn//wbRNbZTsZXbI/MuXxuxMmv0xUW9UMIisAebw5CBtBKsstM4lDFITScmEqiiMUtc+SBDG+qOngKdAiwJe0vDIqyCgIHBw8eJF014TExMTdvv2bRvu73Vx6XSHHThwgAGIIejRwWVr5HkkU3+5ayggV8ViPmIzcvNcg7EFbCiO6Nzs/fmq3cpvWqXnKgZ8K/BELcIMfAYEKwOQUsjybiu0GOTW9V464QNyAAF6uG9JsEsnbfTRLWjujB7Z/TPK2og6e1QUO4ZwMz1o65cTVsywIqUQs++yT8VXjvXYYTRAUlnUZSgpoIbEItREyAmUcgmKCFdItJWnEfGRKuylHvFt9RR4EgU8aHiEQvLTcPjwYfubv/kbnPTV7Z//+Z+dv4axfWP21//bX1tfX58lk+wToP3ofdhbFNCaPAzu1PMCjTpGcAEt38MVPATdWS7Zx/fw+phcNuucDdQSDRw4OfsFGCIMzM1plU/w9N6i32daKzq09AA6dRIcHUP66JygS2gYabnKjMQ38Ko5a5m1Mcvd77SDA732rYuj9s3xHhshO9w4uPUXdYEFAIAD+NgkCTkIosl89ZESgjK8SkLU9sFT4HMp4EHDI+SROkIzG4EDgQYZPCpOqyd6e3ttaGjIxT/ymL/cCxSA0zRlROfYDiBAE2NAQS2J99Bq3d6/v2Er2UWzgduAyk0YEQnkd0AieLGpUOy+xbLEunx4IgXAz1suAABAAElEQVQkaMCuISobB2jZiGOEmlxgS/EFSzSP2vjwqL11tNdGkjUHGETuqFaoYJjaCEUM5BEsklVPeLo/keY+gafAYygg4O3DNhRwIlHiJXnQuZZd6iggEd7b5jEftQcoIOl1YKjAlBYGpR0Q7uRLdml20TZxfWzYMlg81wYYQqKIWfHJaca8BSDCe/74OAq0BDzclpxGtgkYKMdXrJGaxkB5wbKrGSvgeTMuyYKQHKghUB5JstMuvwjiH1eOj/cU8BR4MgU8aNiGRqHjJoGD0K20jgIMoSTCA4dtCLfLo8SApBNvwJScmgFVhSatG3C139xbsbnqolW7p9lsaYlpbZ57rARwgnI92QIMAIzgXNc+PB0FoBX2CQHdeQJyRuUtMr3AplZTNpedsivTa5avhbIESXbkH1LHYJWE6wH+xIkT8PDBU8BT4PejgAcN29BNwEDAIcbaLB3DXxgfHrd51EftGQrA/Fn7X8We4R47KF6bz1o+PW/N7ilWTJRgcjAmycndXFcAIQQNcC7Fu3t7hlh/cEO1tXWjtUQ1IjsR0TWWsRr0zrAj5m/nV+weKylKzgdDoEKKAg48NPuDSe8z8BR4iAIeNDxEjocvQrAQxuraB08BUSCizabYwXID/wwfTa7YSgEX0R0zWOFhBIlUymGF4I9S89OnpvmugIRmuvrp3IcnUgDyyc1zE18L8rqpbcEitThSPyQ56UUrdi/YVDVnHy9VWMGScE62ROomksGtTalcIfSBM0L1w94Tae4TeAo8hgL+63kMYXy0p8B2FBDbbzrPhWaVRNMmsjW7tbxphSgGkMx4o1HE5toxUUDBMSgBBv0UWqBBBpJOdaFrH55IAdSEUQfE2Jwqlgi2wKYPYkh65IOzzqZWa81Jtr7GV8NmjRgkDXLmRBDEcJ4e3RX9EJHtd9gfLtL/8RTwFPgdKOBBw+9ALJ/UU0AUkBG/lgCWkBZcmcrZzDpLAGFcscQGAgR06A+BBRiUQxot2jnVhFQXXtLQoshTHOQbQ7YIggBx7Epkp8DQVUdN4XYXxSgyPWmzGxN2a25dZpK4zyJAY6kx2gc58IcPngKeAn8ABfySyz+AeP7RvUkBOXiqwYom8w37ZIlllsxyG123mMTmEIljjIeb6IgcOLkJbXhsIQe3aiL87NrZ2d6k5dO02tkvABqaDgpowSSoDT8pDYcAME6OrVmz865lioN2efW0vVocsL60iM+uE1pCDbjTplYOPTiwJimE65ynKf65pQmNq0Oj61A9KtuqR4PStNtWhc8qXXhP5zLeDp9vj1feIl8dkKugImrVmoHBLJWQbxHuy3337/GKBnkH+brM+RPGqQ5hfdrrHN53/fJQua1+cnHBYtnAtPXhPNtpEZbpj8+GAuHo9Wxy97l6CuwyCjQECGhTBYO7G5my3dnIWKWTZZbJeQZG9piIdDHgMmDKGyHsKgjhUU8S75dbtujyOxwc7xBUI4i8nDXjoqskCVL3LLMFOXvGrG3YvZWSHTucIl5rJaTC4L4eYmfLCE64YJH8XqwgBioGr/1u7t69a/fv37fjx4/bmTNntphsWGMxXoXwGDJfMWPFhXnpWsxY+erY/kyM91dboChW7/Tk9IJdv3bNevFP88orr1hPdye0oxxWCIG7tkJYpiLEqHWto0J4L6yHi+RPWD9dh/XReficzsOg+jgcI0EcF8pZeMGV45x7qfOD9rc/H7YvzMcfnx0F2l6HZ1eIz9lTYDdQQLrxmGP4UZstNO3a7KrlqoCFxCrMCP8dDHIRtnaOyACPtG7U+0zDNSy2/z6TwEdsRwHxii3KidBbF5xqAWyNfsjaWnnGri+u2lqFBDwjtYYb5NQ56hPXLwHT2a6YP1acmGI4A9feN5OTk6ZjyGTF+PVTCJlleFSa8FndD8FCyNB1X2n1Cxl4rYaEBpJEHZiIWC6Xt6npGVtaXIZEQTnKC3bt/tbYrC+sY1huWB/lH9ZB98L4sMxH74fxylj3FJS/ipLqL6xT0Fe6VpsDoKd7al9YBz3b3nZd+/BsKeAlDc+Wvj73XUaBOLPVPIPY3WzJbixnrJpaskiSTakY8QL3xE6b7nia40+7rP1/nOaIsYTUDJhMgBpUG+IVBWiLJFetlFiwm6sHbTI7avtG4qylqJICV99OutCavgYwQg+/MCFkttUqm5nBeOWBNmSGOooRi8GGQEDHpaUlW11ddfd6enChPTLiPNjqntKH99VIub7Xnjnd3WzPjlSjUtH9WdvIZi2d7ETCUWoxa6UGNggrIC2j6C2wsLa2ZsvLy04akkgkXHkDAwOWz+dtcREfJdRdu/92dXUBQnI2Pz9vSjc6OmqbmxgLFwruulgsuvapJIGFffv2WR97++h8aTFj6+trNjDQb8PDI5YrlajnsuVzrItJJG1s/37SdlOvz0o3lJ8Pz54CHjQ8exr7EnYTBWBQG9WmXV8t2Uotb9U0KybwThgEzbgCEXowvw0Z3G4iwB+rLe20bBeQtsAEIutmFL8NHYs2V1q3myt5e7m/z/qEF7aCngvBx1bkC3MicCCwEM6+w4oJBIRBgEIqDKkvrqFOEDAQs+3s7LRjx47ZhQsXnLt73f/www+dtELPyh3+iRMn3P1UKm3Xr9+0K5evOWbe1dVh6XSnVWD6sTg0khoHcoeUUn0EFi5duuQ28CvByAVCDh486DbxU71VluK/+tWvmgBMFjDy29/+lnzT9s4777j63rx50z0n8NDf3+8AhMCE1CH61So1u3b9qk1Nztibb75OXZJ29SrXU5Ounqr30aOH7aWXzwMohtlY8KHODUnkj8+YAh40PGMC++x3NgU0KwtndwylzgP0ck7LLFcsH1vHlTGSBu0z0dKTS7QrXwIPZsI7u/0vRu3bAcN2NRJTlaRnnR0wl2yjuIaKImNzB7qspw+9PtzPMUDZoyirF3SzOb1nIWAIgYKuQ5WCjpIgrKysOAa+sbHh7B60J87MzIyJKWtmLzsIXWvm/9JLLzmJhXbq1Y69+5mpi5Ffv3rNgY+XYcDxeMIm70+6vEPqSsIgaYPwSq1WtXv37jlbC0kNlIdUJwISUqNogz/VN6xnmIfiwnjVW2BBOwi//PLLDjQIWKyvrzuJhABPsVBGcrJm6Y4U0oQB2jBl97DvGBwctJMnT7m0M7OzlkonqXPUxYfSmLBMf3z2FPCg4dnT2JewWygAw8HXo93PFnFdvGCV1ByujNdhQjWYUmsWK6YkJawPXzAFRNOQruEcWEWE59g1JKu4v1hjx9Elm86toaIYsyM9CUsLNPBoTP0iq7odhOlCRizwIAZZqVQck5X4/8iRI/bWW285dYBm9++//74tLCw4iYKMKCVdEIgQuBCAEOPWUaqIfKGIpOCQXXz9DYsnYi7dp59eDijcoo82/RLIymYLDiBIynH27Fkn0ZBUQcAh3NAv7OwQ9Citgq7DOEknVOfXX3/dSRwEfubm5kxqD6lZstlNyyN5OAqASCYTNjszZwVUGbHshtUc6ChyP2fLSFeOHDnkQIPKCMvSuQ/PngIeNDx7GvsSdjgFwkGp1qxbpha1m4sbbEyVYW3aFKPiugMMzgiS2a62b5YvgTaPQju89S9I9UXgEDToVFZzbYBB5xFECpEoUp84uv7Chl1bzdsrw902xi6kVe5pq5CkNg/ZASFktOFRVQ5n7bIh0LmAgmwUBAy0+65m8VJdSOQvG4OpKVyatzFtvcd6rsrSSgGCbmwPNGsXGOlDWhHHw6lbZhnSR1IGLBMFNgRWpDpReZJUCCzInkH5CTwob5UVSkNCsKO8w3uqp54XeFCc6i97BklBtGJE9Yqx3PPwoUOWTMWtDDBBuOLSqg6dnR2s7uhy9g4hWFE5qoOXOISd9uyPHjQ8exr7EnYwBTQghYOtBrDlfM3ur2St0gQsxOYYrAqwryQqCXwBKIFAg6ZnBFn1+/AFUGALMIiuj9KU6xYOaLJWL9LAH2RqzYrFkt1eYoZ8qAZoSLj+EZBrojraCbAhZPZ6/8RsFULmKGYrZqkZuowKFTRT1+xfTFlifzFiMdJXX33VSSI+/fRTJ3FQnGPsSFw2c5uOMSeTKcsCNLSiwvkXcTlCVlQUMWiv919AQeBAecuGQsBFho4CEmLgylfxqoOkGapbKN0Qww/BTwgslKdAjowzpeIQwFE9hkfGrB8wkoglrdMBlA07deqUnT59kjKLtox0orMz5Z5VeSpfefnw/CjgQcPzo7Uv6UWngHg+zF+bL0c1WLKMrwmjkWmjhqUKv1vLRZvPIy5Fdx6LZYMWkdY5HHJXfgALiPJF/90OMLTKEI4QUOMXRVVkNRhWctmWilmbzJTseG8C1YTSPgo4Ws+/YAcxQTHE6elpx+BdzQEJYriyJ5BdgewYxGh/9rOfuRm7xPx6Znx83IEEPSPpgCQOek62AwoCHrIR6GPGPjM3bb987z3rhOlPwLgLBbZzt1GXTvhX9FJ6GVlKIjCLPYGMIWV8KfAg9cLRo0ft/PnzDqxINXLlyhUHJlSubBj68Pug8pWPwEN7UDslrdCqjxs3brj6yt6hr6+HZ6KsxBi1udlpByqkUtnYyLLaYw0AcQoaDLuswry9pKGdss/23IOGZ0tfn/tOoYAGSY1pLN2rY4nfQMWQbLJ8kgGvxpK9FOvE2czSrixjrIXBnXXMM8PR8kqcCGkfCXnKaSa5FnNjZsVfH74gCgDcIHArs5Dxi8L6ta7hck051RKAA8xVO27YyvqoXd0YslfrnTaK6N3N119wx1rt4nYxXhkbtgcx3jfffNPeeOMNu3z5sgMWitNqBK1AkM2B8jh58qQzjLxz545TXWi1gWb/soUYHx9n1cPrrHj4yO7cuQHo6HXAo1hEtQMNGw08Q5KnljWKsUudoJUXAgGSYKhcxQnASAogxq88BSIkfRCgUJwkCWLq+ompS2KiuoVBeUsyonwEkJR+cHAAGwstOY3Z8RPjSBc27e69u3bp8sfcTzsjz+PHT7jnJP3w4flTwIOG509zX+ILTgGxJ7mSCd3oapYqn4LTbE41i7FWLQ5oiG8yAOJQSP80EIp/tQI++DjT1LYtMrzpj78nBR4wm4czeEBjyYYczXGwFY1sWDm2alMwsNn8mI2kg1UUkiPFZXPyAgYxVDFOMX6J7cVs25msqiwJg5jlOExaEgMZOYrByzeCgIOeVxCo0KoGSRsULzG+mLlUG1InCARICiD1hpi58pQthI7Ki6JdUB0UlFYGjMeOHXN2EwIBilN+Old9dC61hfJTHjrXPZWvFR0yglT9FSfJg4LSymhTeSlebRIQVLt7e3vs4huv29HxI1s2FbqvvBXaaRPW093wf54pBV7Mr+eZNtln7imwDQU0Ngop8EeOh5uSNkRhL+xZUK/XrMgW2LeXC7awuWDNjkXu50krCQOfELwqYFh6XoBBDE6/1sjLmQ/PmgLQWpaOSBpE+0iM7cRw7T1fWLV7awV7qa/XujD+q9HHSvKi9Uw4G9dRUgGJ7B8NYpICCAqapQdqhj4HCMJ7ihdDFvMXM1a81BaKl7GknlcZ+rWXETJspVMI1QlKF8aJWUtVoaB4hbA8PS/HTgohIFB5OlcdVB+l1XO61lF10U/ShhAIKH2YTnkJ4AhshCG8r+uwnLB+YRp/fLYU8KDh2dLX575jKCAjOVY/sOGU3CyIschozhpACOwc1sp1u5kpWtZws5uaB1sINOA6WuJwN8NtNZQ8xLR8eP4UiLRcfEubEbO81fChkSmt2AS68GwVEXwSI0BnmaK6OYT4/Cv5mBJDRqqjGKmOYoaPMsSQWeu+mKaYdfu5AILS6KdzBUkZQiattDoPGXNYlvIK89FRIUyn87Ae7Uxbz4aMW2lUnp5tT6v4MCh9mGeYrr1eSqf2hKE9n/ZydT+sr57Xz4fnRwEPGp4frX1JLzwFNFgGzqDlKsgJUBWFxGE6X7DJjXWrJtbZ4wA9cxSPDZqUad2/O2HgcmNXMOAS6cNzp4A6RJ0AY4xW6KcMbqU3bBIjwLnsoO0f1iz5xWYwYoBinI8yyZCUISNtZ5QhA1Ya3Q+ZfjsDbn8+zENxj4KOMJ0YfJguZNBh+rDsMH/dVwjTu4vWn+3iwvthG5VG5YX56b7aoPuKC/MIj7rffq5rH54fBTxoeH609iXtEApEAQKRmCQPiFLhMXLoNJUr2GJhyeody7i3xWDM7ZbIDTcx0qAZMKsd0sRdWc1gqSvAAWkPbAjOkrN6PGPzuRW7vzlq5wANLypsCBmxOiYEDk/bSe3PtjPeR59/3L3typN0Igwhgw7BQRgflvu4fMN0jzu2P9deXpg+vL9d/cI0/vj8KSBo7oOngKfAFgXE/FFTtK7rrKbIACLurpes0FxF1ss+ExHBCAUnauD4qErCf1aOPM/5D1Cv1RMAPteHJYsAGnLVdZvIlW1N5gB1McMHIvDnXMUdVZxm+6HUIgQM4XFHNcRX9gulgB/dvlBy+sx2LgXQjUqs4L4IsR9pHlh6xrr/GXa0vDu3gc1j1jEhi6IrxokTa/xIhTrC2TEEItogAz0dwo6dS5GdVHMphbTksqFll1H6AkmRPEQmtPwymseuIW/LJdxMS//tNUi/U9fKVkFLKbUJlpw3+bC3KfBABrW36eBbv9cp4BgJQEBWdPzEe7SvUQUOM5Mts2oCD5Adm7i5LaCygCk1teq/nfuE5x4w/DFepQCiARTUDVw0AAcRJERRHH434+wVwnbLC7m8NbvkS+NBz7n0YUyQCVdbJ+7OXv0jgCVJg4DCrVu3nJ8HrXIIVzrsVbrs9XZ7ScNefwN8+x9QoKVlkMBBbCPRjFuxGre7mbIV4jl8N7FyIlJopW8lVkoncfCM5gEh/zhnUbZllKkJjpetxsqXRqyK5CFj9cS0FSvrNpOpWw4gIS+fLMh0gFA7ObpVsk6xIWdd/Nhj5CE8+MdpzgtRqoCDfjJUFHjQ0Ye9TQEPGvZ2//vWb0cBlliKa0RYbrlejtjEEntNRNeYsa6BJnSPz0ZTVDdN1ScU/rbLzMc9LwrIgFWaiSYgrqlVBOqfWBn0t2LlyKZNLGZwLS24oEWyEkkIMRDUpa3TthN3y//h7YaWAg6hQaSnyd6mgAcNe7v/fetbFJB0QWYKYhpa7y/7hhrOgJYKTVvaZGvhiAwgc8RvcRdPuxeMAhL4NEENkQi+CgAQzJFZBUN/oVJqpDZsen3RFvIonDBJSSB2Z5sxTCIFLNQQDYWSFnEhJ1E+eAp4CmxLAf91bEsWH7nXKKB5J65pYCOcaftkQAPWC3Z3tYJDJ7boTa7g5GkT1gITUmIfXjgKCDQ0HGjAxwCgwBm2Yn8SiePoKa0dQwp2d6NmBTQQ0ZpsHiRi4CesAEB0aiZUUkHEC9c8XyFPgReCAh40vBDd4CvxIlCghhShIUkCgEGeHrMwl+sLG1YALDQTLLeMFh2seBHq6uvwWQrQZfB7LZcNNgwLsB0wMF6wamzJNqNZu7OSt80adxokBi/U1eeyepUACXVUuK35Z3P3MZ4CngKigAcN/j3wFHAUEIvBSE6YAYaiOegCq8vm2cSnmspYNI3baAzrImIwYk4+vHAUCHqQam2dBKfWxK4Bfw2lmFQUbOlcZc8DpVEnPxIU7YOngKfA4yngQcPjaePv7CEKSP8dl7FXhL0n2NaywlbYU5mSZar4Z2CviQgGdW4TK6+beLHfCuwRomwypvmQXDxp0SVyI4uyV0gzuW4bjYJz9FRm62W5B2+ilpCQgSRIl4Qj2E8Bh17OiPLFbqmvnafAH4UCHjT8UcjuC33RKOAYi5bjoRiXSYPsGSaXNxBlZ2A2czAelu+xjK8euo9+0Rrg6+MMWKPOsIENmqBH0/UVcJAOjWKXEmX1S66+YTdW12yTvpYdw5Y6wkkd6ti1VN0/to3yFPUU8BTYhgIeNGxDFB+1NyngluE5HXfENrBnWFjPO2+CkVgGfTcm92yPHSj0vBD7hXxD6BbBA/1zOiSnRpIMiZimvEFi29DI2uzGhq1WJE0AWOi31RidSdZA57fFbt32J54CngLu6/Jk8BTY8xRw7EKObFhyJ3H1bLZmS2XW9CcBDE41UUWUjSSCNM/TqMEtHISzRbULYA3G52bAWhbKCoE6Swu1frAVJ1F8A98EwRoQUnJel2Eg2327fQRcy2ipW1mgtnBfbeJfFCV/hHjZB9bgue455t1invKu6PLER4XoFEhjtI4E8T7rVFVuyHxdbuRRd8+Q+DkG9V5QX0kJMIaUvoEo9VkEqUIkvm615LytsnxikV8JFZRWWEhBUY9VnEFkDMdQ8WbKxT/Hqj//olxHilqBdMW5TJeBqPAS5Cvzp8LP7T1RR8rWgD4NvgHRVM86Euu8wo+H+DV5J4O3qZUmTNfK0z33/FvqS/yCKeAlDV8wQX12O5MCsrevY8+gUIWBTmwUbKWGPUNs2TGVJkaQTmQt8fdzDBKtO58D+B5oRjU4A2mIC4015dFQA7X+irkLNOhcoYF43unmVedWvECIS+daRZvxlV2XmF5cH8QQPMlfpVdZxChO+QqE1AAZdXlbFK0ADFEQRlT6HD3vgp5rFdeKeZ4Hx7TYL8SgV1SMTW0QMMJBkcU3rJmas2ytbJObBStxPw6gonVWi8t7JHtV4B48WU9Cnd3uYV+9qkXG4ujssQK4FDDUf+ECsX9gAh4gG1YVdmSLauc0S48pjVPlcR/6NgVcHWBQHs4qhGOQTmkdwNDRh11Bgec7Au4KkvlG7EYKBKoJuAi8r8iIN7+2adnSmjWSWZhOhbk0s32YanSLOT57KriJMnXRAFyBh1WTYurUpBFnHI5bNRFj00aYngz/lM4BC6QPblTnIae3rwEexBgEF4jij7MT5FzeE3nE5c9qQ9KJv8IuIUNguiGqaCYusqhsgQyeJ0EUdU2sXkYuU+UZykQSIsdX8o8QdUcyUQOeY3A1dJVVTYOay5NhCJgM0NVM4BK8zD4Uq3jfgD51+WoQMIOuwTQbxkcbn2/NnyORXFG0LsKKEsvTjxXt7QWJ6GsMgGu6AACkag1+wgd6x9LAig7uQxgHHiukq1qFtCXeQ2Rg5CWHaBz4BeohVxDpOeq2D7uGArsdTu+ajvINebYUCMe2CF/Ear6G58AiTBlzyOQGYu0ioydDoTiuRkUNrM8jUFw9LsmABmTN6IMxuBEXY4NRwwQT2m8BMbtm/4E3RO5xLoYtBi6/BQ125RRLDDZwUpwGdn4tcOAcIBKnVkmUr+edO2bd4L/AgNQ2kYaO5AeiiGmGmWiwjFEZ8x8kEoP5SurQoMy69vPiRpQ8Atih6+cR1Ao1Ri0Mgxqhc9GmYGVcgi/lqrbGktrhDqQNoISYxOxCUNSdv47Pqc27NTipgvoNZ1aRRpL2x2i3pFnQD+AYa70UZfqxwYvSRDURBxVEePf1PkmT0UQqE9W7KUkTwQE0xYv06gKRj2tIGoQgWevCH3YqBTxo2Kk95+v9hVIgnGuKYcyslzCCzFotxSZVCRw7RSoMiGnHuBkhHXP9Qgv/nMwk2NBYm5AHQ0bjKrO9GgN6rBJ1AvQGqgX21ILxSUKgmT58nrQS0ztpAfHOPsGN4AIEQWGOJ7TKVZTGdcVJXaEZY7wCI4XzN2EYdS1BhIFqZUKkjtDaMQLqwcxUOMrZBcgxEhKQBgU4iQP2Fqp4q7hWSc/joBKp4GdKdpUGDQgIbtpKrmLTazk71tmNSoJn3CNB34oWyqUddnC5i4LeDznRBhHA9AWaXJ/TQsHCut4xaLJYrtvk+oZll5dtIYu/Erp0DkAdQX3TxXuSAjgma5IzQC1JdFogS2dbgQv36hHxUPxWAn+y0yjgQcNO6zFf32dDAWblklQX+SLmmIWuVthvIrXKMj2cOjGzwgqMQY/ZvJjLcwoayCX2d8wLTlZn9O2IDNj+zkN2ONKvvRxtLpK3+7lZK+Ik2QA30SqpYQSyPxAziAIuaqkAFCgfSRA0eos9iuGH6ggN6I0EUAMaJGH+I+l+O5Q6YPMF9muorgIoAASigWaPoIYqRwcwyCdeBSigt6iwuqTJTDSB8yT9GgmBFOWs3/MMaqlDAY8ciYvmkYJkbCW7wZbnBasc7EbwHgaec4/pz+4OzRogj77hwDtNn0lFg5itxvu/wDtwazFnH00s2+0FvoHssvWVipag81euLdlIvsvOjg/bmd64jToQjXSpJdVyqgm9Y3pPWkEANngDnvd7ENbAH79ICnjQ8EVS0+e1synA7EmuoxcKDStGtRX2GoMdOnvHSWQqGTCj58lSVGIDNCPjxXSzw94YOGffOPg1O5o+CONv2GJ90362+Cv75eIvmAlGGPwZ+GUAmQZsFJFIlJlJpjF1Iy5VoQXIlblrNRh6XcyiAtOXeLkFBiRujoMmjo4dtu8c/Yb928QvbGl+jdspVp1iMMcqgwTgIaptw8UwACdJjCFjcJ8YkogacW79SSKYtSMjeY7vRNgztCeUkQt5uf5TNehD7FOa8VUr4Rp8qVTBb4NZn0ZB2u2IIHGLGKmS7+IgsBi8zTKGpLUCDLz/c2hpfjm5bu9enbDl1U2coFatF8NRwc4yEoi5uaxdXZ+22yslWzs9Ym/u77Qh3qU475IggQOlklcAWEMHWVJpcWcXU3NvNc2Dhr3V3761j6GAZl0y+lpEbD2H2LoWz1mUnRGdPh9G0oQZinEHzOgxmXzB0aHUXLNB2VMMxLvsTw++Yic6Bu2DqSu23MzZyQPH7JXRcbtXuOlmi+eHTtqdzUmb3Lhv48NH7Uz3aftk/aaVmnl79cDL1lfvtgLMIVPdZJBv2qB1AgYqlu7osRJLTO+t3raJ9UlLRnpsKD5iqUbaeuO9dnH8bcsXC/bJwq/tYGe/XRh+ySZqm3Z3acoOD4zaub6Tlkp221p13a4vXWJ1wqTJ9gJzi+cYWqzeAYYWk1KUAw4wLpTrUS2fTWxYKbGGi/C8ZYpV29ePbp5/Edqq7dC10AIS7ergmidjVgwhIzS2CmhYAkD9bCJjP7k8adnMhg1USzaGR9ROfFvEoyUMhNMY5GI/U0nY5GTRcvlNyzXH7euHeVe0pBUxlbypyj5CsEvfjoNfW8DNs5vd8FL5XtwNvejb8IVQQPYMq5slW0GPW0/mmXwCHNxSA3FtQAMDovM4+IWU9uRMNLBLdByNy90xszdmw6lY0jqimr3XbWIZcACDrzdKVoGhv7L/vH1z7E+oY9Myq9N2KrXf/n/23vtJjiS783yRunRBA63FaJIz5N0syb3bU7Zmt2e2P9zfubZnu2dGcuxu94xLcnZJjuie7mmNhiqgdFVqnRmZcZ/v88yCmG4A3V3IyiyEA1mpIiPcX7i/9/Un//dX/ierkMyo2j+2/+Pyv7Drhdfs1rBhXx5u2ZVsyX565W1rcq42OSAucu67qzfsP4z+FpCCIB0v8SjZRnHD/scbf2rH9bJ9cvBbu7x8xf7na39pl48PbaW4Yv/q9T+zN7hWlYRJtc02gmVo+/fKaD6IPPH957PHenpHiGrTh87Ka+gRuqHdMBEUlDiPqUNRbnW4330bbkq5gIV/jB0HwSnQIG3DeW+KtlEZ8RGAgXJs9o/bFfvbT+9YtV6z62gX3uzXAJmYvXC4hUq2jLNoAYfItUHLqvkNKx+M7Jcfml2IbthfvrppJTnkQuqsVw+FiAJschoW/dUcPOjepG2RKZCChkW+e2nfn5MCYlra9dAmauvpLl6cDUW9fyXFeqWfWGPQMVtqsOvsun+Xfq26E9qZ6ywzY3tcmH0vXUfUAVjKcdd+d3TTXn/tmv1vb/3UfnDtbbvb3LOPD2/aYW0fXFNEyOPghrkAJTx9VTplBH+ch1+jLubfdmfH/urOP1i1UbP/5Y0/s07miv12/zP7aPum/as3f2Q/vHDDvnfxVRsmy5gp+D2kKTDmNX6PsppoDswS+Yy1EarsLdFGlOx1NAyNWgUtxAPbtmPb6d4BMPQscsuEqDczinEtNb9jPOu6ej1t4X2CCLRsy1oAraPh2AbskNG3TA8CdJ28PL8v/JaI/ScEXmbti0bf/unevpWrNbsUde21uGYX+sBJiDEoFJhPmokjW4k7zIceAIsIilxi1f2B/fMnHbu49CP7oysbPlc8JwbkDAYQkfAhbc8vQV+ekaWg4eW51y/xSNEhyMNPgMH5F8KPHdDQY8HkQ46ali/aOPNttbJWx8M+So6x1RN+V1JoIX4NchxTvIKrYWcnVTII6xHOjQItLUDDL7f+2Rrtsn1/8wf2+trb9t9d/7F9b/O6/Q1OkGLrQzm0oSXIJoHR94WOaAW0BsPROk6Td+2j49+xm46snfsJZoqBfXZ0xz49/Mg2NjL2+uWraBYuWx3PeQlP7cyNPAwjHn12jGNolIlJfhStW59aDg+6R/Z+9ZZ9f+P79ucrP7d32kf2wQGajsahJweSUJpd4/6qTc0R4R1/1QfoIFrynUIGSRRuzYTiVe2+NQcFW3UQJG8PjuFwbZD1k/Pa3DkR84GWwwHz65f3a3Zvv21XyL3xVr9sG3GLqBy+ZZ5kicohRyazC40X9JE5IxcN7ZJViZjp2yfHy7Z0r2U31tdxnsW5UoSTcg4a5nih3CKahgq+TdviU2CyyhZ/IOkIUgo8jQLu7PXEAZILQaCEV1UcIB/g/DXASS7KoW2QBsIFkBggu26EziybeiXGnRTGtgTueaN4yf7klR9aHyb/17//lf27D//OPj26b0X8ES5sXsXnEFATLdkq+vaLwyvYma8BDpad0ceACeVy6BIyGReGNgIM4RdpxcySXc5t4uy2gg17Hb+IJesS+SCM5UmrURcMowKCtGDLI67T27Qbo2v2SmaDSI4R0RXb9osvfmH//uZ/sF/t/dJWlyL7X3/0M/vR5VespHzUgbSzJNvkWrrw9KGPxOp0/wBVAgjk3gAu2F65bvUeAtFNPnyu714C2eY5FaDGgDn9OWDhsy93qNJWt4uAhWVMVTIpJGgS5MyoZF1Z3mspyO8nYS3ITFdiLq2p7Di+MJ9tVe393Y61wRmCFmqKzlGGyPDuJSCqj/r8/0k1Def/Hr/0I5RhQSmi5dzGxglupr0PuyVRhi2QK175vtIdWKVzjD8DDpB5SinjNCdGGQ2x7ysWjd+GNM0zIikXD8l86S9mhzUAwL+88XN7ZeU1u/3avvV6Q3t19YINiKA47h/aqC+DQWJ/8eqf2ZuXLtqbm99DXcy4sUlncWSTM1seUUlgg4+rBBC5nl2xf/3WX9g7m6/Y91dfsT4REvdbu1xrDW/5AWGUQCcEAdpo++8538rP/k+7XLjofUkAL29svGqvXrliF/J8NrxgG5lVQAaaGnI8jInmcDk9I3I912VwalUUSCaDrT5XsXK9aVUkXbxBzQnNDWhz3p0gRSeGCQ2ytk3ehd/eqVi31rRrVADdGFUxSWCIAEzkiJJRBlCBxywIQP8cASgfCJovGb/W0CtczTbJa7Jsv7xdtXcvluxn65AWUKFIGuU4yZAEKlG2L86VtsWnQAoaFv8epiN4BgWkgnWVqY6D7/luEjCgPAZhBxqheiecrNMjBK9p49IhzofUKVBSJ8+YB3vEq15ReQIROscsmq6l8EaZJtCg291u2f6/ux/grZ6xd9avmW3mMC9U7HcPPrCPjz5CCBTt19Xf2E8v/QBnyZw96NyzqLhqx/lD6wCE7sZ37CA5dOCTI/QyK53xkB0k+vjNy9dtD9X0+9u/tTv1m/bOlVft7uiWlQvHdjw8sn8q/87yl9F4IFyPMEkcdDq2n6lYBzRRKqzbW5e+b6vJprWGXfvV1m84xw5aEqGTWVDqm1xD2g+8/PM18jVQKrvXJy9HZB3MT2ukRh4j7LLQO2gbzq+Uw0XGaoz1vf2G3d4+JmX0wC4TJbE+wpEVqJngHKnpoUBjrRH5A/Mf9AhtmJfgUCJRMFhgprhMhEU1fwHzRss+2G3bOytrtk7GUoI4AQwc7IDjm9yj9Nh5pkAKGub57qR9OyUKiPlTg4G/YoGhjqVe63PtzXMIDbP7ZIJsJzV43DEcsQOTRKDyI/kVROxQoxCEzm9m1zICK/REtSdaxaG93/jMdj/fR0DD2OHiTbQHtWGVMEq0IwzuF3f/X/vnB/8Nxt63GCe/JFe0o9wu2pKB/ceP/waTBJESpIJazax7gqbquGX/besD+1XtE+uUBtbsldkhVuxWvWt7nxxZBXo0Ch372+3/ar87+AhNBdEH5HbIEHnRIFFSu1ez+/du2y+3/wkfkCUKHMVWjY+tSs0OFYDyLJJO9dnR7GlXikCMGdJf2wjzU7ZsXUIO95oDSqGXbFnTQaBQqnmez4uZQhE4Mkd4hUqGp9dKzXGfSq7vbdWt2yO00jBLDDsASVKTQwStFdU3ETm0ZvR80vhAPh9aGwJYY+pYXEK7tA2QfB9tw89uFOxPNkg7LTqSSVUmDYGUtJ0PCqSg4Xzcx3QUz6CAx+H7MYH9ieGpudkdJtgkTGyHVLn9iERGJeIEECwyYSRkO9ROSQJabnKzbLB6dngB2Eg9jMIX58OGbVF9U12R34Fahq2fYuTl6V4eH1BT4YD36FbodIKJYIwjJ1GQdjTe95oQcgLVNrKfi61e6FkFh8adzl2gBGGmaJElJKrkYKgNqLkByMiQRrqZVAEUdRJBqVCVHNsKJIiieHKhby3C9sqDYxIBBb8PKXBEV51n+tdfzsMfCVD1I9MnhLZO9EjDdjBRNAfLdgN/DGmT1Hx+iPTnsAk8tJlPnxzgCLrXRMvQsUvjOmmhSfTEzVMVCjk99vHzyChnuBp0UTIxlRhXcx8HQYsJcLhIfo42xoq9St5+d7yOk26Oc/I183eMT4QD8AlI9xOkfxaWAiloWNhbl3b8+SkggStpIKQwZYJBOuid8t1VBmMrs+Ma4lWfyRJqiQCWTV4sUroImQjY9LsMDGyT1y+6cSHlhhAjz8iOrF0+2o4xDmrunCG1L8Lfi0IRbjlCwHsqaO3w6LX6rf9ZLyyEAxsOlQl+CjJLqDjRF5UvSdBTx4zxwDJoGfJ51C3sxOOk6PUsBJryAIQ8/hwZUkyPARtRTtKDMzuYEF2JpND5ASgRTgEqsa3jtAMVMJkZrZ73XgCwElJzq6ZGFmfIAcWrjqhm2ogvQSrG4g4Nc9fr5x3dVx7nmgWlI/cEFBL+pErvxvbpDiaaobQEbZwf0QxxtzLc+yxaKvkyCCkoAkLrxkth++8nawgSiUr6WpqJdUDDhdwy4KtonwBEfn7tsm0uyazHcU5OP5FOlrYFp0AKGhb8BqbdfzYFvnrDCBODoQkI9Hi5hzq+oZ01goQ9uAOGMXZuMUQX1HC+MUxTYjBCKM+q6Uou/AVivC+SxfSBHV9g2gAAdnMhskN9RaXg3zAwCUj+jRH8I9WOADBEDjRwlEeT8OnRZ/bl+Evgw5DQUn6mc6IiyCAxVENCD51b58ugTUjwURjoWpwzQ6IfVbSUrwdE49yhN2PARISkkAlIAMK3qN4fXs5BCyp6CT7AWI6kWICGetwm0dPQhhslkmfxlQz46rpen5Omcat2iKByjDrl83IXLUOZ1OI12wQoF0gQpowcY0CDaEOQrWsc8uTq4G5PNHKTSAgmpbRaqpoq0Cr/mFzUIx13meJfJdvZX7bPqxfsjdVlW8NfRqTUWnspPEw11nPewnbrnA8yHd7LTQE5bk0fQRogeGGiI1T64mV9TBN7VLXsDlvslmGehJIptiJCV+/58xGCAg5BBIfd1awo6hoOlSb2f2gBpAkgwZKeRzhpCvUIxCTYoqMRURKES+b6eLaTpCqL9iRDFUL+8Buc/KRaRiMgXJEDEAzJjNjJNEmpDGhAgzAiQgNJiohQjgbV3CA0E9PEiLHrPIUeggTHSVWyVGYLiZVEdhuFVwAiEnaoCrHj1/StyGvtSVxkzIpcz3Ed3XH6hOAcy75TaHmK7b1y23rQztvsMOFz9PebH+Ldn4xB80ZN2gZpGnS76h1yc+xQvbLTxvEx+DIk0CLAQ4EKfFN4JxNXhs895JKVojWks01OHfCg7jJky3JcLmqQJKthvXbPPt7u2x6+LwnOpTrHuUJgIuhL3FLQ8BLf/Jdl6M442WU5QnC9K2yPHbFkhzT9I5wcd0jy0yYLXkKmQIz2MEiEK0I2QeAqGZCS2mSUIXHGKvcgcgOr1msvNCQrgnb5Pgx2cr6bk3JZQ5osaf2EIbv5gu+VoCfLjvDEMVG/5dCIQlYKn4twmpQWwmklh0+dnHcZ7U5h+vpcmoMMCa90HhWoknOo1NZ+IXnV6/rhZxPJEnrPx3PUoJs0Rk5Mxknp8/a4Yls48VU1JUTbCSXnqNPfvCsUnkq4T54ngXsicDdmDgx4vkW9jbuHNSvgn3IJYLDE52NAqG4lXjRcCwDI3JCz5Eil0XnwipmluSC9Q8ALCfNFNzpG60AMDY6w5hEYRbKBblVwpMW72KMvnNYcmrZzQYHUPHEubmM6iKdSwJkWHFF5AyQtJNj00lXtUtVHRtE+bPmqN4FXPYAC363QABBivSr97ALZBepTr3ZqX6rbLoR1Rr2hoSAI/fdB6AN9Gr5Opi7qJ2r1ACB0Dv/d5DcJRYemvwnPHIAwePTDqeB00wi/G3sSg9AJOcFNOuHXD798eM5wLQma+Wu6h34/1TVpj6gvMsSFr0Y1x7qEJ/fdR7KgnNHvDPdHANCbjyOYCBD51kSwf3bYtEqrbuuAg2VyVuQAjUOcHgMQBRBKM8Wk8dLZTCH0SX4qTf0wo/Q2nN8vww2P8KkpcNgKWroVTBWNbtfu4Gj50+UVqmDyvU/kSZ/8bOmfRaXAwzmwqCNI+51S4LkoIIYVdphhNx4CL+UBcFgn1BCbtpE+WjUJ2Hbz6VToaYnw8CchicBAeZG2haXA9J4SYZLpol1qWwMn2EPqLyhYZtGbD0FDRLAHXxfBBXxyeOz3YrtNqfNxD7PEuIMBSb4MmtfSMQCoJuOXA6Qez24CYUBLgIfOkUVdUQR8j1oVu3tQpZaLPhcmBa2ka8dpseh/fGot+iDS/qcUeBoFfNeMKt13lhzotnb5A7D76fHuQZmqfZRJTgo1fBoIZ8QOq2MD1+R3iiF0hsdnzhyfdrX0u/mnAEJOSbtQqmeyVOIko2G907TtqlJLo9CXOj7IuvkfyhM9lGYoQlM21rafqSvtAQN0jRUJQ+2Latt2631bwo9nY9TAqIB2jQRdGOPcRCEnSanZcgj/nIdKPnGBP3grMIJ/i7Q20EzlKlZIElXst2yvSg4MZduE0mH9/MGP0w8WkALMkLSlFDjnFNCOSTNdj6BFD2Z4PqfcBNkNB9ZWZUvyFZhqTri/gzQN+qF+oB/y2gGDPkvb4lJA909CjHvKfc6gXUrIfdEm5PCwhcYJyecqd93yRW0MUZY4xwuMwUU2f+o4Jn5+ULN6o+NmhNVxG1yM8wPg2a0HzHU5yzp1WBf6TK+f3WTAwIzHwUrotIKmYXXUtToOkV8etym0ppMtMkGfTYGX6Yj0Tr5Md/tlHytMzR29nBPqT2Q1sMEhdt0hu03Ls+t00wRfOTaA2Z0gDR2vD/0LntO2uBSY3EN/Qm2OM+Qg17Iyfg01Ik501xe9PTlLlYtkuzlk90+mUxxb14i0KVGhMpjhmNtulwgeLFoXAUQ8j3jQb2WgUJOTZEKhsoGtUlZ+0OvYVrVhR+CSh7EZfmD6Z4Ep8DyzYoGHl3Y9pUCggNtdnaWF0ElhATHWaj+mlkLD6xAkAg4SGTJHiAtKsyCda3jzyDMv07bAFGAOSJvkwpFZQFbIIaapY+z8x90eUaxTddQCDnEi/PE9DBEiQZpbm+fb1ZZVMMUtkdBJQt2ziPK5rw1HSlPtGuNW+MTUweEpZBDMcMdXUIb+ZVFv5DB9LEdd6p/07QA/kS3SVfenjplPOVf61WJQIAUNi3Gf0l5+Fwp4WKBYmppyM5BZkX/ik+Vmz45aZRsXD2GycgrTkpDLubitc1KeJ23CkKdv0+dFpICkqWYCAhJw6Km2qaERY5qqdGp22O4+edcXa5AOEvBQYOp6VlOms8wUVcJu72KWGPT7doGiVMtoAzTPSTDOeBVKrGEGuoTXOtHziYdpsrOAMXTtHEmehpRzr1ulWbctaroMfQ3qGmlbdAo836xY9FGm/X+5KeBx5pT5hQqyvYZivyNDG21HtaE1h6TQzZfhoQpup/iCyvg6BxQTdW7Ks5goD+3A0rbgFECiEkrrQnFMCW92xHGuZi38Wir4NQz0lW73ojbt6kkbPSYPw4jEEzHmg22Kct2vUJAKiLCZdN00MVL5sSw1RAAHXttEOTl8vmvOy09hCp6/nhAik3I3BMNEWC8qha1U1KskjupSKG2n1rFW9wkA/vWnTL+ZcwqkHHDOb9BsuqfFHvIRaGkrOErPgQVMn2EMSvIjBsHDj+OAoOznF3KoghkZVQMNZkVKQJ1S5s6T8+g30/PycsYtOHuFOglkPoSxKmb9qD0kWh3nx0Ib7qfe0f4g1kyUOLuee5/SP6dHAd1OAQPaGAe9DPc9ItRWfi1lcoo3yXqp+hReEUwTmBkc/vrLMKH1ez30xRw1zdIhXD0hU6h6rbRLXcwF9ytNO67WbWlA5AQl0BVhoa5L0+K5K1AvyNQggaCU4B5C6SacZw2Q7zHjqf6JAPeIJFFaP0Wuu5z0SCCFiYJET7uENMfKDOmZQ1UYi9/pra7nD/VnDglK39L2OAVS0PA4PV7Od7Lb89CiDdDhoYjUMhaI8MLSYqQ4UPkuBudBZQN0tzFnrPweoDDimIQdy4jz6bdKlhOQQ2AIeqtXs23yCGffRGciUiV7ZkcSO1URDgcdxemTgpkiVSEdoJggPfSdJstDyaCkr5V/w/R5tp1Pr3aqFNBcACggLJXpU6GCSheey1NvBIfI/RaVQgfMds0B92fRbA3QWALOmyaxz+vJ+zl6UrdCYVbNeIVDJjh3JrZ11LO41yfMskeEAwJcjggId1UJ11T3RKkuDeQqzO/cUeF5Vio8gHUBRaEjZbAjTB3QtQBAKJLoaZ1y281G1x4InJM8i7Kxga7qqBrdEM/xt07v6Rfh6/Tv/FHA84XNX7fSHs2UAs4bYKbsMKS+VBEiMRJtHkYwBHkBOA/xXUlY+Fk+9zK52C9HfO6qTDYZWv5Sd3IWL8SYA0ioJoJDBQR1QuY5sSkxYJfLPL/4xkCcFzlX5HLh+nXS6R7j3Z2gnlbGBrFY52InHZr28ERcnHyTvlhkCui+8hAQdDMFc1T5o6k7UmnWrNLYtPH6MnNe9127dQGN6VyY73FrhgvbypdXu/mYfBT7LepAHFatOMbPAL2aV0vV8DUyz6f9yJh4r5H60DmZSPT0FuiSAEAShL4qqHo2SlJ1L3GmVTYRB8rZQJr2brKEg+TkbLqun1vUnX42fZE+zzMFUtAwz3dnVn2TShEGolWckVkBse8pZCfrWuWRM6jzhS28XgEMAiuw/4KPeA6MVQxLE0qljDJ6xalUK8H9BLywEtFtMAoVgQoliPXrWTSxJalNeRKjwsehx0B2m32rtZuWbGCacE2Dj3AWHUqvcUYU8AJkzEs570Xa2RJiO/YaGpioSCndBjQcYv8f2JrlXYV/ItIe77E+/pqvHj9wtu80xamA7gmqNLweKoSb5Z4d1xu2EhPRQEVPB/De+VMYgEAC/MPTTkO1nNOStY9Wr0BI5zJ5T6ICSZ7qRKZ0NmxjQ/4ObCroG7iCXrC5EMuhKwHKz5Ze6dW+OQVS0PDNaXbufjEQZmDJChzIjquSyENWsot+FnhemWLkpsBxwhRkXbZjDKfH/ZG1epghxHtJE1vk5+vLWdtciuwCFXZXJaf5qXYfZNEJdBOz5u2ZNQ2R7VOLPu82hlQ4RC1NyF1E2eiAKCb9PLMOpheeDQUkroLZwXfbqNRNFT8NEwXOLuAGW/E62V/RG+ZQ2CV/xXdn/ZGAOnN7oEJkTOU6GRnvlgcWs0hXKSSVx+/o9PV8LGg0NaovEeFEDCdhjZEHgmuuUFI1ivFroIrsYeeKvbWBBgcfC2kwdQfECs6SHZz17VrE66egYRHv2in2WSBfxgM1xXZLvitEa8QLVYDM8yaGSTawKmx1B/YlxW5u71cRuH1rATL6oAhV01P5XNU0KhRyMNucvX110/741TX7Iejhaj5i14H9mIdSzmYzKr/8zZs7T33zn8HgEQ+AFRlNpC4RKGrS791Gy/o50kdnyASJ01bKvL4NcRfzN6rQKfQqtXpolAGP6gjbJhooCi4Bhq8CGsK8kWALQu5ktNPfnSkCPunN4y98IhMdhAagTIn0vboSOsXkZhBo6PMaIyJr8HTmO2cR09BmQDsLaREUwum6xjHOkGMrcc1mm/TVZF7tJSuW9w0EmkuAgwKbHDqIIbgtJAXtj9/M+XuXgob5uycz79GJABcXgQHIn7oAIMjiURUzQ25hC/2vuzV774tjq5K7vtdt23gYW56qig4WsFs6I4JxVNA57ueW7M5e3X53Z8X+/N3L9q9/cMHeWsbpii0Q6V88xW3wbJjdUCUa5G+h0aFWsAaloPcpqjMsUGuiWEMjEoTCVITMrmfplWZLAe6wS0tEFXNdDzddIfAi0kkPs1V2xE2rxQhdmbRo0paprHRGJbX9E/2Reu1k5Zx8Og8vhGO06+8hkB80RtZoD8jS2Ce9c58RKU32afY7rKzgBKHX0EWmSzSWY20kQOnLaBY68ItDcra3wBXrbCLUtB4F5elq+FmKF5wu8/4nBQ3zfodecP+0fCXAvUme8kK7sEQaBl7fZXfwH29v2Xtbu5YcD8lZb3YRdrocd2wZzQNBVqgbgzAWE+jnY6uMSnacuWwVVBh/x66tRcKcf/PHN+yt9Tw+DYkV2FFEM866l+WaI0aUtQLMLGt1TCvVftPiUhlhQaEqgQkxr8DPnBzpn/NJAb/N+NhoVyxEoPkQEUGTIXpilKc2w6BuVSINiAEIgIFJ8XBaSCjSXNKxGNyLxz+Ziz/CQOphFmDcont3CbXsdXp2FS1fUeGO/i0bAkYkkX0aTb4h0khKezEGsYhzKLGUzJvqzSph2BUilfZI8tRk3SV5OU6rl3qoD0EMpcsPUixAS0HDAtykF91FTQIxkBGCVU5KWvZDeOoDVJp//eUDe/+LHRt3O/baqGYbZJJzWyXCP0dIlbS0MmfI7UE5ZdaIy96kyt3FXNfKeKMf9Fbt159hU80U7d/+9Kp9vzTCjOFs7UUP6/HzS8shD3nC69j02MEx8evRwMYltAzUHRgPGDWaEy/T9/gv03fniAISqi6cFF4gYcV8T2R/Q08eyVRValkH2/9+rW6960u2lM1xPPqxx7QMOoM+FcYMf+eFRIIxck3KkTOh2RvagzqaNDJAriG4mfmYLIDHAkkihAOf79hzTiMtQ8YdnaEJazvBn0KgIM5DO7QaK2gdcmj2jgENNbQeo1WA+4R+4hkqpz29L+qNTpm2+aVAChrm997MrGdie2I2EuXaG4iXVPnz90cN+9W9PRwaBgCGxK7gRFXEIzoDk82wk1ERGgGNIQx3JEbBbxLyIORhEhvDYytGLcuhcdiJr9nv7xzZpYvrduX7CruSDkP+DYE9+C6fT0IPxDSCnlL9mbaH/I2eyn4q2ymMfKSdDf0V41FLBA7QlGgcisEXc5cjZmDxHMMXbCLtwWGbCBByM+SaqHI1el0zZVcQ4Zw3zZPgoeD3nLkRMY8yskGQQyCJ+tRJ6NpOtWrt/iVbW4ZFanqoyQA/mSNhPs3nfFGvSDVh9/FYrtS7aPdiN03IlChzgNaE1lBYMbz9uvboAvy6Y/xzNzJAJq6si2tTwMn956ytEpuPAo8WYZd1ar0kZOH0bnCodA7hyGf2xq+U/jl7CqSg4ezvwZn36M2AHgAAQABJREFUQKxQ9kexUoVCyR66243tN3ca1mkm9uagaq/ETSvkVBWPBkDw5E3iPzQ5Fko/wSkAFMplL1+IZd9dXDNU/7msbbXy9usvl+x7l18HPOAMCYMewFAidiI5/kldqnwQUpqqvG5C/gcloMH32vmLwsg8Qx/e2CHXXcFqMPyafCsADlcBMUXAigCM25pRfwwBDRmyU+Y4buRMsuRakRqMbavZsX4G00QWTUOMGpqQy0Sahglg0bjSdv4oIIDpivnJbliJvDQDwyzjywzVGSntfLtLaWem0hvKDilH2hwQWWDXU4yzTgROceibN6gp52Xks9WZ45/UulYjEuS1QQ+fhlYQ5kSJOEZmPUir+LQm+f+s5qJeJp7JgQLzopE2EAq/VFEsdHpsNtpkYCUzZTMDoGFdEnudI29kBHQfkSsjQRMZAMSzrph+f9YUSEHDWd+BObn+o+xjgJC9ddS0o+Mmi31k66RZLsFIBQ2kbtTWXsxiWqjmhLnAXHMgB9k1E8wA2kEs4UB2AUZcRigfHx6gcSjYH63fIKJCDNeRAMdJmamzTN+LsUvFCv/hhfcNhi0PcLU2tubbrcjeP2iQ175mS7mM/fyVq/azywVbItQrApAIxOBy6WGiMYxM55MlV8CkDJBoYFoZZ9t8omp/fIkQAcHo9Gk7xxQQMPb/roXSPNOc00ON76jOOMJcpVTSFVJKjwoP9WDhmHDYyet5fME0prCkHVBHI+njf0RVSyV00ig1/qBZC2viNLqv5fOwaQ1NtH/6EA1gFlAAXLdRv2cPymxE3r5km6xZD0Bh8WnZhfV/en162J/01WlTIAUNp03RBTwfG3qxSxoslF2DwhE/365at9a0a+MOmd0IR9O3gAkO+dqmTcZYZgLUk0oSBetwgZyjMtRGvsueomhbhGveb12xSxdK7oA5ZicSQMFD1h2YG0IeEKLcD55jEmYu56rOeNneryb2V7/fsZv7x6AK1J0Ak5vbbWv86Wv2l69mbYMMjygecM7CdxvnrB6PEmCGhJf0IbJddmDNQRv3BrzJARgR/R25R7l6nLZzTwGhROZdaI/oCgASUVZJnvBnQNgeVGLrrZmReoQGYMZPIEAI5jefhJk7fzNGNVx3AQzHCOgC/gwlwom1Gk/6GxZ7GP4M/koDucQqzmD2KXca1k4u2WUWqPiJWIpQg7JvSsP5VAYzg76ml3g2BZxfP/uw9IjzTAHtPpQCVsJajkk77ZFtE/qQGY5sk9zxJbyuIzk1ye77lKYdQ4waN0H/Kb+GPOeUNqJAfPhmXMOLumk7xw374EHdqF+DmhTFMHxCO44MKoUcDlrSBkhToURSMQ8xnBzfSW/Qjwp2sx/ZX326ax/dvW0FzCYXh2Xy23dtb/fY/tMHW7ZV0ThK/A7V55Dsc3EI7nQ2T5/kP75NdroGTp3GjjKDM6R2m8qZn5omnnJzz9VXU6kJ+3OHSLFBzX6ABBkMrVi2LoWd9qiA2pa/TtgS8/0EYDA/I9Iza67OXUPwqmDVreOuNSot8loK9CtPg0ADZkBPEa/Xs2valBRwoC5Sr6bD8wFlRBMvdiHnay1yrfsULszujny3K+lepe2lp4BYiEwOxHYj5L88Jr0yMdXL7MDX2KnIkUqrWqxWCZamjyfJNgUdetbEcl7L8QIQa+MWalKSKQFE7tWHXixKNSvEq2Wc8F8o4Q4iXE19oawOmg9dVYaMojWjor2317cvdo5sGZPHm/1te7d7x94Z7NolgMn9o7L9drsGY9KOkEqWMEkP8eQUAgY6UxfmuU+Rqk4k0FDnc4EcfeOKa57T9nJQQPd82h55jSOk5ao2ZFd81BlaXfNzYsqYHh3Ag7xwprP14TezfvXoWtRrKfpaaPn2WGNjnA7X0boVZIJDkybgPYX9rlibUWe19lT3oghNO9Sh2VOabvWV60sDcvZUnBEhzsllxKXT9rJTAPVCBi6iHb7yIj6gKl2n13GP66VYPgJKdIPQZaE/q3kEhc8qmAHCWO8jdmslhPoyue8l/vcrfbLu6YxiGIrAEPOgyfeAB1ZQvpEyVd7saAHYquiYBn92yx0btXp2kUQ1lwc1NCEVuxxX7CKOmiNMDR/vHdsRhaj8nFJj4KuQl6kEDjUGMFRJWLXfxNktU+E76k4INDjE0TXVn7S9HBSYzmU9T0CrQKycc9FAjfJ1O+q3SZVO0Sfthn2mTOapVGrP0LrNmobTtansrg/ase1VO0QskMaZEOgC4FvePILF7jWAA2cQ1rPrZYG1LDPnsNuzHQpo9ViLgg3qx+PrLhVJs7sr3+5K6R36dnQ7V79yoQlwkL1WDmCHCGVDyK/h8aycDF7BUlKXV89u0hGIIfDgcAl8aQsU7rWEoF/m0Wg27H6jQ9EoxwkODxxAwEg4+OQSeWfmAgx4fMNweoCBZlkaC3ZQA34BMhhgshDzWY5gkpga9jstu6WslfxmkJMjJJ3gvxSgQ3wbttnl1AaAkUKTHWXTzTG6rHqctpeFAgIH3HS/59x31zRp7DJR8Z2qnirJU1y3A8KNNfMjRUvoeGm+JlNUZzjrNq1SOVbYE03Q4EGrY4fVCmCZqAl292FFKgeLNIoCDEr1PLsZLzrlAS5KJz3u9O2ItNZtaRqgpUjvKb3V+bQtBAUecuiF6G7ayRdBAfkqTJ2kDqh7f1BtYlLo2TrAQX4GMYLZ2cwJc/3qXkhHEA4RY1JiFzlWKgd+sKEWYVWrMI6YSnt7ZInswDBGxMjHfD+tASBtgJiMW499N6Jr6WxkuCMDZblaw2MBkIAGRPHeg2TZkzUtkUPiAsCkxzG/3z+yGmAnZtco7QlsiVMQ3MXj/mGHIj6oa9lNKrxuTJilHoGF0qG0nXMKiOXpwZzwqaF7jsCVlmGESUshldJuFaqAy7JtsxYwxU+0bIremZryePkcmjeOeqFtqmHQs4bTxj6xA9CRI+cqIFqmRQGEDOtB0UQqWy1NHkthpg19DQCGsFUKgSkbK3Dd+yBnZ70Q8E/bYlAgBQ2LcZ9eaC+1XOUPJpZ4iJNgvd0i50EfzQAaBzdbyJkQNT6MSXzyaQ/nRTBgKUQVyx7rQdiCHBHlZaD89xkcK3frbWzGAxkgONb3cM67OcSboEOCc6J2TpGcGfFcR+tqR4CFUW4IM8TcQcdX8JZc4gyrOENexAaddHJ2CxNGzZkRvg2KFee4iPoYA/p+TDnsDsdGhFtGmZ6DCte0OGtNQcOU/uf3WUJKzneaqbrfjz4EVdE2AHTH+Lt0x3UrN9o4RTJ/ODx49+sXPsvPhEQ+Qx+ZplIwTJQMzOCxVcm4uE1ROWkeljHXKQRanScNGtEL+mHQMjwD/5/q2Hx1Ey6d56FsDO3umDoU8liiN9OxOEn15+xoe6qDPscnS0HDOb65zzs0nwQwFwnwspIewSXX8API4bwUTAOwSU8Ty5IWD/rah5gTi94PAArArCKEfYZETcRSOOhYJ4JCjlkHmCcqoADt25RaR6YGMWtn4jASaVK1K1ISXyPOO6Y/dewZuCQg7Lv0jc/ZuYzZTZEpBuaYsdVR09biBqAnj8+ERk8sOH1VS9BodNjhVPDcjqM2n3AAoME8eiIocM9SGHgn0z8zooAk1aOPqaCSGOPBvEpIKT0kTLhM+uVjkhJpGmWJ9nnUmZDJM6P+hsuox95tddPfMIW1S+e1jCdKYHZE1sWdasOKo66t4JORxfFQhw4cuNNfjsnye+3wZ9V7XUdrueRJnhqGyxRgLPQrYW0r/RMqx5MxcXja5pgCKWiY45szq65JsGqP1eb5iKp4csFeRa2pZEoJyZJkC1WoljK86bive2gyKfY6A2iIlHEPLUWW0DTP94g/geyvS6ShXsLW2kbLUMU3QYJaGRt1Tnde5HcR11eophLw5eiDgEGfz9s4pXlxHLQM8gYf81kfv4UBiaRGRFbk8WtYTxo2oLzfNo5gAh4+wfUHE0yV2PUaNTSSQpu0wWgaYFeR/CW0GwtH8py2c08BN6RPpK7fdyaIJBsCTA+vnZCjRgL1U46ItNljro6YnJE0FNJgadZqysy4qceuVaCbiUCz0MJkGFLwx7zf65CuGd+fFa9q2fH1ozwk8gpS2nUdrt29UqvPrgmgZIiewFzCuuvJPNEUAVmB8JexUIzfAF+ts+tWeqVvRYH0Ln0rsp23H8kIgOqeurU75KovsquX05I8rtVkWpDPA6zS33+XP2JuOXZyQwpAHMPgqGPjbNsVDWLmMD4xNvHDhw0NA13poiUIho5wnBiN9n6y2Y74rXpJhgYbdFt2WKlaz/kSV2SWK+fDEarmWpNQywxaBmkoHKpIYHC+7z60h91NXy02BRwRkBAJjVSbMvACmxLI7s/gHPPsJgtYOcxX131MMIw0dICdGmq4e1X6jZOw/IcExB9tvk74veOeR7+YxWtIFgHclSI+xjxYazcNn2tf6355p+ssOpJe47tSIL1V35WCC/97CcygKlRs9y6CdRVbaAn1ZsQuX6taTkpSf55GkwZhGaesDGmct7kWlbOD+YLtj4CDeKGEvCMJdkZBHUyyZ2LJGgAN1zRwDiWjEojJsvsb814BnNooLsERs4qxbzY5Xv0GMJBvv4WKeRcHsTZlj61QhskSj09xrQRNiC46TYnNm7S95BRwt120Vgngsss6OMI5uIvASyif7cBB9DkDzqnlIdBtlJ9XdlRJf62ZsbRlPB+wg793xBrBJLHC2pUGz0OY9cwBAgsxgEjJqnytaRwzarq+NIh51mo27lgV7U0DJyP3WRL010JN20JQ4Aym/kLQ5eXqJExEsOEATUMTf4YVzAcF0kdn0AhoE67QKAny01rXyzglaie032rjSY1gh5GoANb0AgGeiEXyEUAgVLTELouSVaGbij93/QK/UyZJt+fynXYxyzCmJcwWLXZblY5s0XK05DVain0csHqkCU5ypJ92oCTXzIknORf1NNl+1fTPy00B4CimiSSHqQs7/B7ItgIAlTZLprtHpupMyeSFprRMWIsCzFqTCilWLhNFBu13E7R3OAkPBwDzqaaQ3T3+AsG3h9XAC20C/jBh1Ysdim87oN8SMCHPpqSFqbEqUD8xk2jNi65pm38KpKBh/u/RDHpItUicDLfLpFTGaLoEYFBCGO3zg1EiiPHT6kiRc+cpolMTaEADoG2SfBTECsMjXEnMTUmn3JMCrcMINax2gXli4DJuUgi/E7zwnRfPeXmNwzDbqCaOiAl3Wy7nrw5IDIVneaxQSzzjKW2pX/lDDFiOWmlLKfCQAsT/lEgklm8iiHHa7ZGvYTo9NVXD1Hl4+AxfeT+4XliVSk6GFo75e7dC0jJqYq+heSji96Nyl5rb6qwUE4LXoYVfTt688KdwNXrCms2jZSzG+DSxhmuAehCPD0Q1a4JecLZ9e+GDP4cXSEHDObyp32xIUnjmbQ/kr7oQKyzmUoSjIbt2U917X8PSOITAxG927j88WhNOgKSEcO+TqvoA4T7gQwV1uuBXMiY1nmApzubk6d1GO1HDKS3LdkQ1LTwsztWsCHx+Hxgi/hLsYpYADXVMH3uABuXh5xcACLLktRt4xAMYqC8wlulFDFXj1CueUhWpkyL94xRgQmTrOOAe23G3QpZRAKdXbgW2IuDk8z/NkTBrgjkQQN0gCCDNm/yNqnHGdskpMe5Tb2IE6MfhOJEnsQA5KgmUb9KpTdYxJoIpfphJ52UOARTEum7sSdhaMk/0ZFaZFgFjKbIAw2qcSafSi3xLCoiHp+0lpwCxEa66r7QatoEDZF75C1xtSJgki90jDE6RRhnCGqSmlETfaWjXQSkd3moyar/hAMA3SOg5YHhiJGxQcITsueajIEHPQ310mc93HoLJbwRuVggVHWIvreJphYLBmWsFu3Rj1LI4rxLf+DP4WfmhIwVdWRdMW0oBUcAnH3MLcFmssYtvARyYU54vhPnoc0YGPQHPWYs5QIC7OIb5Kg2CUp8dtDBNNCkaT32XJUBDlhoa7rvgHF7AQQAjgIwAHmZ8p+mA1nYO0KAA7DZrudWTj4hKZDOWdPnN+IZ8+8uloOHb0+7c/JK6Nna/2rIezokbPFRAeqT89DgKiiUphbMiE06LQcrBUoJfGyHFlDexwZKIwf0XxuJuagpvm4SIiS/HMSGXPalcJ1qJiY52xE5KyokM5wsAhxqXlMuOsjkrc3wTda1OX66R7z4LGFLpY9UXcPXERJcBMHHGNbl06ED69+WlABJMDgNyli0ANEkrXaFegkJ+5U04Vh4Hh6KznzCSrTmZ0ri05nuW+T8EGT8gaqJB+vdllcLGNJFVKCPfC4JrLckpMoN2L6fwaQH0WXbduwtAZz3nQP95QD0uRuRdIbkb61rIPyONSIocFmLJpaBhIW7Tt+2k0D2rE0YhGev7IhYo8WOu+w/KQNT+CNa7B1UbDYmaoC5DgThI8aWRYtbd+wpe6ZoHPnxK07fuzCRZ/JRHlj4UOG88wF5cr1pH6l6Szyhz5JBoBvWauDG8rOVXQd9hfk2YS5/dVIHNiULJVARLPheeF4LzSQU75IuEUMosD+V3qNV7Vse5s8IucatetpjEUpYQcokJQ94aoWmMjFdcdApYJt+kTy8rBZiBCFhN5oj6JP2oaruVjpW7MQBCm+IAMgmomG1zSc/Comv8d0AQsy47OP3uUQa706W2C/kZiiplz+eazr6WJmtIeVNCphV9PsPmS4tsLQLndCoP6Mqw/gXCUADiBA0hT4DYDPuVXupbUWDKOb/Vj9MfzTsFAmtxxEBX/Z30/IACCXdFLMQ89mE6h42W5VTzHma5MlDFR5SvOXwbMjAgF7DyOnh204R61qMgZyiKYSkZU7s1pIgUDITIxyFpo6VH0LWVrVGgJovDYowBttLjrIOCLQEkZFKIMqq+KUUtveNw9lDYnNkF0ucMO8Ql/DK63ZFVRznbQyX6YNgAHDS4ZtOyJO6R/iT0lCdUHnFeSWZmykq5cNrmlQKRHGWFEHAKjnOHtodPwwEaq4GyTGtXHPNCC2qWzX0UAA3kUdHuXLgceEydlciO0IQkJDNRUjaVg1eIhZKx5dVHBLR8exJPTiWTIyYWLdKZNWkD8cFgvZIclvT0xvonwRP0rNMxrbqxGJKvyZl1Kr3Qt6TATKfOt+xj+rNvTQHtybnFSFX28bziOctnOR44For5dGA4d1FtNnEaVK2JIsJYqnoJbmWS0y8TVrqbcZ+jHxLFz3ooB/4S+skNzB/9bt5+v9uyFuK/CJ8u0SeFTo5JPz2grzFZmfowlgfVOqCAmhgk3ElQF/epPzHMidGon+pluK5n1ocBZck+1+123RZ9CChqAYgEGjJZ8k/oeJ/5YldBW+HIQ1uztKUUEAWYIALLWXbt46iL3w3ppLHjDZmbWlVZTaAwiWZIL64pae/LWsmbAnDYRaNWobJrDjuckptpamsFh3/8xBeH/oRv9O3MG51QWnldG3jvDpFdNIBdbWAwhTq1J9/PvG/pBb8RBTSL0nauKRBucYSN01X9jDWWcBR2YAG3SA9965jUriROWmUXXkgQyiAE+QgofbRYUAaTgXb0p9VUyCqDd/cazlBJv8f1a7ZPYhr1VJX4SFxtvUzBTSTyPSBNvd2rVCg41bYVvlX0hAdfKvh8IujlABl8G9hd8TqPj0S/T4w9Ktv7VWyoaCiiQp2xtW3Ed8mJOlTjghiOP1LQcFr3eJHPo1nADAVcSsSh0cp0ANcNkoM1rcVu3rECfwJ8OL118UyauXqAuYrGAfcAdHJaB4ltt6gYS+XWNZn0PCromWc6owNEK9+GsP7J1UCf2wPUDWozJGO4YPr321IgBQ3flnIL8jup8N0vATt+cBbEzZG7LlX8CMZ3yO5pi6qQqgK5wX4/lxC2hTpTfgcZV4MCLVBrPiKfv+PI5b8Auy0AUghpWyJvwkGtYr/aqVvFd1CCAzI2KJU1lfAoW/05hk9pGrJoJ9ZJlbvaL1gRU4U4jcYhJi/NCInycPKKsOmi/uS3Kre9ix36y4Oa9SnHneQqICUVq1IT8+JaMOIIUKTntKUUCBTQbAIUyGlQ6wbtVDeqMAcr5PtQijFp4JTsScfNsLkDJNemvrRrD0jaVKW+vEDxsK8ic11CLRWRMNNePR8BHNwLikFZALv8lboA+g5+VJ40C1oqV0qKHZ6PnGd5VMopz5L6s7q28xD+AAT0UgxHrxSOePugSWRBhzAtksLE5EFA9S+vbAcJ2oFP9v+nt5h1ceWgN1sm294mnt7DZmy/utOy3zWUpCbv3tVFz/+Yt8/ZiPzywbE1iUG/CKNZYqeXG+ZseVCC8SiFdBiLuI1YTsK5s2gSVicd3m+TCZKKmkMKWSU5nCBhuBnMHr5bhAYBNPBLznN6Y5zVjU2v8+Io4LMJbQOahix1ErJVcjW0rEIYr3wJXNC9uIt/5ZlZvsGdAU2gNAyq3bBPxMQ+pokMpomVIaGWZHN1h6WvPMPZfiiKKudKzjclaAIBDy0G4REevn5TcXS2d+j5ri7Ps7Sdcwq4MJzYC7Us5dIoZ6gmu/J7lab1yM9wjVCtgvwc2J1rH6XFPbVB8lbi9dSoFI3oAeaAIlEOl/sNa2dXbW+vZn/1QcGG72zajy9j9WRm7hAt8Xf3Du3D21u20mvZtUELBt4gIBR7LtqPPA/11ePmHRAxOsaZxZlziW+U675CsaE2uxnLg0hQM6tEtkCLAFSACRqXXqulTCvQIf3rkREgSWmrEsxi40LFWjjXqopkd7N4AkpnSSlZ0OTgOJZmjGkLPGCNdKzRbFEvhmJtmCfyfK46D3PXtLRck4BGEBNKkf6iJMHXSN5WaVskCqSgYZHu1rfqqwSiXKZQ58NL5Kcg+/8gytq9Ws8eHHesNGzbBWWRQ90Zk9/AxSnqeta4RDKyVPnvQgzFabAjEkFzVmkbOnYlZvePMYLCd3Z/q2f/V6Vs6+vkjMxTpApLQgXThXVqdh3zwsa4jmkD+3IOTQMh9FkYqFpg7Eq1Q18J28zB8fM4rinhU43kUQMVH1qpAjhQWyjLpTQo7HZkugkNsOSDnrxNn15qCvis0HxQkSq5zUj7hpaqBXDdqXeseXXVVvLyoWEWz1BAK1wRFyTUDUQYoS2rEDq9RQn4uNdEY9ehnosAgzo+f018ROs0C1OR30UOwo7hQQq5JOI77GSkwknX4fzdvCd6lIKGJwhyvt5qBWolshaJRpADZF6Jmgh5HGWX7Mujuu0dNWwVU8AmpgnZ9gdR0dWHQhhayxnsFBFqxJHCITmdeNZ3bfKxEK/N0g8lm7kwrNs7MJBDslE2ejU7PMyhJ8jbMsdcQQOyimnhAs+yhY7kIEnf3IQiAESnBG5kphjROeGIos6L1kTjHFAUJy6BMGSaEEMdi7XSsj46fxlGqjOlLaVAoICchuXXgPWduSqEikaO6owHgIYGHv/XcjJpsbYA2bNrQapqnbII7JjkSDv1NuuoT1VLzG7MefUaN6C5a775oFda9+5CKtAA6OrgU9VX3XsxFi1AqVNOg8lwmrS9GArMcsa/mBGkZ30KBVDeY/+MkKZjwpqCvoDoA5ZtlRwG98oUuImHdh1hvUKIospEqy5knr9qCTstljZMSEuelXxKUjVLiWFPG42EH2RkqsjaZdSs6zhHNgp8BkPJ0Rdlu7s8oNQvOR36hFeOATQai7zGIxzUxoSHuqUB6HCSY4E+Diepaj2JDO/l/Z6oUBW/k1YjPPO53uozOXCknErESJtTgEkj85UiJGTO8ggKql5mulbr9nCGJDHZUs4KrIuwKJCEM2hjJqy6pTYEKR/glFkhcqJAKexlFajSWnXNx+QgP3Ie/oT+BE8MRWMBx2AxCWPoUH9CWSHH3m8BCsjOQ79wqj46lJMPZkPveaDcPPYhBQ3zeFdOqU8S9FLZex44NtYDvA/77LYj8jTc24/t1hHZ4zhCXtch86NSvCJAZTdl9SqfwnQZy3vgtDYwEtYS0/KrELPAKIJGAydHPswqWyXXFbAJWksAC5qJgj6WlkQ/1i4FQS+fC+kHIu8sGk40EZL/Q5JB5QFBS6TEziV18jnso86VE6QYq3ZpAkCYbJRPVz3h9YRFqVc80pZSAMEEQHWHWU0qfGlG+QPA9sB2m4n98UaEoGbeyPlhRjIswzzVmiD3GlEHFJhrDKzT6dlVKsaWyCUxppy3TBcB8NDneWnwnASHUtXCSDAPFlivJTYxylVVb1N7Zqh4FK1HBka3pcHB3QpgoUJbE+Ly5OuV9a9VH8D/vAzw5erHacmBl4tqCzTayZJzFb4LWBZnA8by2UHbykQkLA975D5wbwBWKzt8LdoJPJAoDWlX8BOQcD61cbODE2CA4XqfuG7ChROYs7LZyetA3ENGCplURuz21Cd5ZsiU4EmnvDNhROqx9xVmo8RQ4vQOcQR+pDXBJo17uY8vmGv0Y6a+AIiDBC2DdClAhLRNKKCZFuBj+KuibaOobPV+3fYxCQwUonviEzMbsmmW66HLljGR3N1r2Jj6KiV8BMhsMpnPs+nLN7oKJMyQIC5HMjcBH/kSFYicylEIrNpuewXahOybMleK2gnrNgIw8N+6YHxVwdXnvlwnWtBvdP304FOlQMopT5Wc83Uy5SHIIoS1Kx8oNwLvwfl2rz22j/eOrSDnQkK0MkQXTFnkfI3g6b0RY/eUUMq1oB2JdjKqSTHxzehki6TPVRzFsu9wApN3tsSJnQ1NLiAQMf386ddMv30ZKMB8kLrca69IWCkzJDA0T74Gq9leq0myJ8Aoa2qmDW4tJ2a1PXwBDivKAkm9GHwuBKSVyVW+Phw0024962IC/BnSueeHRQcPMnoWo7qt5Ko4l7bts+Mh6aQxR5IXRnxIkVsi7YB70Oc2SOsgrCAwEU+0Lc+6Zvr9i6NAChpeHG3n4sxabzJQyB4qM8WAWMYPD3t2v16zVUDDBfwFlMBmUZu0FdIShPK6mC0wTUQ4fXZx9GzlS4CGFca/ChFwgFTiewkDqZvVtGXTQ4Bhzhit9y/9c2YUcPHFnNDsiBB4KueewS9mkKvbQVfFq7QrdrXczProzr+AYlWUvlXpWpM+rLkABvjTFblYBPA/X6BBvdEyG8mRgVo20voVCWNdH1FErtew39yr2t/tdm0fZ2gVroPg/ALtCXxJKaflaaXwabWxaxGlV0zbWVEg9Wk4K8rP6LpBJgIYXChmbJdogvfvVyzGLHFl3MU80USOapGKPS5iU7+lvxQTl9mD56hgrdyy9dE0JHKeTJbgNrwGTKh65jwy1kWk/Hnvs3bEqK6YL6jUca5NrGFD8jWUqc66p1DetRV2zLOjgqeVQl42cWK+tV8nMmhgyzgxF6kZ41pF+TPM6TZwiOez/BoULZXgC6LaHev9lq2XWphJK/Y3H8dWHl2w/+HNTXuzmGdDQ2ErOWcT2uqAI6+BSeMjbycBi9nRPb3S4xRIQcPj9DhX7yREYxZphHNjnkXa4f0npIzeLdfIzYADFaFaJZB8ly2KVIKLuA5l50S/4AoE5y7cwTGgoR2VUGuKycBq0a4kgAZPFc3xky1ZuNc+aO1i9IXaIlIh9Dz9ezoUCHta5gEvBDBd5a8QXRyGx9mKNbpVe9CkiqqtK/vJzGaMYPGAdXpIltODMonOhi0KvHUto7oqfBc8hELvT4cSp3QWX1IYKXjW3iVhbSZo/lYwjd4YHqHByVm92rf/8ruy3T68ZD9/9br9bHPV3lxeIkIFJ0mirQaYihR1USAZVCaD2JJGIm1nQoEUNJwJ2WdzUZk/3akIRylp9/YpOvHe1rHFqFevxVS0JO3svCaDeR4KiW3I8VH/VBbbU0Lz4QDQ0M0twZhwjCTxjXt3unulpvuTzGb6Xsx2+vp5rp4ec94pECxWitQJIxX4zipfg/wacECskq58ozA7VfmIud4CNNw8bFur0cZTp2XLJGUL3Qv9mEKHubo3LK0MkSh4Nbi2L05WAPY5IrcGZHnVBgbHTqrW1oZrdqt+ZA/ukVL+1Uv2L9+5aH92bc2uFEjWNjEpkjne9wap4Dq7O5zS/uxo/8KvLDVeSLU8ZOdt9lm1Zbf3KhR76tpldiiUmDTqP6GJWFAtA8xIjp5DGEpMCFcetSc4wfow8i5Jd4YtMkgSyx6V8CzHOTKRO7YkgWMDgYRHmm+B9NnshMAjV5+zl0/Q5qR3Lwuo0jjZ0bIu5LcwyqOFQhuXY5ebpUrqOGnZLgXUDjvX7U3m2syogs2/yoK9edi1WGsY0FDANJGV/p6Ha0QcQnzd/Tu5kTN9Ifqo1kwCcPCgE6gqzZ5HUbB+L0FPhWGuYMKoj5eMerb28U7H7jertvPWDfs3b1+xt0oADvlzhNAqX6Uzo/tMqTX/F0tBw/zfo+frodbhk6sIXqdYaJCDlal+9+GDitUoR/s6+QvWyG43lL0QxkhSWg6aL0bzfIMWL6ffCHxPwiMvd4bSx+45AER0awc2aKHCvbiGapmp7nbRrzrzYo79sZH4/fc/4WMfEsSQ/cabK9p5FY55OFWmrwBUfCWT1vT46Tf+XqoqedrRJJxk7w/v/KNHpl74lb7TFRe20XXhSA1srCgKpJ2YJYmPed+2Y+bVYYMqKJsFH7uPenL8dNSP0e8ZhPCf+g8nv+bH4bOHZ1H80w5po7dxgiyQk2Qdg2OeSiwY/uUqSCE2UrMBnLVZmCfa+4gQ+AIMqgyaIRGVQjCH2CuIo2BUqmirjK9d28CkuDFasb34olXrQ/vll30rUFDj3759za6Sx6GoCAuFaj8kyzMom3592hRIQcNpU3RG55uwFmdYcLRwVfd6FFOfdEL8HyfHAXllbx4P7Ms96kuQfe3KqEJimhZZFnX7FaqFCnYBV6FGHSPItGPJswNT0t9hlLc6BbBIqmtW28ZrrAqK+DO41QXfqWAI5njGLRqdEEqOoGpTwoV3C/MXQsi7PCFyRGNIEiztihRRnFoWoRLED/cYBAmI8GRYsGr5vyrSJBnhJDpWhMkavyU8NVpyGkVD6YIFI3Rgj7IdJAHLdVDXw+BzmH1Uy0Pn1o4cWnodBp71i1DsLNjaOWihmkagucWwAEr8Z4csuDBWEhM8Gax4ZK1O23aIXiDPk61wXJ6kZA6kEGwn04qjRZ9n6fF0Lc1AqMa19Irrc/v0SxCK/15Ksir34uZ+25pEPq2j8Vgh+kk+O5R/8vsqrYh24zzp7nKe+WoaJ4Py+SRaiS5K0x0KzuF3pTLkMinirFzoAIqya7YDOHrvQc3+6OoFu7yENhHQkCZ2Otv7Ks6StkWmgK/EJwZw8hkMpRjbPjHQv73bsFoZ50eFOg0rCAUEyLiEUxHCQDp9cak5ZDRPjOyxt4rfFiBSoa0i9mZlnOsSMSHQEPfJBtk6sLhVJbcT7Hh0kTGKY+GR7SxViAruKiGqz2W+cOB0QrzHrjXPbyTkkDbcPYkNjYv7Ka8zDU/SRrs8xukZPiXRAFbReJnUmes27l/gmCuWG/A8XuH1Kg+cRpVRh6yDEUmEsqT2Hudiioi1bVQEjlExdFTaofLjtmWKDcACkQXSaEkD4Um01BPOz948IovnIjZNBU8UygiyoqF8YqRxYL0k4yrOwy27W+vaQW/F3igpxwBfc5hmDy99JQkEKLkYsQK854RPa/xQPhM6LIAOPmBdjqXuAACOQTDb9bF9eUyJ97hOqGXN8lR6yjJvlatEQC2iaqxuunbiAfE87YIz/k5RKKIRl51SQgXl9C+81xoldRuga8znG2xqlgBidfKslCsDEmpRo+Iyd8Gth6Ly9CwzHkd6Ode4pWRYQAr4ktHa8fb4Apq+09cdBMT7R7F9dvfYSoOKXUvKQawQipiB2UdoGRZ1AYqVS1Sq/9qzaLztXBENCuraCoABLcMY8CDBl/jOW77u4jqMWbrSKaEm5+CLhWxeX4TxC/g47iGlMG8AC7zHRixPvgiNQzTEax2wMB6vI3iuAaZet1z3Nct2AAv1po1aZUsaDyxpI3xiVO9UCh2PmCN5tBFLaB+WNqywedUyF16x8YU3qL9wx+LVm2AD5lReanLqeygOXwYvdohO3gUFYmEiaAQni4xXgAAEO9lOiEpq2f7xsZX76/ZmCZOAq99dovm4NTe1ssLvBSO+fn8mXOBKIs485IfScCgRmxIcjaGjxOoAjcPdo5rtHh8R5tlCTU+iNqEaEEYBxMYe3V+7liRc2K8+T39OltsjnXr8M94xHmWC1RCkdcgz/9rU1jhqDq0/KNiq8sk//qNHzpa+nAUFvn4mz+Lq6TW+PQW0O/Y2WUHThTT9mO+0c95Gfvzqdstq9YG9RR2Gi4MjGJLsiXkcB1E3s0VS+pScp12bnHKBnkJueg2aceQKVi8u8QyEqO7bsHFMnQ20KQAH1REYo1lBekIY/Z/ucJxP+WcLNOw/6KqS3kj4SGsSgIN8DsR6tdNHlBByimGKzwAL3Vcs07ph+fqGjQ4wUx1+avHRlmV6Zcv3+9CLuH8Ydhab+di3hwizbIlUF2s2LF2yzOo1y73+lhXeeAclxob1l2+ixLkPRsFWzfXdoKFy0koZ/Ac9XZQPpgtpOgJo6WuO8WHiGrPTr5Jn4AiclGzwncIC2eELLCjlusYeEqrpPNNzfP3Ydd80IwUYBLukndAdE3CQ7X+3M7ZPd46tS7jnFUwTy4RZZrmnqvyKGzAbgKBtkDbpmVqNr+/GmX6j2SpKyQFVURIj5t4KIK2BD9Yx6aY7/WW7WBSFF3WEZ0reU7t4ChpOjZSzPpF2lnAUdswJTn/enKkhLGAgshg2+Pq9nZbdun+Io1HPNgcNrzUxjJZxGGQHSQy0RIP2Ts/H2mY9xqdfT6xD6llZdYV5CCK1dn7NuuSfyHaP2fSiStZurANyGm0i4LDZyz7NuOUAyk9p/NBV9nolKixek7klaE4k2BgF5gWFCSYyG2BWiAYbjP8GdQp+Qgjqq1QJB2Bt7Vhn99fUV97ls4aV2uxV0cZEeJImmBhkcpCvi9ITGzu9DFqHhPC+UffIhvV71qvesezx96zwgx9Y7rU/tSFmjWTpNr9HW0E1SHeXX8hZNb3/0xUBIUFjCXURZPLRUhvhSxDlaxSN6tvdSmLtSzjylTDfMKHIHcnhWoPQ30+llShB9/VNx46UyZRL5CQtQQpDBKb221kceDvM2fcpY//FcZUZPiLyaYA5Di0Q2kJFDmU1n3U1JT4SD+B8i9hgW65mUXSllq27SbKWM6rm2WxaDefIa9KmMdYnBZf70yzioBewz0/SfgGHkHb5IQVYbTAa2Tg7vLpbHdj7tyuWdNidkLJ1mV3nmNWYhSFJnS97qTtAanuzkE1sWWMWv9RuuGgtnADlzzCuHsBYxXjZeZHf3ob4NKCaxwOCTzDAS6j6L8WC4FAn7/zDBfuj+8djYmoaY5bQfXUDAcI8N3rb8rUfWqH6tiX4tfS3P7bBzidWbAImKU0sf3slxBpjlI+VTIeYeWktBCJkq3cNhs6PjVl8PauKisP71o8RnADRUvznVnzl5wgwZtjqe2h3yP+h30kK6McL2dRv0TQ8uUCbjCPD4JJClbLODds6bFrzzZJdwklPe3wHb/JN0JTyJoo9uw2hkyJ/CvIvolw9aQwcRAD5bJtaMe/db1kbbcOrzOl1NEFLgJgBx/g1OT2/gtSa1Loe1+dci9nYCvhmSEOIST7Xx8lUJcn1oFLmZpFEdYs5svPS6xQ0LOqdlKzU4qECpJqrN2E42nF3EB5lPN9/c7tm+/s12xw1HDSU+C4mvXIOs4Q84uV1LVt/0DP4aRbwj4APTBOzQxsV+lDcunfMbviQDZuc/2DwA3TIGIsjQrnkVKadXOJaGUaunblEoft3LODwvcsSGQxBY9N0YCwCDQmOjpnuu1Zq/gStwFWL7ty24f2PbVjeJk0v4Xo4+OVG+Dl4zn+glDsxDjFbCTBwHld1izbS6fDsAlRMXRVIcTRt161//6YN+yTqGf0Ly5TetF6pbDn8JwrUNBF8TXLq0KK1CdDxJy0yXkgN4MTlZR4/mXENeh3ZQYdET52Ldn1NO2BpFbRFDr/RyAkCPvkdL7625TUPIbpMGlkEv5wvlfD8Pq//8aBq98mvskqRqsv9rgMGnQh9BMdz39Q1jlWTllEzOtws/2hh/ni+GOigsEz13zUN+GvkCRfv4cNREVDiU7jWwozpPHY0BQ0Le1dZWNJrOkPXILSvlAt7jqCwrN3E4/hjsj8mnbpdsqaty3+BnaJAxghGkxBpEBSniAMXDgtKCJisWEgPVW0LB0jFqVutagmZIPPQYQijGUKDDIl5jOgA19tPhuqsVQzK6ciHDiR4v3Bt2meNMdzjDM6OUf8dW2r8xAoHl63/xS2LH/zass19vNLlbBby/49zzAuNl59moFiG8sW+0+Mjqbz1jw9494jQ1MHQGW8RgEffmvufWbfUt9zKn1gh+xNLVgBj+U8AZ3V+p2w80/7xcmGaU+Ureit64PTJ2JL8sTXwA9mq37CfXF61FdQyAqquPPdIBgGsALq+4kQnH4m8WSR/DJjtAxw0b8eo4fdYr3+3U7V//GKL0OGGXe8SajnGRMSclb+SQhMD+OU62KP8LkFqwZRFa5oheriSgRcCrdLuqOS36tS2CLU87OLwCYuTCQ07zKIN8dz0dxG3AeeG+N9pIO7HIJWomLsazApUrteHeBr/9uax7ZPP/QLJaDZ4yD7N1tMZ3liOgjhCaoetsCc5Wy1sc+ZBYB9RIl3GNMI0McA04bkF+JtFVRwP2tikGe2YMbv69pEB+0uWgYDDojYZgPFjUGilP0jHG7V+aMX6n1p2/6J1P/3Aevf+AcGzCx0ELpkraCOG+B6MqKkQI+w0/Ay0Uc4LwUlFZLgGB5AZw71jSCS7uyc6ku1BFIaemnelpGZ28JnZ5/ds+cFFKzTfsf74Mr9Bi7GQgOHRiaB5IcA0nTM8a/xZDIDFGmC1aVvlhrUIUVWSNAlsRWiKylmZGh796aOnfeK1gIMLSj5vAxhuU1/iP92p2j988oAkR2W7SJj09bhKxASOq9m8p03P4WtSIpV1ET+IPDcr5+Y4XXsxm1iUJqLSg0BCaAlvYk4LiI2HIyqLdqzrdTYWc3znpdeppmEe7+SUP2kRsXqCPAsfhr+BoYtDZbXC4GtK6pJgyz4aYJa4VbHP7+yg4uzYRauT+Ii0s3ClvOK34WJSLqtWgxbmQ2bob+bqz/MwPynOtbfrMXbVmxhTSGhwsI0/Q6i3gZREy9AiDwHjlrMe4EIEE031S38NU5KolMDkxdw13+17rzQZmBIIfPdfEAiSqBIQUt+l3iY503jwtuWaP7X89oYNvvjIhtvvWbG/w/1GsUuxIFU1lce9AwSFZE7oISAh51jRQhNP5caDFwPnhlSBXtBJbwESiYo4KToD4LnUJkRziwiK0mUrEZLZWfuRxTjsFbL7XIc7hOkk0fxzwCFaa/ZxHUnLyUzkxYtvuqSPD6r6tbmknn2surz6pVmlpr5pjqhNX2sMvNPYcw0EOOaJRtOq1Ku+sQRoB2QNoI2MBCE3I8cyF8POmCtPondkPtKV1NwFgt/IF4kkiKR7H9g/f3Fonz44tCZ+E5dI+X4V58siuQsSN62FPvk10Pho9qp/YwC0+5G4xsxPvTB/RN1AdMbAywz00SsNpYTTpw0HVm2RRlrESrUMZ3pfU9BwpuR/ysWnvOqRQ7QDlIAUIxPbl4txhGe1l72G6dXYgfz6YGT/tNWwdrdpr0YHhGY1WGPuEsdOUYxKkRVad3ql3SPAA+mshTpPTaN0ufK0jnHQCLWsdsD9vMwyhFu275F74BC6UN1S40WFW8IOnOmQxIrwwCQh7FI7cwafOFgQ68X3AWcQmWzmrgkMINRk61a4h3obobJVV1WMbIwQEqjQOOMBlT2Ttyxq/7FFB6s2vPWxJfc+sOV+jSGLkLr/gSk7AST9H2kuKkUbn2P6IlzNZ4cf6kSDWvyjToDkZkZ9khaHGRm3D2y4/4nlyxuWX34XTcYBBxxxHgERnVUOmtBadNck5JNpFku/hj56wc1FEYJHc0u0cK0K15QvgPqgGRC0LaL1pHGwjnS0pF/Jd4Qmh89RhlwN+IfstIb27kWyGXKvFMIsaKr5NQpZr3x+uUqPzxStJCuSrqWHNDp1rnEPofjBUcc+uFu2vb1DK3TLpHwHNOAIuMIadtBFH4mZ4EeaE1lAi3rpxOSZtcz5F7UJxMlHI6PQH8bkZhgoVGRlFwBl7TqbA3iVZ5CEhlNot6jjXdR+p6BhHu+c1r24ycMnXoUlIpauXVFEKJac+AYFBU0CCgi3+pJQur+/uWvH5WO7iJbhEvbPArsclxf6nTPFhzuc8ElgOX5eP2a+/jwu1h7vm0gUIT3jLKWwUYWPYLz9yh4hhuQZgIBOQt8WDy3B+1rRE/in8yNGi8SbbHr5bCJIobvLzMcvc8bvNBl4QAhgELeekSGoE99hKuJBkhtANFzBNHOd8Mk/ssLxBet9/omNH3xIBcEdfougUky/5o1TRVSdUNafpkBCb542E/he1+dJfZnu0MO5AAIUQOtQpXB4H03Pxp+Q1+ES/VvHraFMH6U3gtGrDwK7EsQIiLNp9EFk9bEyGEcHGps+E4U0wKBX0UhPGi+VrluH+aHs/DO5qtXIDHn3oG9/8cqaLeUGnFWplnQcjsloHlTRUdkOwVl8Fn6v2dlD89IcJPaAQnKf1Ab24V7DdvergL+WbQybdnlcsSuYJJYwK7pmB6dS+S7IpKjmUT/eEX/rf8L9ffh+8V7JXAr1oI2gqLY4ejDT8U+KrUGiNjk7h4ofize689DjFDQswF0Ui5jyBuezfJBVmATLqU89APYddtTL2d9/WbV720e2PKijzlSqWUVJiD1Nf70Ag/2GXczB/eMMpbCjNRtRrngAaMiTzVBDnrL9GGfITKcJSFAqaTQN7AMT7L9OFUlA2gRi+Ov5+eNSyrvju1/MB1LXioVq/+UphpXWGBok1NbIDv7IipVXLfly25Kt32OiuM9QSToEk82MxGZdOn734Wn+cbbHZD5M3inZHVhvb9/y1161/OoVG5SuoyABxGWa3neVR1PzlN0yqek8371H3+AMupqAke44yEGOBCdNu9fgJzRW3xxVMo8c6ARsIWGmM2hDH5FWe0y0SDPbQEvQs+P+RbvA9zm8/QUSBkTzxFRb9RRXXLILaOjzuwaPfepW3C637U6tY1tHFTsqY3rAjFgEeF0FjFwZN2xzSLE1NEgj+uh+vAjTYFw76fC5ewHGCk4ZmvoQenq3ZJIboDGsdvo2SIpGtey0nREFUtBwRoR/6mVZMN60MHiIrYnNuR1Yb6RelQCAmSyx69xGv/nXd47s/Vu7ViSR0StoGTYTVHqoRrXTOa+gQWYZ7UfaaBo65KgfkAY5apHUiZ2Zkr2EKACgg2LSepTfxRs9jpeCelnMScJATzxciLhMnT9uFIQzAk2+DEyEcUx4H91MyEKo/MNj5aAYvouJ/Q0b3Srb4NaHtlTf8zkzHuEc6kOCBuLImj/fsWkuuqJBz3ROp5zSsMDcjMtlkkc9sNylHwEa3sSUQWbOfB3QxpH0XUmIpGUI81Kdmx3Nfd1InSRVwxQYBLUD/YA+oAHNCtVxcIuFeufqcl7495okAhd8TtbLYaaCQ2Sd0EuqTzaG9gqRI0U0WV1qKDSk+aI+hJxwm9y6+xRhutPoug9EpaHCU1SabbbQjA2pB9O1i9gJl0ctW8OHYQknR5nYYgCiIiqGOC9LWaMS0yfdVZfOU/M5IcMrGoYpD0SjBilxAB1Zm/wUVar0Dkdor1LJdWZ3PiX9mZH+KReWlPBFE5ipyzK2mCOYrkc64J49gsEouUsvLthvtmv2q8+3bADjehv76uW4aSXfgUolPDuG/JQRvZCvJHTk0NmkKmMP8DQo75IJsuY+HiKf2/3h/Ake5gmahgygIQvDGSFII68uFPQLsimLsAFCvJCufsuT0iNpQpBvcoATyJEfg4TZGKGWUT0JFZrqfg/A8I7lHvSte/dDogHvsCOV0AmmmAL1ICTY/c9pTAeEoe++ob3OKwAgVi9hlvO4+paNdtH4XH/X8ms3bLh8kekMmCNRT0gzzTi0w3dgR4dOo0/PS2EJJjnxeEMaib4nfgCaNUh3egsWC7SfrkPGLKAkwCCzoDo9Zu3JOSIhPXttWLbfHV4AQFAsjeNqON4eNwdWbjTsuFG3Jj41HT7rdznhCJ8U1ukq5sMr1rJV6LIM/lshD0MO0FBAwzFiPss3YuBRToSzxj0iJKC7R6zMkmAa82yaZpPI7euRZ6WT1hpWFIoysNSHPatQF0V5aDb4fKo5S7NBzub+TK+SgoYpJebpWShBXsLa0WgV0fSkxwiJQaCA294pTmy/Pu7Yf/5g1/p7TXuNnPQXx3VUnIQY8ntl+NNZzieLCTKwm8FNikyQMSl9Y5IW5buk+JUcYNwauUMB/DoyZIWMyCiXiTFjsHvTd/qndNInu5YJrf2nc/JHO2MHMzBKt/By/6U6R9ENKMBZr0cdiPrblj0q2eDeZ5atbKHSpu4DcyhhnK5nkrCR3sEngmbEd2tT2go4SNsTNBnMVs1bgO0Spp+4XbPRYdmKr75m47XLNsrhW+EetxIMzE1+p8NnPzu5/nRRibKMQRUk3TMRGkVkFM1gYpC+QZEpARRAO3xCKA1FfzENkcuCxcVXmHxGVznmCmrznP3yVtU+2iZHyKCLIzLVJ4lTjVTEK6ESKKGCJezxFwGu68CB5TEJsAiFLkQk2VIoNCBBZa6lSugLnXiXdN9UKpp4JwGbOZyffgtP5Y8G9xUD5KOM/LIw04xJJ10FfA3RwJBB7OSqylWRAocTcrzwFyloeOEk/hYX0JZNWx0tIpiaq0dhGvok5lkpkwd4cH98ULe//uiB7WETfRuh+UpSwemx5Rpg3wlqRygJek6bxGgbLUMTG+cIDUMW00SOML8EVa7YjzuKib9o99inrDPOkFFMRUft1nQAwtTxmdNHH6jNH70EABzgOBJQ/wBBjCHqXiYnwruWqV6y+PY9G2zftCWSWkVIcY09IXxSkTMamYOGMGgN8hRaoLH/ZU7Kt9TnnAABYi9LbozhESYK+pbfpH+FS3B/fE1UyIpdo2/WAbaKWkH+zozsApHhFms1BeEcIbAJ7GNekGacBGDJgLBVwENCam1jbkWxvmPeaO6QQdMUpqrEFTHOpYQ8Z8jRoNTdlR7TrFm2NZwXlzm1BH2RSJcNwgVLaFbcvISHCRcgykJAQJov7aRV3TIiZBh6ePcAVPhF8I13NRJAUagsN3Ie9WF09HSaLz34G6R1RdTkrKp6mfMcM2OKVqFZ5BEVdXBYs6o8mpUNI20zoUAKGmZC5m9yEanMtRicvcGgtDhYJHBl7ZAGvB3gPf3ZUdP+n48PbfsBkRIwmEtR3VYIzxrAhXqoNFX9URrtk03VN+nCPB0b+MJX90iMNrMCTVDGN/bJny0VuIsCFwwOGmA4eZi3NBGjNg55MH4x48BvpownUPyE5l99tbP51Ls4FRWCDgABzQdKMmdbmCW6b1KpsgNguIXWQamzEUrKLuSheEOXbfKFIWUOj9NpPjOhvSIJThovR7zPIgwFJCLSSMdNTBSHVNS8vkFlzMvs0I8QCB0eMhGgpcC7z3NB0LFHznRyyhf2govJkTSSxmCIj4uDARJikQrNBswP/F7yveuAAaJtSIblGVMxHSQ9AA/OtuN+BQsDQp1H0qvbqIA//7Uf29L1H9omJofX4yO7qGqh4BI5MWpw8kUgQBJTBsBJYIV3yssQk6RNd0YaBS82BZryecvxShYF5mMGZ7nr9BUNkxI4ne/GwGmaq1PepYqr6G14n1ijj38IHqWjdQCVQKert/wn6Z8ZUSAFDTMi9P0CG90AAEAASURBVB9eJiyOxz737RfsgxUj4SdmI4avErFC36qvwJqxz45r9ouPbtuXO32Y09hukIshT6neWI5xCmfT7o1zCHt/xVUeu6TeaIHOYxO/RRngu1IpjPXCxafow8CokmCtPEWSUNkPyjj+dVEF850X4WJAEl+a4M6MiXVXdEV2jH3dd5YwatFbnImH6DRlUk+lhVTIuh9+h3SXxPCDoNRdk6rUXQMnRHVdhvdbh0o1rzb50l9rRBqk3ujck5f+Yto/jR3Bz02N1Ek5Qg6uIdh+YFbBCXT7Q0tqe4TXKpICsOiAQX4Gop8AkugAmFDDCfG7NpFN3ZUSi//hDR+EsetzjQNwQ36I4eEehbGuWPbCFeQvUR0kRApmCsIQNWyGdnpNI9ZJBbB1T6Yn917SZz0r1TjaArJm2uC6RZ3rJEi7SF/RIrB8RmhIBC7z9QOL8EkY4bE/bGMIxLk4S1ROhOkhouJnBu0BmYb4HG9+KlxmIcrSxdc5/cBWiXrYQJU+ZJ4NCsxNtIax7j1zI6NKlA4HRLuQ+F2Okj5P6d0IAKwkbQ5UIKPAv/xFPKnT6RFqjs8U7pLWpuYYRPO7lpM2gU+6fXwbCKkekGDGlQ0cEoDDFPiHe+1rObx8+lj9IpNDJsfro+f56dNPfH6/TUHDrO/tZJKGcK7JRPeFAQtxCYmq0xMrZMliCGBg8fRLaBhgHF2+/5TkL7/4qGJbD1p2vV8llrtL9UqYnLMWhAnHexU4rqOCRFMB+rRhzuMCkS1ePD+DAOizTdNOI8f4h2hRJKoFKPpkgGzkV22AR3WmWobBYktHvSJREZJXkYvB6Q27gdlk2y0ERAmnySXOgagWfaQPBn74xfzMvPy6JqavCAC0OcM8rBw7dw7mFeHp7iGclByXGWBMGfKkqP0iPZVqSJfgN0rJ5QmkJC31HZ2T4OAmMx6YJIOSrZ9bCLMEbqAi11iCmUFMk50V4xnFm571MWletZiCUeO9z8j4iFDzUTESpLkElIslTjCBWv6eP9+5OTvX+dV1/eG6ul9TXwFn83yfx3lvCJixox8SSfG6jUr36dwRY2DXTu6CMeONeAQA9l27pf4oJBWQJFAAgE6oESFg46SAngnmh2RICCgZMzMdElD18MIvwwIr7PUbe2QTPQAbkJAKE89YmgXuyxiAoIpQETkCVCZc49SO130MoLgAZESuhahGkbROy3oXilbLl6gRod8X0L4oT0q4z7rXuvOiGKfyZ0G4KcAXBYBS/EbHQWV+JysII+BKjE+T4dy2sNGRHi2n9RAD7rTOAFw5Nksl1vYymSHr/ZEdEIoy4B4UtF54di2s8z/x08ADsfQwB55BLC2RqeJG8wRaa+3pp052PesYNd20tDkFUtBwZhPB2QATdGpzVj08sQrmOrnkJVyGxNhLBZdjx1KFGf7msGX/5aMtu0+Z3AuEct3AdloitFIzPXh0a5WEJDIalpixM3i9WbCmtarRaL/okp8tqepGaEcnjisntRZCuod6clA9tnGNkD7U424f11g5gZi800UGdzlDkjQnGcKWVbiKswfafDNu4GmA1TPAA5CDB+pm+jUabXKtqwh/VPGyQeMpHwMeohx1P7I4YeIQp4LlSY701i4o1UUViILJOVjkPf1XKmcJImlHsjjLRWgKJES03/T0zzFZLYdvWaHzGsL4wDr3PrQ8xYxgsT4mfuyMj4N5HzwZwgjD3ODD79z8fPyZ8lNdRw+/5OTs+sSBH7v0+PDQMq8RFrp2hfFvsTMkzHDye90vHXsqjXUSzgUNNV/0TgIbLjdGkzAm+VXUoSZH+12LKOg22tmx4c6W5Wo1kmI1wRnQG1OfNCUCBjKdnHRu0kl/0h+FsEAAzS9lYYzxZRg3Dm1w6R3XfrU4V4nvdB+53dAitMlpToar97ozj7bAGSb0ffIHjx54nl4zTs1gASg1cS6Zb5QaWzwA4wx+ImOrUDa8ipanBe1X/cgg9wMNBRoe3rLJ19/oSX3QOaZYQj9Wl16W26DxPquloOFZFDrN7zUbNStpsulqYgIJfEYK0eorMZcsHtZJPsZe3yXGHWe/Xt7e22nZf/5823YODgEMPXuFsMoCyNsns9A2v5tO7RNep+stcPPkRVhzJdxl1VQ+erYgvMMhirwMzSxZELGLjyrYyilmk2WHImkkFb0zaRGFB+ShsWshtXaO5ENZduomZ8hMm++hP0Jfp35W03kVkYIR2+9RlmgVZeobj26wO/0BKutX2L2uWb5fQhAoth7twjLpnYukUs7cJ+qFXTfOqlbshRTXmJGC8yAf+/XVWQQfn2expUslq8qkGkskTQVzIR5fw5fhB5Y/IHnQ7d9Ypk72RQ+tRFuCsHuyPRzWw1dPHvMi3utqYvxZCg0Nyge21HzbMpfQjBQ3ITnOmtzXMDL1WY/v2j9+LydF7nOE34TgknJUjGVzwG/BBm9Q4fPHVqoDHO4eW3vrtsXH963UrVgJk0NWWgrp65gP7j+AHV2g8+uaehvWmV4xB9sAQxxx49Fb6P3QfkVdXCulAQTA+Ni+6/i+rifn5HOmQKCQr1zuheYEGypugVxr5ecINAeMt63WGhiRl8wjjuUmCHOraRsgPuprefJZ+OZr/nJBKaa86fUTh+m9kmrpVKmgfEiclBYPaTHbV5qRTMgpW3o4x/kCARGhwpX98wFqul9uN+2ff3/fajsVssX1cXosY5JgZ8SK0h70saYTTU/6xFePHbcAb1zdLa5Bk8COAVrBDBN5QqemnCBb+CqUj6ygZDj8y7FV0e5vqmp8OExMF4CGbBt1cYx9PcFLPqPSzdwG5xxPsoyHv3z0lcxKUQZThxxPYCWJsky2fkZ+n59QZoHCYEfbeNBTlhswEa1estxFQiIvULyJfAWjpS0br97h/uyifSAMD6OTGKFc5v3qjwh9gZERo5VPi7QZ+n4Uc60+O2V8BMZbN0krSFXJnkpbU+FyHhv3IQ/wGTVrNqYSZPbaBYtXrzE9txmTzAfB/CKH3dNpginS/tA0bXihWiPj3g0KUv7YcsdvWHR/z0af/8ayVEJV5sacNEXcSoGFALqUpFiCXtLk4arkzWMtdFmiDcCOD4LCJkf4QQwxlbVXV60DaNggnFJasSDVFnwxPjb6F/NmuvURbWOX/ro1E0qD/JW/QibIRqtDOmmZf1gfuneT7uSYb/qnTQIvdVuf2XTcZKr4sVP2qauGKz/zFC/dASloeIG3PNiVH7/AVMiLl2jT6hMbtbQzOwcB7IhZMH1iwLfbkf3fX1bsV/coafz/t/fmTXYd14FnVr33al+wrwQIcBUpkVpsyXbbUsuWlwh39ER0eML2v/0R+hvM15j+b8I9Pe3p6ei2PTPeWpKXsVuWSVEUNxA7sW+17/WqXs3vd+7LqluvCkCRBCEAdROod+/Nm9s9efLkyXNOnpyaTs+hijjenGDwYLENY+F0Uh4aIr9Bg+KM8IpGn9YQTINnK/ANLQ7jyrBqsuyYrQ8gicHly/ittDaB22LVD211RBhRQTmafLyn/hVQYtWOCLqb0xjTElsAV0bYen8jQFMwDTJgGWr3g5gia8tEAsRE32rtxbbgFVQFr6Suj2Fezr6DQeIZJAWzYZyZepl4BnG+tP9USsdfS+noG0gOjqQ08j5pzoMAU9RoB6lv5+tsL38SslW+JQ4TY2+/k2pzDfXH8pdSP06cuq+PpYXLH6Q+VlyxWkd3T0bKCQjdr/GPNV7CHbsrWOnX56fSyk0MVY89xy6KQ2mtB/VQF8dpm8hmPwzsO205TqwCV7A1UQUUZz5gw9CYfZ3zOI6n1vk7afbs23jLvIjqQMWgm/kajDVGpZMUTJzyP20Q6ACebdwDQpRBN/IdbglcmrqVlmcm0tLwi2m+hoMrOrA4QOrJ6ZcHfM3P/ZU0Ub8fMe7DF4kMYNEHnjjhQV0D7A6aXVhMdxnHK/0NTu4tN9uBAwpw6WLQZFpbTlG+t8ft7zZ/sj56LNJRKdtYjE5iQnxBRBUqqcvPCwecoGKQ0IDwjqeBHdjrGmcST3MfTHWlH3x4N70Hw1BbmkmH2U55EAlDTw0Ru6JriJrTXMZ0d9nlEJy3dIpR4cW/pzLQ8GLwMqnyvcJshZX3IrYMMzh0WkKE3JrDNwPb3vRNH262SeX3thQvSxXaXx/6dVQYXTgd6sZiPo3CNIRAc+eQseSWkwnUxEOyWs2TOJN6JdVvcd7C2X9Mvbcv47ob2wpVKDYCGeoq7WtO3EyLt6+m7uOvpP5XTjE3fYUV94G0MvAxqoq7EDh06e58Yc9/l0Z8ZG5x8FGrjqW+zVvek1aW8K4491qq3aTsCzAmU9hx8KqGYSibbCGtDyeSFvXYAg3PkqJud66MY9cwhgrpII6e9GLJeRTdTuwyDu0++rxti70ISKPsV+RJ2H7sS/W5V1PfxOnUukgffPw2KoqbMd4cIzUMHJ0YAt40YxVYrmD/4k6HOkyY2yQfGNoMaYwzGIjaAkygdg0HXkhL4OhyvSfVm4WzsZIQ6YFF7uaXkrBQAQLQFgaQ7iCBnwNH6Cv7BOlrnd0qU0ga7s40U/MIOyhIq1pCdVRwC5RRXjQ9CJ6OrTUIZ4yxnDD6HMrqlReeHBIJAlFyot19rSQNj7n/FZsbNHAEZb1jReLuCEge263GsfJ/68pi+oezk+kKznF6OXzqGCvXfc1JPD1iyAcirzAqaliQxda2dikWa4kR8ijI1xz/1F1lE/yybCLqKtwjsIfSHJPr6vIEDoQuQ0gQ0bP/3XM2ihMUC0i0x318taTBPe6teY6JZmG+hkEhYgBi8cgTkHs4sELP6vY5jBPX2K6XZr+EbcGxtHTux3B6ZyEwWN13sR6iycXJo70hJejhbIGesQu4+dY6Hybw1DdS49jX0tqBfTBBH6VWzxUmUXZ/sF2v8GGDV0LPy0Acu4bXx1Xqqi+8yeSHL8Fzb6eVGxdSfYlVdd7Kh1K3g/TFN/+8f+IYbCCsG+CV6fHUdfdG6nnuaFroO8G5Ydg19PCnQvrhoN/Zp4S0BqaBCWaNLZW15RdT3xjbUq8upKVr72ALcgH7D8YbIj6r1PEZfAv3xDGwXHEKSY0zg8mM8Xn/qsUvQyGhAr+wNVocu5J6j385LfYNwtz2gxMaqYoPVXgYBAr7nkLSIKNQ9EGRq7BqwkkWA2QSP92Ty6tpAYZziI4M2AaXLtNh+kJy+1CoK5VgsaaBdRQCPqipjKO5qT/UZsGxWOajQlLLerpDxTQ8xv6TyBRSLu4UM4DcIqynEE7wdGl8Kb33CT7sz91J42MTuJrBNz2n3Y2uTrGCdfuYQweiKPtN3qwLLqOzdeQ/463laSRYEnJXAS0P6uFfGDnyZc0a50x0j3LlBMG5S+iRb6BPxiCR1T2nIrEyIbXLSCbcGOcCw0fgrHSmiZV7N65o0+owBGMQ2wK30jEBRyhDsh3VcbEHEjsluhdPp/65U2n1ylhauopBHXvz4UoC9i08Bbr7RUM6t+bpAbFBR3Qj6Vi4whkhJO2dXkx9zx9Pqwd+EanD/rTcz7c0JvhS2UdYJQ01l4fYRXiU9r6OTh71xMXLafHqWQ4lmw2biTUMYVcVw8KohMVY1N7R4J/TowyW7q5bMAUyuN1LU6l57xKnZOM0aegkW1Kx64AZjvDIqJBSBscU7p1RS/RPvZBqt/HJeP4nqI2usAVZiUw/Q8/WOU7AL/DF6UlkiZ0Ojhg1Yi41jX5ACEmfSAZT5HpXx1prqCjWODhtecDR25d66w2kDcoPq7ATCMQIdPJm3BjCGJWuUCJVB9+1a+hiH+rdmaU0ubiS9veDX+w2iw1S9FcIAu06O/hhw5n0bunW2HGJe3tJvlO1sVImGcx8DHklk7c3ivDIhmsu8Fm+iofroYSUOV4czffeFfrqIEfr2UBr7h0QpGRwLPF3i0NsfnpzKv3o/N10GdfQ3Utj6SgW5vtwfTzE/vseiO8qjIL7CAzeOZEGVWtz2PFqo/JIl3/uE51fP7Jr0bpHU5xtDnUAk72rUfYNMMFzvDDUYQ43vk22Ki5hdJiWUTcAUxesWlmzYQGwOO0WIV9lPdy7vTA7DhHHj4Lugt2334VBIiv2IgjTImwn7Pf7ujC+qi0fTPXZk5zzMJ8Wr7/DNr4bEBnWRUiPepBmaIypXw25tTWkH00msVX60JVtF3V33T6fVqfvpta9F1LjFOqNo+y82HMaPmYCJgk/AV06E5L5YVPZ4snUPb43LV88m1YufMBqeRb6ReuYqAx1vBqGh8UQ80fUE/LD9A04tc3QKVWD7aeL09dQ1WBXcuQI0jXUQ8IjqLtNpqfE5RISFTjQfhdfVfRrKUnErqegLOeartYe1EYvpto9Die7fI5dEufYsIJ4CRuYwo+DJfNH27R9MOjXwxCrXdpl/xesRURv+yPTETgRDYWUeljXCvYsGEQu7zmFsW5vGtZZkwxsu3/KeLXxfdsWf99I833eYLsfRTk7bcd2fbY1L/hgd5C4aBu/PLvYF35ug9Udt3RzbHIujc0vpxcGkBaahz9VtN5al6qNYlXVrtky2uW2Y+gXbMcoaxq7ofHF+TSDMbVM5J7+gXSgF3sJ8kR/OY4juxHkzgUQ135RvjH2mQ4V07CD7pV79aCoDUdJbezkIg6JUMVP8Vw8eFIdBBOk3HjNxALiC3QZgFlEz2fGV9KPPplK71+4mqamJlMfuu0Dq+McbDOb+kDiBoitNMI9/NAoQtbh5eeitmiDqyNCGaeDA3ckPSSU9YDmD+3Jp8iTk0ofO0O5Pb4rWtmZavOzadyjLVn2i4t1AJN+vZ6m0BU3F/G4N3aLCZzVo0QeGMlkSDZc9wUvFXHWJwyLVqypY8bJUwM3zCtNJA3hMdE0xSSXIRjGlNZuBFTJS+hb2erZvcqZD4vo5m/AtIxfTIMr+GKwZqpQElEDV2oYADpBKeHQnEuxZ8tVkgZdOArqnmc1eh33z/OcF3Lz+dRz9LnUdXB/Wu1lJdwrE9SfVnBjXJtAj3v9Yvhj6JoaQ2LBahrGRJ8NhcEnlfJszZt7nsefa1DCAFSFSUzMfjMHqeGzoX4So8Th48AEaQOeTKNvab566dj5EnCEXAt8ygjJQBBu8UB84HvdSsn2VD08FiPKOOHCuRErJ1MPUqA1tik3b36IVGic8YMNSuCDkiUqEFdKyOrEXmCb5RevvTwomDJE2zGiJQYwcfilWL2DNOnIa2l2iE2XSIzYSwFzBA4FLrAV1MEGViiFcsIryiDKZrVD6TZiok3cUcRGugI87Ryf8kIFIbC8X7ZHVLbtjjG0AxoUH0aGol0FBPzNz46kHnaPaQw5Ob2Sbi60kDrirwGa6tkdkZb8ofpV8hg9ab+IN1xAEUeKUiT7YwlgXpheTW9fuZc+waPsNCoPTwM8dnBv+uWTh9Mbw71pD9ml/0G3Y5whmSCuhQ2VaicXNPanYxt3fOUutMpnMlRMww66tZhASOgIaIf12/aNSGOCcAjjZBP/mCzin4JM/jET69bXzXaX2fr3s9uz6a2zY+n2HfTsHLh0EIvyfU3OkGAvci92DoHqMXaK+6C9uVwGiZMYj+vBwVl6jPhoHkj+sBBltRMVedof9oCMcuHlCs3RJrmbc7UZp/VIBvnDQqwaaDdu/dmJACNAGTJtM406OycQMNzGBoAjhzUKdeIQVn6mk2nBHzBpUU3Aw5+okz5YZsWJ98jGwv60Noi/hrb6o0VipmoyUJKUWcKigQESDRJZMisXHDMh5eiCaaAT08qtuxgnwoDYr7RtxT4hpYcwmaeo210uxPGiYFyQIAQ88Aqgy+I7qCUm2B1zE5XH8EjqGuAMhEGudVbFELEWRpRriPV7FpEwUFDgE21bgzEp4O/327qoLe6fhJ84UwKCapv17Cf4azjlad67nrqQsHTtOQFor0CjUS3BSBXjQ6KtioE/CLHjrjihgTK4d1IP40oYBv1WBDWPEyepJGDDbgiMH7s4j0P32qvX30vd00iB2FqJP8GAUJcGLcAuMlD6JqjxUOCOvfjwoDrDf27XdMQb6jgf6p4aZ9vtvTQ7eiQtIC1aRZqlsUowRYz/lajfhTDfsF6V+dcfoiyQubjmX5tNKNrITWTpyBMpdvZTHvNbcjzCsqOFDICQCGypaHOEeBDeHOPjCpjEJOWYBFy9tcXU25xO8+x+ujTRSlPH1tIAs3eTMeEZM3podezKrBoKbLKX9JxCpH1GQ6YhMO8jKfzB2Yl08cptzrPDiBU12lKjkc7fbaY7U7T31YPpq/sHsKOwSPsKOgQDggPQVFOkGdI+dupQD09iJzW0K7byZzREfzyj3/bIPqsWYmdWfO3ltysn+UoMtcVPKBpIBCKuScxAnZYnEILkEkrpg2ikpbgT4c2ZtfQOh039iFXQ+RswC3NIFTDoO4x3xyFcQkvUnOwUyHeGDXTcuOtM81ifv+BmxKTIB3mkj2CeYxU5zWl/endcwkh0bQnPglLQdjs6m5Of14kVNzXOBFgdv84kfJISR1mkc/CTOxeow+2U4fSJAte6UWG4qwHVAk4W6BNKgxnoah3C1wPi9dt32e55Hde25IW4B1tH9jUICWZ1QT4oNMJ6O8pPRHZRX4OVU2pysBSqqLXJW0gZqM8JkzJ7RCCMvtZW1MVDCKGEkr+CMFlAu4In8GJ/2UBhYau7gvmCPZiDabh1JdUPv4yPrMP4rnDba3uXiCocyW8wRPqeYOIXtmyl1HNmwAUZXTFpyiZaPnIc1ALMGtB07D5WkNpMD6WV65fxmXEh9SOJMp19aT4Vexvrwc8LQL9ShtFte3m8Mv6Z1JpT+INADTOLxAjfkKnfNtJ/Mo/ypTQJqBR/XB4ePm9TH17DE5Ni+08tYpFFcTDfIp4h59P1e1NpbKE/HW6wSyXGBburIMjyWsW+mDrx4lNBrxXw6DRtFubgp3cW0p9+fDtdvn4z7cFG6NT8AuuHrjSJgfUtbJLOXllI/w80oKt+Mn1ttD8NShssh7JtSR187FKaiESjRYfKEBbj8okB4xfWkIpp2AFoY4UTIq4CcT2qVgT0KQiYzK2HCMkoYEGzqlW7xJJneN/EmVJpEkubs9gr/PjqZDpzdTzNImloNBfSQTwEHm7dSqOcCihhXWGPuYRSu4WHBqlO0aSHJv15JrCZny1A7CECeutbVkLTPYTraCYGxdzTrFJVTeyg4GKiFVSFzcHC5J3UmppKrYM4S6pxgFULETkEwbKUNwRl5y5W866QqF9moobhZH3+FFsH8fh3g90Sc4jaYRIUd4YsCWdcEjVEDZRkaQ9uXXeI16kHZlSi54bbLndFEPjy6FtZBAmg/iYUkYoZWeUVCZ/UH/AyWgtcGwwSVTU1RbjYoCyxNXV4DFfY+4+zEr/MrhG2qUKUZbi54fv8dJlw+4APjB/jZMZIJwOhEQuhS/8cwK+mnUvzOLYLL6b6ndU0f+UjtkDeoistB5KOsWus8D2wi/H4eUMedkUbYWSgCU4cSqOabJHuuncttZ5/Lc2gH3eL8JqOpGAc7OUGFvur4pWN4CePj1ym0TnO+wg5opwov3scV+v/edVd+j7dpQ9iH9ODrdc4Y/j28oGEpxQks+zQAabYRAaDr7RvlVUdSz1yy4yGnAEmrpY+uLWY/uq9W+nyzTHOtJjhDJ9ZtrTrFZSyl+pIM/rTre7edOayI68vDbx+PL3BMSX648CkCQEDmAqTqpvKFei9oNHZWzCDpbY+q7cV0/CAnpVIu9hzeKs3FYVEECUGgSjmNYEBHFL6oA62pjiWiDkI5W2OpXz/5kx65+pEOndrPE1zEuMgosrjWNvvx7/A3sRqGZ2ndEyONaRrbYlGlNv+6RyvHkOsFCNXX077874vtzWgs8NGlvMJ0BApws0zNGEaejmcai+HTQ2m+bvnmfRxn8ypjsXUsfWLY4J19iFYkvBF8g3B5uRB9M6tCQxO515A3unpi5dYiUJUKKy7y5UpjID+EjCWjF0ZDTz7Jdwfzx9LPbNH09otThS9eSENIB0QE9xTvsakpCW2xlpOfMbbhnLYNNnzyjYVEyV4RdtM3nJFY0P53wIPuMSj5Zjf95brLpFyiJoeVB+JO9tTzl++39ROXtiGzV9SpO4sr5zP9DJTRSsdDYW0yF0w7nhpXb+UakdO4+jpGFtO7/CRnMtB+8PRFiCQOcIiWChGA9bwwmkrYosmjDVkOiQQLZ1/hTToANtST6X6OAaWF3/GAWZXYSTYzRBwgqHHjqTO8FwFprbKb3pYeND3mdduDuYG0aDW/UqjVFMhwE4tXEovcCZKY/gVDlYb4VTGZVQX86HKkimN7wI4CiiElTZLNG9z6OjPjCOmN5ThXcR8Qb/tCv3GQrX2kHpIH7BrAzn6cpssnX2Qv6sM985vrMFwDUJfh2AcJnHydO7ecvrqnoF0KMacI7cIqip8aMIkdENX69hBOFrfGW+lP//obrp0bSztZ4v0kcV7aYTFh1K8VfQifaQ6wm61GluyrxB3BnuzH9QH054v70nHB8Vm8ceeci6Q1XfMqozcPWE3feun7tVMtJkTYjUjMouUIUWQ5IMscp/aKrg3f7kGY8GKYxFu9ersSnp/Yi69d/1eunrnXpqfnoNgrKajHNYz6jZKjrMehbgUTpr6KYqpjcOMOGmCyUvmQzObcmCIlUYZdAcCSC51JOUgFpcDRKw9d0ZseUCuJyPPlnirK2ckcWeaMM5cL6R947hqrwyNiUm0/SpfOpsY6eJn41uCAENRPfZWGcAiaol5TrRcRGzTHLvOHDMRbJxUt1RdVGEp5Tpi6tLWgfgaK9QGh0kt3riTBk+9ztY4JA0YH64B91g1WhsJSQ4jIaPIBGDGlb1QoFeRcOCH4ea7qTaPF0oI0wr9tAax6cIZU5fLnCAo9GW5AcRuCSHqjNmRbqXFfIQ4IOdS2K5IiGQmLIh07ZAJcO4L+2j9Pid6yNUJK5fzkKQbr8WF0kflOjcSbHNn2+0fmWAdXtGPHr6mpGjp5hmcYTHR97+ImgI1Xc9lUJ5dI/AA3ZBue101VMEkoY9Ghyxq2X/CZw1pjupAd6estg5g/8FOlMXjae3qnbR07RxeOjFOhei7nc7xq5opXLOLB4HXvGiHzm8pw3Q9Da33/+YxYd8AS+CinhyEYfzTfp5bs5OcuYGjp6MvpilcEI2ipuhFzdKAeXDIRp3tJsRkLKNI3geFFojIJ9EIYcRPUf3mLL7fSfBzSv0ZqNcx3uNbTUc/2kb/ORY2sVzt+spwsdzYsko7NqXdrl0ddZZxTAbPcmuKdUvB7ed4wWDHw1y6dHMyjZ8aTfs5J1twSJ/16qIzFtGvYb8zkpbwKPsBOy7+DIbhYxZwo5zd89zSjbR/eYx84Akn5soGyPBpL7MHvNVQ+g50+mdXetKhvT3pN18YTPtRZbboRzyv0I96qWWpSN93RRt3CvzSxzyFtxXT8JBOA/1BElCxjs4b7aSGWT1MFi1WLqxHY3/vGgN+HsTk1Op0dXIpncfz3YdXZtLNKYgj1vGDzRmYhYW0FzHYEKvjHhC+zp/W4U22ZRWDF76VMpF7RYtaIbreaFyXRKUjOEhybEyuDLI8WHPSWsegLA/unMbv6AzuAOgMnXm3y6duN7cp8nfUb1xMIh2FF4Nuc6R02FX8KrCYwVHOrI6TWMGtjt1AHGlfQKRpp8SsHJwUbEOZKCrel4goQqzJFYzjbOgeZ0SMjKRFjOdSfZrJH/uCNVaxgsMC4uwA8jUPp67FlzFwO5aa165jhPkxUg4Pu+IgJHoytnyiwohdAs5SZg34bYJExOefgkGgOiLotbix1XUJUFF58TK+bqMvch8EYXY11f50+yu/y3V0XtffkyfDrFNi0Zmn/GydOZ9tXC+vnGj93oZZkW2X2XYTag9jh8O8kMrMTl5Ky5+cSANDv8rhTl9Jy6MMHs7jYM8iNgEYsSIHhj1gAg6yDHMWa3qYdGDLhOA+fue8VhMJ0PJJfGC8wm4JGPeLZ/D6eIf86rHZMaFVHfjQaErk6SltG2xXwLhorN+Rvy1wxjqIK8Om6JMivb9RAm1TUqSRnO2hSoKqJM83wdX45A2kWrj8HhpELI6Yew1JQxhEmnCjDU6KccKpH1QKnfClpmh7GfauezuD6TpDZ1nCoDNvMMt8dw62yTRKFwoJQ9EHnfm20Ip2EbYj6m03MWDbLjySlOpar7MNA/PVhQsvyvlMJys/Ah3tX2Xb5fhM+mSqmU4epn/JW6yh6Avyu523xmnAq6gRLs+tpR9emE5nP/HMkTnUEWPpAA7zNKSe74MogFOFihC+FVVDA4PWvbB7KxhK35ztSj+60J9ODjfS148jtcDWQQdvMomqQaxHA2z7voxXtvVZDBXT8JBeleat9sAcQHyW1W0jXg3bAyYy7b7vYOF+a34+3ZyYh+ttpgtsKRvzxLuVlTTCtsCTePLZF17hEHlxZgEas9B/1WQKmCBWaxBTuFf3siMfA4kHIHYi4sbgfWATM83gSq5YJW9Kv10xOU87YbHjY1Ou7XF/J/k6iunIEm87CVhHliINv2qJFfcuwizM1Ibh7lnsj19LrZnbfCdbWtt67RirpUJkSmJ6g4j4+TIRfqPTSAvmzeOtawtjceBT7Qg+EgZeYpUr06CPBK2skfLQL6vkX2se4OyC11L/5Gm2WM5w5sNHqDUmSeaJk5RNale++m8otguCMCCN310GvYSv/N32VY3DyGxhTGKRWAbVjHlSoZSYmDpLKz62PKkVMRu/nfX5JlQfXLd7t5Hz/ne233+GTkLemcuvEuKuNSXzMlT2A71GX2DPg9+E5SsXOdTrldTbcwIfHLjbhmlo9WNvEgbF5GeMWJuTUvSJRqYwHGEzghvvLoxYuxZOpv75F/BlMZiWLn2YltmNMsgOGZUE5pUx11ZkDSLvDgy3XUbPFJ/B/UaIr6ONOw6RlJrQV65AH4pjsPlW6hAD5idvhrHs4p4vp6lmI40wpvud1dwySyWxm8Ybxn67qOJ6vwbQ9GAcRAvwybCFQYiCSgVk1CmSFy/a95vykq+Mn6USgFlmHMgBIxH4mhN01ke85YThMPXkdpp8i2rjPrBebwdMw/aSSlx0YSOyBwbs7ux0+vjGVHpz38G0v4fJHiohjjXBD2m1i45rC830l+cm0k/OQTc4tO5YGkt7YRg0cPdQOJn2FsxqT1OcQxKpzRp9UsON+zJc6izuxW9P9KYfI3E4vP9AOtFf4CWzAWypu7S8I2wDi+LFs/VbMQ0P60+QZw3DqxYn8uE5IV2Hqo/jiezmbDOkCtfgcm+MTaVJON5VCGEX4qz9ShXwB7CvOY83R0So6lZhPJqUITcvcq2qhwVZ9RboQBTfJDax+zcmDQluESQp5TEfsRAQ42O1T/4VCRFEqTwwzRODt12OFwdxe0qNOvOr9YFqGv4685lOvxPFW5+K0JlvCwNCfda5idCQtdxOSyogUJSZf4WJBEumYaELWwY8Ki6PXcaFsjYGkGXecdk25PHrt8Q3E+FKZIUzD/S54Uqieet8qo29yAFSMA69txFxYxDJlq4gIk32+6/uR9iAq+jJF1PtBs6Jzv4k1ThZskdrKP5j+4rU3V0XNILjqYWswAtC5zfnRkQLNz200ylIdXqxxmip8wkTnB9V5C8Ie3tSaX9pfHfck0YYGCTA+d7HTb0bKYB5AbNMq80bbS5ex6/1FeL7UiS3tr6A5QZertcd70mRC46s9mgAA7zBht1Vq/YHSG/0steQaZ7ECdKFH6feoV9MjfopeAuc7aQzUGK2oCLZW8XpTqjpYBZ07SukZERUc7SWR1kccpbH3MupZ3wYCQMMw413sWuYpZ+ZCJhUtGyPBaC5PGRMMZPMRGdXrMOtBM/4ho2EcQf8OoOtUjbkrhnmoJhsRI4u7DG68MWxMob/lWMvpYEeDsaC0Vylg/N6QCbOs0w0m5aXEPa5xmKi7qhPcPD1IU2MviMPGTdyFX3UOQYtq3hj6zO+bMWR2ImUP7CdLHKQX+VeMJ00sFxfkZyYnJ5rgVVFhCpeg5AXVjn4naawrJw1vxOvoo+i3Tm2uFpaE1zoQ3I1iifY28sj6ez1O+ni0cE0fJjtkdHhsg0N3EzX0yXUxN+/dCv9jzOcrLqwkI6tzaSD4EjPyhJ0BVxoIDlgDLtA4ISUkDZ47ogHArorZpD+OrQynq5hR/Pe9b50+vhIOnqS3TC8U23jd3Rp5OaYLcQcmxv8DD5VTAOdCg0LJC0G7MaQCH0paKEIanF+LZ25NZbucfzxhcn5dGuCg1OmYAbQj9fw9tGPS9zh1lQ6CLLtg2D0sP8cZ/SBTMurnkGAUyBEZQljKJ0WLSP20mZewy63cvb2oMftY5Ui4oGMDjKd+DhuVpBaOJtsGkORbC3191A24rdwu8pI62IgeO+gW2Er36oy045RKZPS14M4D0dJhlANBEHayNdEbFcmPhIC8/XgJ6GGcyXVIQYJSeSnjlXqa8EklWdLYSqh66G+Ovl80rWjRKjYp474kHKbbC0MC1OJCPBxQK6g067jbGWgMZBG+mHacG7UZHvqCOLebrSaTdzzLnE0dBBrKHH+TImO9fVhuW77FLN24TCgB+K8VIM0UNfK7GKsBJcuXUZF8SaT1mkc8cyknt4J6uMb2b7Xar6AVupLTETs38aL4/AMkxmrmxVWIsuUoYOYblVX9H8XZGxouK/AI+oLatKeHaxvEWlUEF2BlgN53ebVPzAQeCKc7DeZDb/F71j0+yBqPhewbBcNXHoHEPXTD3klGAwcCZ3AFjESW6UPN0/sVtOdeoFLXZwJoifOADvbTN8swvgW+EY/2RhCQcRt52CBa1vysapmy9rKivp6p3ZD8SGOpv5BfCT0KlTGcJWJvAGDVQuLX/iGxctp7kJXGmzAOKQvQbw5ubQf7K9x/Dvw62PFqN1PnAfghECbWnjyXGgeR1WFymh8P2d/nEsLl7AzmbuKm+E6fTia+tEyrcIoBOPGj3wdjQB/UGEsMDZDarGBM3xkajCW+vrxj9Fu/jol4J0wWVpCtQGyZXjYXxbbi0+NgRG+keb1NFE3MgZXkYj04zt8gfHe5HTVhd49OCIaQJ0JjgEJV7QaZtb64D4VcwOuYNjoh26t8hlLTeq0vugf2kCPxHf08r7GNsPonY2f6Fvbucq4cBGhatJvcQ1ibulETwPAEB9Me5sJClUP9YinMjUG68pBHG045m0woVC9WSb3/DT1v+EulnhLXMSDy0T0Sp/AOb+BNXk7RTQhLXMmyyq4bXuEv8F0Ptbxl2B7N4Kla0NEvzreoDPumBjoXYYWj6V/ujSURgeOp1Mj7Hegb004MbGQ3vnkTjp//RZbo5fSvvpsOjgznQZgGIR5k3a5Fb5P+k2vrHlkJn3WLX0mXsVjY7me+pswGN3j6cZ0T/rwxsH0CwcG0vMM2Viw0arAAnAsumKjwc/s3a5nGsRVh4mDZWVhJSbTejGCQy+2KAIx2SgS7e3rTUM9A2nlk7tp+dbtNMqe/yGIwxCShF6Qcggk//prr6ej+3EaBOKuMMGssbpwO1ZzaSVdOHcp3bl5zdoggsWgEtUGB4fSa196Ne3bj1FeEGSGFxjoZOqAvnjxcrrK+QYO6vWA6K0HV6evvPRKOnbsSB5zDNACdeWcr129kS5dvAgBglK2g3PDAIZ/r7z8Ujp05HAM2FpUVhAKs1+5ej2dO3+OPe8b9ZmvBz/6p06eSqdOnVwf0Bpn1ZiQnXTu3L6TPj57joncHQhFcNXaIN+LL76cnnvuWBCrVYjPKvCpaVGO+O/u2Fh6992P+D6hodhftQ3fzt/R48+nEy+8muZxejQzfzA1X66nYRk1jJCu3LqU/vL//UtcynrKpcSXRhJklF56+eX0W7/1PQiAKO6+loIY6c753u2b6a/+779AQjSXmtdwADTUw4R1NKXhX0Q32ki/+txz6RC2Jt34Z1hrcc4F22Obp/vT8rUj6f/74Q/ThctXYSqEM8SLKiHRaQ+2Ef/m3/ybtJdDqJjFqQ3Qtlce9+7eS9///vfpj2tBFHkFofFfK+07eiT9y+98Nx0/Tv0EGYAombwzM7PpH/7hH9KHH37Ip1GRBJWrXzm6dzh977u/kU48/3zxrk3mhd/U9HT6wQ9+mD755DLviknOsiXIh/btS7/6nW+nF54/RYTt8EdcxC4HV7r/+Hf/mD44Q18wHmJyiPo4GAhG7Vd/7dvp1VeYqPnnLBffSGMWlhbS3/zd36b333ufVshEwpAEfMDt4T3p2//y19PL4BtTb/S3qgMHnavQf3j7n9Lf/fQ9tl7CBM1/PfWeeDF1jwyl/r5b6csnD6Q3DhxNw25npk+XrZZdNC120Jy/tZLeOn81jZ37MK1ePoNbb49HB0cxePvmL38tffMXvsGMDNNEnPBy+myBCxc+vpD++vt/nZY88TRPmrTDjvzSa19K3/72t2GqYP4CbuIM+YDBlSvX0t/93d+nu7dvFXATZgCgGzh86Ssvp3/xnV9LffjY8LyUojbrXk0/uzeZfjw9m2aWDqep7n1pGNG4u4HqiLwPgiunGfcDTJCFwBvJIeXW6fuJ8al0ljE4PjYe/WP/16Alln7k8HPppZdOwxhr91GMW17zvou+n0lnPjpDfmx2XBSIiwKASe0gHkdffOElmFsYHL5dxkEQrKwUTN/58xdjbMSoz9/HN44M72U8nUr7Ec0bNqSEuEuHBr7/wQfpFvSwm1W7h+8BkpCoDvQPp9dffzXt2TMazKT4l8MKtOXs2bPQNeihnRRBeMsw9KTXX3stHTp0kNgij/HSmiXo6HnyXPvkGou1lbQXB2nzcGtvX7+KU7Su9NsvH00vQBdlXRs9a+mVg73p2OhxUAEm4tqVdPPM9RgTMlSmkbFW1Xj6xdPp+PMngpZ5Qm7gMQzoKvVdw45pEQdQ04s4grpzN52bHk5HBmAzwBvtGVS9BU63v+JZv0hRd3UAZ2I1MjM7l8bvcObDocOsZGEjQVLwPyYwaZya7hF0pfvZwzvDJDwwN81KeSn1wjRwJA4rbHXbDcSQNQjlMMY0rTQQo9WB2Z0WEI3VkS6waKJCVhlCnUEQxAAE7u3rY3DiDZC0MYb4EZldTdeZdCUK5SAhW5NxYFU8ODAEs0CxsaxyvcKky/s+B4+jrRSKHSE4Durt5TuHWNWQEWlHSCeCsWclyhY4xkIwU+tZrY/29rFyGGDl2IA4O+wkOmHYyM00xLGzPt9pl9DTQzsHWalCyNxpYn01Vqa9OHifxgYki8StNzT9dMwqRH6pdzgt7t0LvDBMgtAPQWg1kquzmltY5ARBCGf5C4vJFQkMhP/w4cMhqXCirUkAgL8gWkV3Wa/3MslgeDeN9OLMu5w+OZdqe0cQd/elA/396RCicnxPIi7HtoHvbPDNs/v3s4JlKyb9GgamAW/xBBUFlHIvzOLRw4f4tmJCyQRPmNuHncHsdRiofeQ7fPRw5LPvw7CKibe3d4rvYyIio9+YGQaJr98/umdvOgy+Ak2FN+QHsLwTJr19SnXM53RZII9ldDNB7QeeR2BWIrY9qcpbzWC428u3U1DkLf+46tuzZ086CCFXmuX3i6tOqrNz87QVSRo4YB0G2+g2tjr4tQ8G5+hh8lGu+AZ04r2r4gODw2mA8zTmFz9Oc5zw2pg5lfoO702De15JBw68mg4jURgGtiu41l7V+FV7BcbSncvn0+K7b6WlGzdTP889rDxBTyZKPATSVwcOHwjGtpCgRIsYFSndvcnkRnn+Kwfb1McYdKKKPg7oFJO4k9UsuN1gUnQy4et5K4wohYm6H7w+uO8AODdIHPH2P/1hvltztPf8J2np0JE0NdLLeTIDrHRRZQLvLuobGhpOI4yNGLsghLijNGgJWCgVcJW+4sQGPC3aMnvA4yHGfJ99nD8jPh4pylI7rS9souV54bEBI+wYHKFOogMOJvFB1UQvtItIEJoyiA5bEt41GnwjDMDwMAeoiZ+2xQSULMNYA/nikXfWFfVy6ZU2IdUapb7IU6QyBd9U0DXjm4oPCDJLhhrI2EDyOsRiSqmNDJxZhU2dk2D7wSFtF7qQ4uzFpmwVe6exqZX0wYeraS8EZAovjv1IE7rBzf3A+SjftbJMXwG328DJc3xoEPSaMnmG/KUG41qY1tgxFbTQpoDPyxjO9iHl7KPfe6AF92am0t2pxbR8uJ84QGW7+Afa7ZrAOBZ9dm8IpgGkucRK4sK58+kNONzjrsAZP2gk0v/2f/zH9H/9p/+YRodH0/d+7bswBZx7gD1DE6R0pah+UZQXjPAJaZgB0uNgJq+ThQRAJPR+EcPI8qpfqJtP4utgdgKxN4pBGaPEFGluDtFvSVpgPnFaxmEAkbGTRBHsyhi2lFGImpdwFmTaHKK7GTD9ff3tfEX9UaKDk/oWF5tpGbG4AyuH4vsQ5ZHPCXmDcBRpJMKKKRcQw0cdGxnjTlVBjysx/0FkTKN6Yg0jIpQ8aW6GHSWICbU7aLGDRJg1sWO4igOgcWCzcvXjtPzhP2OEiCMgtl82mCBX2V99b2oCxq74hmCIaLNqgAGJ4wjHX1sPI7uGOHKlBwIMUVnh0KjZsXuolvABUUPUjah8pZcDrJj4+lid7u1r4cGP3S38W+N9CymGahcNnqYRb84h+i8DNRggxLd79+2B8NEXgMTvc3LiwkquiSoLL4GItwvimYEDmjGJj9JOV41Fvo28SkzmZmfSPJNyBPuDAoV4N8zXCNINpV/WEV1l9/PSfJM4vmki8bEdwsN6nQRkGmROzWeIvHE1HZMj9S2gagixuBMIcfEtMA1ONj32vZXwXwYx+pM0SjfmmfytIxjf9Xy0k8lGprj4dnJTbMsVKeUvcN7KAnUuU9YiMGzCRDSGj6TBfUdgNg6nwV5E90iykPXB7GHtjkOtNH47Td67y0SBKTIv3KBJZ0b7nWSGR2BEKIfGRTut18lBacoiDMb0DH46YFhsZ4RoK/v/gYuTeBEnTIvvtJglYDKNy/BVcDy+v0gVMJBpGNYFuM1wCJFNnHAsLsA0jLGdr/ur300jSFFeYPfPCQ6k62Yy6mZFPYTapoH0K9SKSCQNtnOV9jnu3aVlO9x+aFCSqHpwgJWuzYvK2h+a881ziqtjUYYjB3FAxtV8wt18RX8UbXXsLCygmmrTGXHB/hWHVZcMMH5jgeHHFRUXRVPu3Bz1MRajOcbyvsCZLurDmyqT/Dqsi1z8YkNAO5eXChxdj+bGevo5WtyFhrCPYJ20SZWt+VZxq77GgmMNic00u5imakPYJDB+Oe+jnzE8zO6KQRZ02EYGs+oKcBlGbJHFgRO87G0sdihcGt5Hfb0usvjWHC98lDosQLcXYGwu9h1OtwcOpX/15kvpf379INtoUZcoEaUMtxKXwVI0+pn8/aNY8D6Tn7bDjwI/gyBNcY7BjWs30olDR9NxVqjr2AqiOqDV149P30vL6CDDDzlcqxID18UOQA2aHCizEJbu+WKQB1Eljv+BUIFcDNg8WG2icYwEVumseqOuYuiZJgh+m9iVCUDkaw+iBQbBzCwEgXKVbhRj2lVelMyqBEJUwmZLl6CZb45tSNZhkGFRZKhKxEG+WZ8YSSKtg7zJas981if9yQZ2fu8W4mDd/F9ASjBPnRIjqauTRoiAhT+F1ICxEobClTMgoQ1zGI5eR/99Z3IhzSMy70Xc7hYpyChb92gTYlUysoIw50aQqM8xgS0w2Spml8GoofqAJ2GFp+EatvgQClfLLYhLjXvk1ZwoyQSMzp1NchTmXg1JCx46ya8kREbMHu/ctaA4Xn3+ndsYU/LP+nPI/RircGFRChLyNcS7d+5ynLKfIjC58VtM6dWVz3owEUEYrgGHcdQ6ll+oEiRwikmLOnIbfa9Q21IjH5PRGAxTVMi7ov/FcVORtx1nvmhLu04J6dgkk92UNhS5nqKlMgqW74rTEK2McoA0k944onKNaIvJij4OuR0TJQkdRtZbZ2dSHNA2A+znJtLC3UvpGhOCx8DLFMIGsjLksCJcrTeWmfSppY70iJw0M7eH76F+JV7TU6zmIfh5FeykGDYItDXi2t8X7W3DfBZmYibGITC2pHbbim9yErWlRPKumFQLe5IZVp/T/AlBBdtKgdbro+3dPSOpefdsmj/wXBqvjaYD9ckEixEGfdMwk/XYZo3NR4ghrU3QBxSjNvtE3IgybSsT+8QE9iEBY9tSMBPmMM5gesso45+MyAROzdpJ4p1pc11WCbhj7NuTSiu1a5ImzDCeFOXHGDdTO0RtFBj1tgvO5S0jBWjC6AUO8q5oWc7J8KVPbGfgGtHmi2+ivnlcO88v0J+kyfFBOyI78GXMr+AvgXOC2Umxih0DkkeGSnN2AU3yMudD6BcEJp1fpZfiiL3XoG9EvDWYgGBuKU+as4RqboHThnNdVmNbhEEcc8/iQZRwv4W/uzmUKNLuBIMrkCUI9wS6Qwf+2MR4cKQNmQNnCIIGToVvedQFTm3tAaDzHXXbGjWJYG7vifTcm2bLxOuoJL4cogri6qV3pBLLA6mlw5nzLefzfR6odqIDQMbBeBE/7Ay4dtbns0RTAlSQ+KJUB67qk2hHVB+t2FSlxnM5mF6GJAYeZQX3kF92XDOhzcTDZhVl4TYbcIQFePA7hVhU6rLIZDmOAeQcq4iVybucFwFxlToiIo7dJjJItNeVhuU5ojPx8SlPmnXK0flWzL0BeuFKPvJ4KJLEpHDpC3OhxT1EQWmE9Dt03tH39K0TI3HtqqxiPbj6sT4nKQ03DfZBDsVkmZ82ruYxXc4Tb2wb7Q3myzJK5Zh2/Rvb99HX7ck6l2c5pstt8D6TbMsO2Dg7WLYw4X1x375GQ4qfXF/UA8EFu6K90ZY2vplf1cN6Od4Tolbe+f3BklhPO4SCjmfLiQk60iMCthjGo4aEfG2MI9VbXTALEnf9/csG0fn0CSon0nczQBWQy8xYKx9DOiYIcCMC98EotPupiNz4zbAKuAQIGFu8Ln97Tu33ezKqrqvz+5r1tL/Z7zQ49ovRQgNbMK83Lqeu0zNpes/xNLk2moZsOLgljrkoiTz2SbQ///oYDSreU2a01T50LPrOQN1Bk4j3Wu53Xwed4Gpexyw1B45ti5ft+jQCV+oXaWEWzGs58XX2+wOCaW1ZLFjK6Sy7FBo8W77t9435DHEVnsYb164voES0auBVFhTLrvgYcwMxjy+Fe27tz9zSqzRBtt9i7NfwNBrJZSS5AX4Bp6jY9+0+pw9i3JuXP+vUZgHvIUE3jDTeBsfV+10Wdj3TsMpMoDj27j32iSOudhU2j33DMNbOGZnDaYhzVOzfVY+ITp18rpTcmx0idVDIiSWPiy0Mg4iVX5aRLMflq+/E9NI1D6YisvTbzhMTzDbp75dPhqEzZEKz3sbchs6E5WfqLwZeMdjLr8r3nWlinDoDM/KCaHLnQDeGoYnIrweX0QPpVt9wiNpXkDD0Y+ClDnKpPbiL8nP9xVP+7fxubfKWNYqzAoKkz3/u2XdC0jjS0B0W4MCefuyGKEnKJI9IIE3NP17ZNe1yuIsQkw13Tkw5dLYhx3det6Tj+yJuG/jntPlqWeX7zufOd5vel8vP9+3rg/IV00G73o5863hrRYRcTr4WsRu/gRd0yprbL5n4u2EU9KXAdA+T0J4gIf2FcoJVJXC3PwJT7AiZBCaAONRKaRJ/HV1TVNZuZ+6njRZs3JXfdba3/BzfT3nluM7v3iiVOyVh4FUvaq2V61fS/N5jaQJR+F5W7v0yRk5ktDr8tHS2vj2+48PbhXaOpYgmXXx3e3LdFga5LDL4vkum436hlNYk+VvzIuV+2TbFd5Sx6V1+yO3eLu12ceSz7TVsiKQTbgvvFk9i4eYg1UETTIOSG1SO7BWx8UWgevO9AAAypUlEQVRtwDlodmmMxrtgNIskfue2sCtew58U7G2kobpcdPv1rrk4BndtkJY4dmYQY09OTkKw1tLkxESaYoAbeB2Topb8np7m2rzOHvD6CtudPJIXYmca9VqKvh+IcbyuwgYEnMD9c7ml61ZlON6v0CF6z5uoD3Nlp8o07qLxjdCLjYXrHolFkdHVvyusrQzQRi3FnZNKE+Id6glllU7/XGQJwoGQzGDRGPobYoQFfB1rzUZ4JoxGBnOopEMGsQqPBgLO+zpKK1w8wzzYn/SP/hRa7pJAkrCG2sI98yv0HzIOMETGHCwgno2wjEd2BvFsHz8cEx5Nuz9NKWJPrGE5nK5175O0NjORZnApPc15BmKzxnqIKEn0gEn801T4DKd15CnNXe7RlTOG5TBjhQGiuAOktV2SPridlzsFv/kvHIM+w7B5nJ+2q5kG8Uzd/yQ61yWMaxTXLbBPXaZBkbNhhUnCO1cEq6yGVnFQ4ymWIq/OahRjr8bkVfEMAbAd/ATDIEz516URmGtHVl0S/yYTxQL76efWhtCljqal65c5WfIGuki3jSofcDUA0NdXlTuZxCEi+MrowmRd5oDcUbdN9T5WLMSr9YQtoBkYRMVZBa6AjZO8F3l2UpvlVmGHELADgvFrQ9ZJFDe9bJGAacAAGIZcuwY1U8wMJo7/dElMGMEqMEaLN/4+OaFoDaypzA9tbM3cTK271zGixnCv0Y8KTpkJbZdhiG+7f9vb0Ll/gl30xq23HjIZ/D9XccSFnbsgPDTOvRX+SiuIauPGLgLQF/ypu149MYeB3nW2bemcxEHexNJdA7MlmIfuof6wE4iJykENQVvFUM6rg1w9mPrxYhJz+D/esJP6dpLms7b6s5YtnJ2IiwAMY9JgtciKUnXBPNta59dwp40TreW7VzgGdwy4C3J1yaqJ7Aty81dM6e2i7nMJb4IhAicL+lkL0cEW3RdB4mN7VmEa9f4ZPUr/qpBo0bY4e4T30CXemcnKq/B5IeCQ0guKDLl3xbkldHAYEWnDoCU7Niv0SQ/qK8+skHnTMNUs3tNBxRiMwqKDjH1iQvBAtG2Z7YerCxPYNlxLy/tfT9PDvWmeHTCjGNBKS4ItjXEgUIKixDeIbTkoifHdpw3lMj5t3nL6R1VOucxPfW/fYw+i46VuiAKokZZw0KHUUYejvazipNfhJ6TU4LjdAehKWTaaZmQp76Y0He82Mj27d4+NaQhOWwMeCLP7s/VbkOO86sHPvwZbwtS5m04dU05TNtop6+SNz+nL8XaZ9fjn/mtDLjMe2j9uLZyZmeSdhjGKPfEbwDa+JcSJAxjhGU9ke6oAIUESx7YCsMKBDVcNmGQgygU/jvs86z2orp2keVD+B737jGWrw3ZFv8KZG6783QHtNkwP89E6eQbR7UwNz4D33kGcexM5BH2pgSFwbzDnF3Au4B2/DwG8Naw5EcVV7oNb+jRWqX4f+YPU2LemIUoJUhHACSN4E5e4K95Uv58PAgHiAC6QDc6BPlbHbF8JbHBDO4U8smQSQj1F3/nOHrXvZCQLQ7bcQ754MoLMAPJIfAr0pl40cK2JG2mRv9rIKVRwbNtL1/B8ybZDCIoMc2wNRTIhM+R3BSCCcY0HvjOWMJ/+4z7jWN1S0aMqZ0vBO4ygi2PHBfBxpIoukBGkOeCAeFCAicJIGAhWKnenbS+lC4zih2km6IDo6gJGSYfvYh6IRKV6nvHbx8Y0OKFnBuDGjRvpHK5fncSzwaD3x48fTydOnAhmYTtGoMwUWJZhuzjLlFm4ePFiMCevv/76OjOS68v9qo+DF158kTHK1r6bN9MRnOWcwDNYg/3TDviiHgazhAosDGMrviX8tLcRR+LlWxGoCjuAQEwErBQY4CF6BnJO2lo1zLPNYQHR7YJbO++dxZKe45LVb/Nevw7h6CWGK3mJ21EI6pupSamnCm6gXYT6UEJQno1SixrMU4UvAgKZWdsoG4iXV9P0keorf5U0GeyNSNLulqLfnjzKHS2yjeCUvkI0+m1ypHtzAg+Dh09g7LsHfB/nvAQOS8NGIxwZBU6bCWbJAtZnwXggogqCJCSVgMkh3BMcfoEMxe8XA6OsDpGSqAqRDH2R9X0xX/H5S90h1f38FVlClhzMsB/6DqdBKgE4efIk7oWfYz9vM7333nuxp7vMCJgnSwi8Zn/6TuZh7dp+b/kyBP5lhuIeOyJkUDID0skw2Os6O3nt1dfwWHfEItKRI4fSK7jK1flR7OeK2M6f3YgqnTD4bM+SvmXEBTpw6sEaWUMljRl7GP1L2DLcbezl9FDge/daWrpzi2OpEUvL5rdHqJqJ4q9g5Apm7rO1pcr1pELA8ZX/ntQ27rxdSkfilE+Zn+UFTr68ggSNw7qQKGjwy4HZMNANxoPaeIxw82TEmAiVBFUpX3AUCJUqbIZAxpQKNpvh8kU9PTZJgxO+wUnfUEefp5tfGQbfKRl4++23YxfDftz1yljoFMZ41Rb78Jk/wME+MgRj2ByEM6R2OXtxizuMNzcZD3dB5HfzeCe0bPNYr3VuDvglgMno4zx1XTbL2rtnWte9nj+hWNzgRFeFRwcBDUe74BYayxJF4KzRKSN+oXs43avvSXMemsQJlGl+hhWaBLMglvaDhME83ufnilgAjCo8oRAAV5WsIUlw224XuN6awhjy7uW0OPpmGquNpNGuuTTEiY2eRyOGu5J1JS3DoAheSUqxun5CP7Fq1q6CQOcs+oV9fF7tKx0wOInLEHj1b47zB3SlPDo6GvcfffRRMAcyCh6Kosvc13DxPIV73AsXLoREwTJ9Pnr0aPrKV74SUoUzZ87g5rg/GIWbqBsOHCgOWdkqZbAVMBMoxfSz4tkRXYjGg7lx8NpOt37BSGw4VyoYH3NW4bNDIDxBQg7dAqnIj2MF0iInzE30jqTZroHUnLyaVm9fxNObjnyEv8ycBFVC2iaqbU4hnAp99qZUOSsIfKEQCKxFLYHILHZZuWW3bxEX33dRnR5/MfWM7kvzy7NhiF3HpifQHKxfRaUWh7bROuNUb3DH/zbif6GtrgqvIHB/CDw2psHJ2Ek+/y3iF98J/u7duxF39erVpMRAxuHatWvJCf+ll14KSYT32kAoTZCp0PZBKYVMx1tvvRXMwrFjx9Lly5fxH96bvvGNb4TUYQKfCzIk1nm/oOhb/VSWNBRWzBrJMTgZrIUKxASWcP9y7ld+Fb8ZAoJRr5OuoBZZQjV0BQ1zNtXTj5SBw6s512H5xuW0NjeGy2isHOwGGTf/eCjU3Qhr6YroEvukoLSbK6qeKgg8IRAIxjdwFKoCHjdWF9LSBOq3uxhFDu7HZ8NQ2ruyuH5OQjg6k9S4jTC+oe1/4An5nqoZuxsCj41pyGCWefDPXRJDnLIoE+Dkf/DgwbBzkGFQeuCEL0PhvZIG/1Q/KHFwIr9y5UoYOZrO8mbxsKY64tSpU3Ean2mPHOFkOfI74dwvFJpCpAzFDFQki5UBt85nxvhz/yJMUYVPAQGPMF5W/QP2OfmvcPreXQ6c4ZxJnDmx/fXWhdQTB+AI9CC50QdFF9AZ3OhboU2H24zEp2hAlbSCwGOCgKQDeSXSMqQH4fMD810Zh3no2s2zafXAyTQ/2J8m8YBag2YNYexbOBpjYMgxsF4R77XjqXjjx9RpVTUPhMBjZxpsjZO+dgrPP/98TPJKAjRa/OEPfxiMgkyAKgZVC0oXfH/69OlgMj7++ONI4zG9ptNOQaZAxsOQpQpKGMrPxm+voohk1c9jhIA7TxqId9w50cSx5gQnQ45jy7BMFzaxZaizzZID7NpByqlKQuZBRgE2Dwoa/0hjXMXRZVhV1ycNAoUyDVoUWyXZTi7GdiFVQPW2wi6KVbZfzg+8nKbYUtzPeOiBxaijMu2GeVCVof2PuK8nzHrFNTxp3bsr2wMf+/iCk7yhPKGXJ3mlDzILSiBMqz2DhpIyDzIHMhvXr1+P+5dffjkYDpkPpQrmcTeGkgUlDvqB0JDSYL6KYQhQPBE/8gPhtw1/DUugxDhHZs91DbF/fZodE+exIp8OpkBmQJbB9MFDuNriXxycQ0RIG3iuQgWBJxYCMACyuyEOC/8kOg+r8w/fNNMcC379UppdWE4z0L557Hr0duhyJxzHkS3zCfAc5Khw/Ynt513UsMcuaciqAhkHGQAneIM7IpQqaK8gw3CbY4a1eXAXhWlUT2jj4C4Kd0do56BdhMyBzIYMw6lTp8Ku4YMPPgjGxHSmN1ivzENncFpahulocSy0ocWRqR793OhzpwbrgpitOnNVz9tBQFA1sVMQyp4BpbV48dSWDCAhQFDAH+svV1NYlC9zvsQUFuStJVZTn3yCZTk7Zsjc4Hjb4ty5gt5GzwUBLoindij2zU7OntiurVVcBYHHA4FAeMaEPl4KJlhKIwMAi5AWxi6lxthzaWnwdJpkHAymSQyA2WnRhNlg+DQwgPTcFD0eevqq3lBjLDyexle1VBDYAoHHxjQoUcgMg/YLr7zySqgUlBIYVDcY7ySvVOHNN98MGwffZ4mD773X98LS0lIYTb7xxhtRrgaU5tUQUgZECcTXv/71TV4mt0obupBMzKR3f/ZRug4Tonuxq9evwoB0pVe/8lrqGRqF0SimvS2QqyK2QMDV0CoiVo+uxltGLJP0ntYF4Qt/DKyvPMVQk0ZPqvMQotnuobTAUcEtfDLUWHXVl5qpWcfQEeYjSxIowtIihMtp6XAwDO3I6lJB4AmFwJr2USIvk343h2vp0VHZQ4vjtFckLotjKd34IDUPYH81ciCN4KZ+qMkx8Oye0HOq6Wur7DKDYZAF16FZHMr0hH5v1axnHwKPjWlQepBVEU7+qhyUNmQJgFclBgYlAr73T1sFn31nGndYZOPJrLLI9gq+V53hFkyD7x8WVin/8qVL6d7EpEezI+G4xTnwKb3w8kupZ1hVSrHjoyjH6asK94MAPFcwC0LJcxo8MVKaqVRA4y9XViFidQkFPkzX9qY7PXvTMkRxEVuG5twN9LmceLmC7pf34da7XdmW1dWWiPu1qoqvIPDzhEDbFocmKC2QgygYBwYFOFyHBi7rVnrsWuoe2Z9m0wieUcdJhZdIGIsmTHhDqRxKCzzNcK1CBYGfLwQePqs+ovZlSUN5tZ8ZgbLawIk/BxmN/GecZfhsGTmvcd5nxsF0Mgs+GzKz4tWyy3X5XhuKQ4cPpfGpWfw1cNQqXtr2w5goqXBU1+to38lbhKLM9kN16YCATmjqwl1jRf42jiuWYfA0SyAqKFE/LHTtTbdbB9I4jMMie9YXb35E3hkOJqKP4DLmXWW1HeJ0VFM9VhB4aiAQbEIgffAIChy4KTjeOACN+yV2ftVuXEiN/SfT9MBepG/DaaQ2H87lNIDslcmWIw/SWHHLT03nP6MNzbPhY/m8zDAoYXBS9+ok7mTuX473XX5vfL7PjVT6YLwhMwX5uTOtz77LEotcRr7q/fHA4YPo15GE4DOgjq+AI0gq+nEvTcao2zKK8FjBlZv4FF0L4tYNgVOiIMELGgkctQbvRiXBpkrc59bSeGMojfUfTkvLrbRw7YPUPXubHRXml7mDWQwW4yn69GegqdV09MV0IvwzUgZUEuC096J2jAzVePwNIOFcQdLQxG/DEidXjfXtwc5nkGS4V3dMrKrsY0SgolBuUYUHQ6AN4kjkvfBev7Tvi5jq97NA4LHNgk7ueZWfr3kFn5/9AONkLvLVd/neeJ9z+nyf33fmN96/XMZ2AGoglTi072Dq7e8L47z+/t40jO8IJQyFFnGjvu3yV3GbIbBWh9QhcnA75Rqwd8Qi9wkiqY1CWmukxa7BdKcxkhawXUh3rqSuWzjlwuFNPZQb6HqJVjKh5CIHGb/MGOa46vr5ILBOP4Ht+j3jqwqPGALgvf8KbgF2gVu9zMpcK5lzJ0VjFodPN86nuYV7nEcBQ92LbpRR0It6dG2tHymoQuHChPIRt+6ZK062SmNrCH/xbW1Jj/TDQ8MMn4aWuAQqQru89lP5op3WbgkFBB/D15Yneif/zADkqn1fjsv3+Zrzmz7HlfP6/n5/pvfvfmF4dCjtQSVR4/yJfXv2xvZNbZtpUZR5v3xV/GYIFINVhgGpjX9IFGS9NIwU0VpdDaQMA9gy7MdSHGdOc3gDvfSz1Dt5OwhnN7vUE46edKGr/QMlbK6genqkENBFumOmG8ZZ+xE47EdaflUY8xaDwpNxa7HdB4Za5hfA6Ba9gDbyB5mHFQyD710OPyVTvL9Xx710V3+hzmB0rGLfoKSiCg+HQEBJOMOQCW/ExbEgjMnfZ4J4/2kYBzsttnp3Mye4IKKMVeuI8qPIXfOzy6lEMYD7e3UktQ8DSA7G4rAsVROBWm3DpV2DDZ/7QxlMuq6DSLb4E3wBQk/3g8NfhiFwt8Rk9x587dfT8p0zqXn7HNbh7KBhMLa6WEnh9GZgsDf14yWvTCMzQ/i5m1gVsAkCElZtgPoGBj8dEd1USvWwHQScvMR/nZEpXvCE9hYH3ah86xseSvV+mGQmnRa2VChQU21+Ei+RH6fVqck01z2K07ORNK/Ek0K6kdCtMWY2DYrtKq3i2rR7Q0IsQ6yNWk9PbzAShdRn55D0qAF4DJg2Z4WYGQLKRf9SmjvGTLBLwq5mGoJJ5NS5Rm8j7VXCMDwYEofeMIJ0tRtjml8QInCCUb+BM7sERXb+mQ7GblZUEkk9PjYAcLjQBZBNiN9cDXe5tYE0w270JQjjyidnOSoYN981VUPdWI3Pp57eVvrmm19LX/vFb6Y622c37El2Psh33uLdndKVkxI4j6f/pV/+ldiV1MLO6FGFIKoUtluvAUfohVsk/dNuqo707eCxo+mXfumX01Hc3K/pg4F/StdqSNfS5M20wtbj+UV81fTsTxM9fWw/RnUXp+r1QX92NcneOWpCe5QCBI5jKC+s9+/bT2cEVS8m+R1K1lZhrJvY0bXY5SWNUyjnIXqr/vHAo7zfrgmPbffEkwpROX+8GKe9oyM4ljoW/iJaitNVZ4AQKjVgJGOVwMwWPMP6sAVRgiAG1nj3JGGObbFNjy8UNWripZRBsSsTkIOX50WkDB7MM94YTovNpbR09Uxq3bvCfnROO2UFZa41iGZvvTe9fPz5NAPgf9r9NnHqdPkSxYl8yqcSKX4Bn77TXs6QLyQt92+I+u2Hpbl/7s//ptaoQUz3pJdffiFdOHsmTYzfC6dC0Zc7/dj7NSMD4X7vd0G8k4xsQdAM4NENMdmHzdTJEyfS2O2b4LUqIgDBONDQsZszKVauXUgre06nmaMH0p2ukTTUWkyDMZ4g1+vE57MArxihnyXn9nl2Ut5O0mxf+meNDbTlx3HlpN7DjrjBwWEWJCvpngckQpdCOsD7UF88sCLoEttclJR2I4leY5F55/ZY+snCrfR8fx2j+UNpaAQPxtC3LHEo06isBsmSiPK7XG1+l5+f9OuuZxo0lHRW2jMymF595YU0ugcEYFXsUJdhaLDyquGdTccDihe1dAgjm1LPmo5oggNk94Ygj6gZDO6W6ELsis4hNbFjmKuNpns9Qxh59aT5yUtp7da7qbY0CxEVZs1YEXSl3rS4sJLe/eCnrLxq4ZnTsgqvj0IeMEd6YwPgvu24L7/zPveJ6cv3vjN0xm1XnumK+mLQ5yxGbxegVlEKPzIFDws7SfOwMj7r+5Xmcrp180YwxlO4NZY1y1424zMf2P7NL4un4je+PxoVpXBnfPk+t7gzbiPnRnrT5rrK6fP9du9zXLk843KeXJ5xOeR3Puf35bicLr/zOb/PcT7ne96Cr012DYkRxiJvSPduX0vvv9uNE7q7kB6Ya164q1I/DjWe0+S1tHb7g7R44BtIGhg3eKntXZ3Eh8ki6U38uTgHG/1Mh6JHgBNgqsk5sCNlcnKq8LljL9R05Y2ptUDn8UEhmDrB3d2LkIJeROJw6dzFdOnsW2l/90x66YUT6fBz/LHQee7Q4bSHxaeqECV4ZT9CmVl4kG3dg9rxJL3b1UxD5vDU6w4PccocyLGKCEr3045kO3oVl9JhJAZyNZkIV3HxuoxFcwz0auxuwmUlCory1P654VLVhAdMLaU+DqMCll14e5yfYIvlRU6zHGOi0o4BDh7YmqOLQ3v07XDhEyYxmLlV3Em2iHOAB6Ek3UPG+Kb2fBEPwQ48tBEFDPyuJzkowcFZZ7ozOZ0mZ+fTFH9djZ5NKqFt2x9UOSjpptdOi1s/uSDhRc/l+03ZnoAHW/3Fta0LKYIEIwxPqWdidi41L11O88se/c5uIZhrx0LCL4ktqS2yk+LapdSFfVXr8FFUFU28pjZTP47PVpgAtwHyEwDDJ6sJGRODyQLOrQngD21SymlfhDFj0CoeH0DHnQNWkEY3WzimW51PfUibVa3e45TlTyY+Se+zwOkbGE37Dh9OJw8dSkf4O44U6dSpU+kwcfoB0ktx2XfQkwWpT9+aXc00lMGlW+of//jH6dy5c8EsyFD49+GHH6UlpA0ry/Pp7OULqa7XShCnGrhl6G3cyzjIAsTKCi4/vN+5zXKthy2WA1xhBibvpJ5Gb+pmglqDAetuyBbApHH+RwOj1C+9+VVms1Z69/13U2t5IQZ4EAEoat4ytVHj471Tl1lsxX1wvRL/L3IienDtO3zLt9RZdR09eRpD4MPp4w/fTxOTE8xjRevvW4rza6d4xPHSkUGmZHeHNgBcoQJrIaQU8/CRo+nkqdPp+idX0/VbVzhnQqaCMYMY3YVxV6uRanNzaeHSR2lt7DpjYB5nZ0vk1qNqFXYEAfBRYK1Bu3uZuL/+jW+kVaRqZ86cTyscTeCiRPw02YOC8I7xzpbXue5+DhXrS91Li5QxCwPHm+ZaWuCQxMmp6fTJx2c5gqA3vBbvh+HzTw/Fp0+fTseOHYtnj0uQgXiaw9Pd+kcAeTlJmQMPv3rrrbeCcTBuPX5pmRVvMy0vrnDmxXUQqEjfFWqNR9CAZ7GI8kCMrWa4dIIuqtldY8C4lVJRrLYjSiJU9zgHIeRh0HVzLslrSCZW07sfefCY7AR/pFEz0TlXPW7weXbGwxshqTHka/H0JP4q3dm3/1B69fXX09VrV9PdsUmg/YClV3yEMPCm1NExZrZ+oTr83R6UZMIDxwTVAH9G9x1IL73yJQ7jm09Xb1yLrXsy13IMLdR5ytbq+C1Zvnslzd5DQod6dFq1hS4k1ZFW4aEQUJIQ21thyEb2jqbevp60jJT4xs3rqbkIA4b6YH10grsPDKBwbOxCGrTCjNmlUer8IosZJKPQMrkP0dw5wwMUPWDRwxilWTIJHmtwAunDN7/5zfStb30rjYyMRNoH1vkEv9z1TENMRjAA6qG+8pWvrPtzyE6hLly8mD7mb5Cjt1+DsPZwmmax6q2I4XZ47fawCBBHGYJQLMIcKBr0T1GgKolgIEiq5EDjIldiJEj9ff3p+LHDMBkr6Ze/+S0OJitJGiyYgfhzDRKY/I33bYgwyH/3TfTYX3TSxugdmLhTp19ArHogff3NN9KJ40cggA+Dse/zX/EZIYHxk7eEbSO3pHpmIwBTAU7g4H+eT3g+zqH9afHVF9PwQPu8HZiG2GtEJ9WYlLo54c3TXs1bh5nuRo3B1gsmO7mPZxZaj/DD2gs/Sgyawu6JJXxh/Nqv/Au8AzcLuhNj9OHAlN7riMvt4B5QdOf23XTmwmUWmkp/Cga7W6ffFBU7ZBhTMgtKGlRRvPDCC/H3/PPPh7pC5uJpDhzb/pR/weeAfvnTdWEth6i7aUM2WPnTP/3T9Mf/+T+n506cTP/u3/274qhtQCaz8dAF2edo29OY1aHQjDGIMxsepG8y4urNY5jIrsObh6fI2HNe+koZCh4dhL2cGGb6Zd2Fl5I8Xbd+/JMVwjZnU5MKHK5jdEqPhW69FfY60YmbUm5+KHqqHBdjqejkcvQuvxcg0Iq24EYYufp1x0ovqogVVr4rGDmawJNgFcqtAFqIMj/E1ziiiksDF6td/MVuS8Vt/lXhgRBQ7alUsKYIAFqtrwVWJsCc/uBftlNTIvHAAPyFtpSroV0D9ibf/5sfpv/4X/8k3Z6Yplwd2HFK88gwjOChdIjDGI/AoMgovPjii8E49LHQdFGa1RIxdzyw0if65R/takmDnRcD2QmL++FhXbcWIb/TiKWGyLAHsnpgGO5xdG9OUjENG5BYv1tuj8EeRxoDzqDtloMOQSu/YfKICLYD9Uiv6sdJa3JiIgbqIfZVd7GP/ekMJQA8sR8QEE/TM3OIyifDsdkANiU7C5LKKuwMAgUuCG3DPBPP/Ow0q87BNLRnhBhhWeC5S5ac2lHjPi7dq8fQ4V21UBEIOwzSH3iF1lIrjU+MBY0/eEBfDcC6/W6HJSlHCBXE6swszudGUj9zxcmBkbBZOP7c0fT8sefSC0gSjh8/HvNImUnIi1MlrXkxutN6n8R0HZT7SWziF9cmO1MJg6HM/dm5vjPOzh9hH+7Q4ACMquIp8iCiCmvn9qT4xbXw6St5Dc5d8geIiiskMBNCv6ab5VK41G0T0PyFcv7hRAUjpXtjY8E8jKISauDF7WkLa6F3FjmKSeLRtD+g+jmLKpdR3K+iGpphq+X4+HgaHhxKmHoH7j+4IvMa2kvo4qH63RYC4EGos8AFaIfqu2X03rdu30sHD2qkx/Y84tYQM7garsEdFCo+WQykD/y5YTMse0Qn9ekZ/NvWV0WuQ8DFIPRmsbmQxu7dwfixlkbYEtngX8CwTb8fNEoD1JTTYmtdLHfYevniq2+m3/v93jTKnKCtwuEDh1AzDYRqotj1pVqJ/WPtucX2GO/fsxB2NdNgB9q55c5c170Tb9DOwUOtRuAs+0GSMHyJdxXHEAAq/WinkOmZ0FFLu6JuNtJAEBE5IHEt0uSEOT9GRhqX6lOrf0CJDwl9WC8xJ3warnw53+ceEkOGSn7ujHvY+5w+58/pje+M8zm/z+828nuXSWShjdUItQfpwsjIvtjNEoaexEkgc9pcnrmLMlVnGDY6UZOURxEsZqPUR1HioytjJ23bmkZYuTDhq2AOAk7sGhqCnvT2wqShpmCKCdVDcS7sMsmMcfux5014LmwxFFRbaFT5bEw9j65f7ltSe5KucTBePws/ab2Sy2JsQqGA58Psd4r+lIErhBN99UY6/cLpdPzVU6mfBVJDhg/GRCeB2vXAXoQ0obzwtH0+G5xrbMfTHHa1TUPuuCw+sjM779eP6yZxL5NYTIbPCMeYv//RXSV7TpKZ8COVUTfbjgkWII++jUSbqpc5X2ZrlJKHfqQMT6t6ws/071EFycyjLK/cLo1NV1AL9QHvEJ9+SqL2Rbat3M5n454xgXRneamZGg2UdExCTl6Okho2P7JrhS7C9Rx2DzIU7Q+Pw9/yQzuuujwcAk7Yy+yCk7ZrFCk5ypP6TtQFkrAVGARBr40JG7qga5xMynNQPLiQNk8QjcllZml1bmHnc45/yq5/VDEN9+mxTubBZJmpeNo5xft8chW9SyGQcR0KyP+nexX0dHdhJ0dQ9EWOrXpm570rTssY5JV9yAragMz0+9NM4uU+KN8XrPyu6pk/cr1XhQ4IZIQzOhPUimHoAFL1+ExAIBPOIKRQw4zvz8THPXUf4eRT/is+IMc8dZ/zBDVYZrjMLHzappX7oHxf9NenLe3pTr/rbRq26z6Ryz+9RC4vL8efz+6uaOgRkpARcLv8VVwFgacJAp0GW09T26u2VhDYDgLSZ6UMTQyrddyXt9IPYLDojriKOd4OajuLq5iGbeAkozCGBf+NGzfSzZs30+zsbDAMv/RLv4S73QNhFZv1Vttkr6IqCDzREMjSBRuZmWMZ5CF2q0hoM0GtGOMnuhurxj0AAjLCk5OTQb9v3boVu4PcCfelL30p/CdknwkPKKJ6dR8I7GqmQeKYDWIygZQzvXz5cvrggw/S7du3g1P13b59+0LKUF6V3QemVfRDIJBh6ASV9Y45TmZMJs1+ULJjmpzOYr03mM/gc+67iKh+7guBDOMMc2Ens6D79EuXLqXvfve7se/c92WY2ifl5/tWUL0Ihkv4lRmzMs5mmjMzMxP0JPuGyfgsCE1vX1Vw3zlCCa8ynF3svfPOO0mGYY5zPAwnT54Mj4w53c5Lr1KWIbCrmQYJoQiUiWhmGP75n/853fXcdQa/6gjdf371q1/lTPbBiDNfmSiUAVrd7wwCwi+LDM2RJTdTHP7y3//7fw/G4Xd+53fSIbysSRDypFW+z/22sxqrVEIgw1z4+3f16tX053/+5+n8+fMhaTiIRztXZL7LsM59U0FwZxDIk1LGT685eP/RRx8laczp06fjLAJF5sLb1a8wN03G95yvuj4YAhnmprpz5076yU9+ki5e5DRdvMr6TnfOX//61+PgqAeXVL19GAR2NdOQgSNSOUjl/s+ePRuqCeP8k4C+8soroZZwYBvntQqfHQLCMBNH9Y0yZv5JNJ28/vqv/zr0kDJrqoMMMnQSgJzWMgwVcQ0wPPRHnJUh+9nPfhawFac9ec/g1YlL2Cp5sE/sByVtr776aohzK8bhoSCOBGUGQRx1lSuuS0eEr7B1QvuLv/iLgO3LL78cq1/zKWEzqHOv8DpAseMf4SeOTk9Pp48//jhdu3Yt8mZ6IS2RcciM2Y4LrhJugUDFNLRB4sB21aVYSwLrQUpOVE5a6noNImVeBVSDug24z3gRlq4I/v7v/56TLfvSm2++GaJxB/kv/MIvrDMIMgrqJt977700gXtp3+nT3X7IjMNnbMKuy6bXx7/9278N9dt3v/vr6bd/+7fiGN/vfe83wfdishKmquc8c+WTTz5Jv//7vx9+9HcdsD7nB0tDpCnirQsRpQpKK8V7zyb4lV/5lZCiWY04fuHCBY5tPpNGR0fjNMRMcz5nM3ZNdvFWOCohlo5rl2ZwfSfMlaD1c0S2wWfpd7X4C3B86p+KaQBkTkAyCLc5vWyeI09buHR1IevJcvU656fjfrRwBbtVh14wGG7CqcL9IHC/walk5/vf/35IeBzEqiI8HU6DUwmu+l77RXHuH//xH0ecx8yeOnVqfSVWwX97qGeYl5lbvRAeOHgIJmwm7d23l2OZb6bz586lixcuAeelsNt5842vBIEVxq58y5bm9olBAl0ud/sW7O5YJyYnMSU2f/Znf5aUKLjSlWEQti5GhK1MskbXMs9/8zd/k1577bWQQMg82Idl/C7f727obv/1SslcYHg8dZMjsZUqSMcN4USLbZctHGsVoaDxeZwYlxmJCrfbILrPZdczDSKIRHAVj3gO8vAxKgLhGpSHNDfL4TJzS0V8mzfIxDPDtCKiGRJbr+VBmd8KP+HuufISURmB5zgu+O233w6jPCUQ5pOBUA8pM6F0wXgNUnOfyewZJNBV2AyBLIkRjsJbGO3Zszd9GwnDm18rJDn/5b/8t/TRhx+kGU53BflTva83/fNbP0m/8d3vxGpXF+pZhWEZliXsc9neV2ErBISTtMRrZnK//OUvBwOsWkImWIZZpuEUDIQSCPFfpsIVsaqiTGMsI+O3cM/3W2vdvTEZL73K6Mo81LrrQcNXce+8ClmfnsS4ehkvnHjghNSvnzzaCr/eGzYn0vIqPBgCu55pyOAReUQYj64NxiEI4lqanppG3HWFFdqeEOWKmIZMOH12gMvVVmFnEMiTjUzB7/3e7wXxVIT7J3/yJ6GLlOCaRgLpLpbf+q3fSr/7u78bhFbdZDWwHw7nDCNxU1h6GNgKBPT06RfS3bF76f/8T/8pvf3uT9Pi/GwctGOJK/ML4Pon6fs/+D7M2d7067/+69EH6uFVIeV+e3jtVYoMAdVu+/fvDzgqSfjBD34QeJyZsJ/+9Kehg//X//pfpz/8wz8MplhmOk+EGeZ5PORyq+tmCGR4ifdxH3M/P+B/c3klXb12NR0/dhw6zsm58rrrZmkFw5Dzby61etoOArX/hbDdi90St05UYT9v3rwVxl8IroJ5KA4z6UoLi3MYMjUQlw+FmCuYC4iwiJaZBQd1HuC7BXaf9TtluLLTLFdXGuj9h//wH9I5ROX2h8E0/vnu3r176Y033gh7BuOEe15x2RcV3Lf2RIaJsFJc+7N3301v/+SdVEccrt3OX/3lX6Vx9L/d2O50eYIPwVMWxfn5udkQm2sE+f7778fWNXcOKTIX7vZBBfetMDcmw917mS0NIGWOf/SjH4WdiHYl9ol/BtVvStCkI9/5zndCsuNK2SCshbMh06ly+fGi+gkIZLqgIaTwXFpi14ReIKUPSoyRFqtlHsQ+zT4RjhwfUZwnUd+wcYj44CoqwN4HAj+rlsdtyHh4zIED+zgCeyhNz8yCaMVgFYkmJ6fSez97L1YI7vUV6Zz0fOekp5jRQZ0ZiPsAu4puQ8BJ7B//8R9jD/Vv/uZvho8Aje4ygTSZ95k5kGlQEqGK4p/+6Z/i3Te/+c0Q5ZbzVADegICwk5D6J2z/63/7k3T33lgaRYIwA2FVghYn8nkYM6cqyjdARqGiiNaRSEh8FaH/+Mc/DrWR93/wB3+wbhS8UVN1V4aA8FZSduXKldhWqe2CdgruWhGmMgKZ8Srn0wjSfnJsyGC89NJL6fXXX49t3qY3WHa+L+fd7ffSYemA9Hfv3r3g6DBqigVRORgG4dNcXkBqeQbmYSE9d/w4R2RrM8IChUPCijyFsftuh+VOvr9iGtpQEuGOH38uHT12Pc2dO88AZZCCdZ4sVwMpxyfG0ywrsMtYlmu8JNMgw6CxnqLbavK6P7pJ7MrwcTuUaodMPIWhYty8ApMI5GCcz650ZcyUPLiSUNeufUPFqGVIbb4Kc2EnfMTP0dHhtMDqqwedbsPTLGGSDR7kY9+4HiNHwLrGEsw4+0e4O/FJWI3L/VHuo8017+4nYaReXbsFaYWqhoK2HA/7HGmHIcPRe/vKPvJPpkGHRMJXewgt/u0HyzBPFbaHgDAURqqCjh8/lsbHJpH0FDsozOG7pcX5kGZev3499XA8Oewd/TOYvvGNb4QdiTC3nIox2x7GOXbXn3LpQBRRDN5/8sm19PZbP23v85V4unOiiU64GcY1pnMlITFw+5+riLyVpyKkQmdzEKZZCuO9sHPVmi3zhaMi2nmM8Xzvn3DM+fK90h3Tmk/CKqPhhCYRruC+GeY+CT+DuO3f3Xt3072xibT/0GHco99K//7f/6/p7JmPSEcieDTxfJW+qQP7vr4e7Bm+m/7tv/23waQpLtdQTwM9YS1RrWAe4N3yI36Lz1rxCzfx1O2TShl8lqnYDnb2kWmFrYyx/ZdxPI+J++Xd0ohdFiF8Mg0PXEft9tZbb6fLF6+m5kpz3WZHsLgQXFuT3ovnjfTKq69Ax78eKiTfW5YMRhXuC4E/qqDThg24woCtp5MnngOdumEE+mAcbsCtzoOQxZYdCYKTl9b8eWuUqokqPBwCDkaDhM/JXymBQQKbGYKIKP3kPBLZTBhc9WaiKzMikahWBiWgtW+FTQ7C/NjRY+DtsTS/tIjk4GD6BrtSbty4XojMlTKwFQ0wp65aV4jGv/WtbwVcXe1mSZqwtizHgdcK7hnCG1dxU3x2V5Dwyjgs3vps2A5uGb99LzNsyHkz3COy+tkWAuJjhpP0+atf/Ro7JaDhV6+n+YU53kl/WATSP/VaHzRoKD138vn05S+/EgxDzr9t4VXkJghUkob2ZBbLLUHDuF4FwcbGxtP16zfiOj09AYfaDNsFJztF4xIFJQyZMEgI8mS2CcK7/CETPsGQ4eOkY7wcvfDLg307UDmYc94yYc3x+d12eXdzXIaVzIOw6gY/Z5HQvP32Oxj73konsM356Ts/w2bhn9Kdu3fSKhbmvTDKL794Ov02dib79+8LHbt6dX0MWEbuS/txu4lvN8M7f7vwFk7CSJhl+pBx32dDGX9zXq/lvD7n9N4bKrgXcCj/lvEyM8trbJmfuDeZrt+EhmMTNTM7ExJPDdpHMUw9eOBQOnb8cNtGp2CGzVvR8TJkt72vJA2CxUlMMbf8g3rdWndX6Mb27htNiwvLcKpKG5aDacjudvPgzYTBwZ3jtgV1FbkOAeEkzDNBzAR2PUHpxjQShTJsfc4DvJS0ui1BYAtMgdnkxCQGqP8Dz4MfsYX1X6Xf+e3vpTe+8nq6hO59HgOxfTAKr770Yuplpfynf/rfwnhPSZpGeRnPreJ+E16p+l19K37miUxAZIYhx23pG9KUx0In8HK+8hjoTLPbn4WfeOlfQRu60p79e9KefSOoMxfjb2l5KfX19rGDYgCbBtSapA2KT3+ZP/fTboflw76/Uk8AoUwEWRwwORVGeHXxqauOqLGOpe3AOhzzADYiI5mDuRy/nri6WYdRJyiUMgg/4fagAWvfZDibtvO5s9zqeQMCwi3DS9g1UU00wO8De/ekbtQR+7nuw8BxeLA/LWHYewgR+lEsy6/jhlec1vgx24xYVsbz3B8bNVV3GQLCuwzzHN957YRhhq3pyu+MN9h/5fiIrH4CAsJFmBu8zzYJjYa0vIbh7yA0HJUPi8Jil5DwjOT8FPl8Mq9wrsKDIbDr1RMPBk/1toLAswMBDVD10eBKTIbAv4sXL+Aj439PN4j/3m/8RvqfcDLUQNKgD3/T66HQv2rCenbwoPqSCgKfAwKVeuJzAK/KWkHgqYKAVvzaJ5RF4Xv37gujVP0KaKw3gBGeDMKJEyfiKoNRhQoCFQQqCGQIVJKGDInqWkFgF0BA8auMQBbFykDoT8CTAT0DQemDQXFvZi6yuH0XgKf6xAoCFQQeDIE/qpiGBwOoeltB4JmEQFmCICORdbkyE/5VTMMz2e3VR1UQ+LwQqNQTnxeCVf4KAk8jBLKBXbntMg4yDDlslya/q64VBCoI7E4IbJiO7s7vr766gkAFgTYEygxDBZQKAhUEKghsB4GKadgOKlVcBYEKAhUEKghUEKggsAUCFdOwBSRVRAWBCgIVBCoIVBCoILAdBCqmYTuoVHEVBCoIVBCoIFBBoILAFghUTMMWkFQRFQQqCFQQqCBQQaCCwHYQqJiG7aBSxVUQqCBQQaCCQAWBCgJbIFAxDVtAUkVUEKggUEGggkAFgQoC20GgYhq2g0oVV0GggkAFgQoCFQQqCGyBQMU0bAFJFVFBoIJABYEKAhUEKghsB4GKadgOKlVcBYEKAhUEKghUEKggsAUCFdOwBSRVRAWBCgIVBCoIVBCoILAdBCqmYTuoVHEVBCoIVBCoIFBBoILAFgjUifnzLbFVxFYIrG2N2hTDOT8maW2KrB4qCHx2CGSOvuthuGcVG+dMffYKq5wVBCoIVBB4MATe/f8BY5Uf4MS+kt4AAAAASUVORK5CYII=;labelBorderColor=#000000;imageBorder=default;" parent="NcHaRKYVKd67BcyuAStn-37" vertex="1">
          <mxGeometry x="246.56" y="130" width="320.63" height="171" as="geometry" />
        </mxCell>
        <mxCell id="NcHaRKYVKd67BcyuAStn-50" style="edgeStyle=orthogonalEdgeStyle;rounded=0;orthogonalLoop=1;jettySize=auto;html=1;entryX=0;entryY=0.25;entryDx=0;entryDy=0;fontSize=15;exitX=0.75;exitY=1;exitDx=0;exitDy=0;" parent="NcHaRKYVKd67BcyuAStn-37" source="NcHaRKYVKd67BcyuAStn-69" target="NcHaRKYVKd67BcyuAStn-48" edge="1">
          <mxGeometry relative="1" as="geometry">
            <mxPoint x="140" y="361" as="sourcePoint" />
          </mxGeometry>
        </mxCell>
        <mxCell id="NcHaRKYVKd67BcyuAStn-52" value="&lt;b&gt;Demands d&lt;sub&gt;i&lt;/sub&gt;&lt;/b&gt;" style="edgeLabel;html=1;align=center;verticalAlign=middle;resizable=0;points=[];fontSize=15;" parent="NcHaRKYVKd67BcyuAStn-50" vertex="1" connectable="0">
          <mxGeometry x="0.1178" y="1" relative="1" as="geometry">
            <mxPoint x="-1" as="offset" />
          </mxGeometry>
        </mxCell>
        <mxCell id="NcHaRKYVKd67BcyuAStn-51" style="edgeStyle=orthogonalEdgeStyle;rounded=0;orthogonalLoop=1;jettySize=auto;html=1;entryX=0;entryY=0.75;entryDx=0;entryDy=0;fontSize=15;exitX=0.25;exitY=1;exitDx=0;exitDy=0;" parent="NcHaRKYVKd67BcyuAStn-37" source="NcHaRKYVKd67BcyuAStn-69" target="NcHaRKYVKd67BcyuAStn-48" edge="1">
          <mxGeometry relative="1" as="geometry">
            <mxPoint x="60" y="361" as="sourcePoint" />
          </mxGeometry>
        </mxCell>
        <mxCell id="NcHaRKYVKd67BcyuAStn-53" value="&lt;b&gt;Bids b&lt;sub&gt;i&lt;/sub&gt;&lt;/b&gt;" style="edgeLabel;html=1;align=center;verticalAlign=middle;resizable=0;points=[];fontSize=15;" parent="NcHaRKYVKd67BcyuAStn-51" vertex="1" connectable="0">
          <mxGeometry x="0.1643" y="-4" relative="1" as="geometry">
            <mxPoint x="-1" as="offset" />
          </mxGeometry>
        </mxCell>
        <mxCell id="NcHaRKYVKd67BcyuAStn-70" style="edgeStyle=orthogonalEdgeStyle;rounded=0;orthogonalLoop=1;jettySize=auto;html=1;entryX=0.5;entryY=0;entryDx=0;entryDy=0;labelBackgroundColor=none;fontSize=13;fontColor=#000000;strokeColor=#000000;" parent="NcHaRKYVKd67BcyuAStn-37" source="NcHaRKYVKd67BcyuAStn-44" target="NcHaRKYVKd67BcyuAStn-69" edge="1">
          <mxGeometry relative="1" as="geometry" />
        </mxCell>
        <mxCell id="NcHaRKYVKd67BcyuAStn-44" value="&lt;font style=&quot;font-size: 14px&quot;&gt;&lt;b&gt;Buyers &lt;/b&gt;(Consumers)&lt;br&gt;&lt;/font&gt;&lt;span style=&quot;color: rgba(0 , 0 , 0 , 0) ; font-family: monospace ; font-size: 0px&quot;&gt;%3CmxGraphModel%3E%3Croot%3E%3CmxCell%20id%3D%220%22%2F%3E%3CmxCell%20id%3D%221%22%20parent%3D%220%22%2F%3E%3CmxCell%20id%3D%222%22%20value%3D%22%26lt%3Bb%26gt%3BP2P%20Market%26lt%3B%2Fb%26gt%3B%22%20style%3D%22sketch%3D0%3BpointerEvents%3D1%3Bshadow%3D0%3Bdashed%3D0%3Bhtml%3D1%3BstrokeColor%3Dnone%3BlabelPosition%3Dcenter%3BverticalLabelPosition%3Dbottom%3BverticalAlign%3Dtop%3Balign%3Dcenter%3BfillColor%3D%23505050%3Bshape%3Dmxgraph.mscae.intune.user_group%3BlabelBackgroundColor%3Dnone%3BlabelBorderColor%3Dnone%3BfontSize%3D12%3BfontColor%3D%23000000%3B%22%20vertex%3D%221%22%20parent%3D%221%22%3E%3CmxGeometry%20x%3D%22633%22%20y%3D%22710%22%20width%3D%2250%22%20height%3D%2237%22%20as%3D%22geometry%22%2F%3E%3C%2FmxCell%3E%3C%2Froot%3E%3C%2FmxGraphModel%3E&lt;/span&gt;&lt;b&gt;&lt;font style=&quot;font-size: 15px&quot;&gt;&lt;br&gt;&lt;/font&gt;&lt;/b&gt;" style="whiteSpace=wrap;html=1;labelBackgroundColor=none;labelBorderColor=none;sketch=0;fontSize=13;" parent="NcHaRKYVKd67BcyuAStn-37" vertex="1">
          <mxGeometry x="36.5" y="98" width="110" height="72" as="geometry" />
        </mxCell>
        <mxCell id="NcHaRKYVKd67BcyuAStn-60" style="edgeStyle=orthogonalEdgeStyle;rounded=0;orthogonalLoop=1;jettySize=auto;html=1;entryX=0.5;entryY=0;entryDx=0;entryDy=0;fontSize=16;labelBackgroundColor=none;" parent="NcHaRKYVKd67BcyuAStn-37" source="NcHaRKYVKd67BcyuAStn-48" target="NcHaRKYVKd67BcyuAStn-57" edge="1">
          <mxGeometry relative="1" as="geometry" />
        </mxCell>
        <mxCell id="NcHaRKYVKd67BcyuAStn-61" value="&lt;ul style=&quot;font-size: 10px&quot;&gt;&lt;li&gt;&lt;b&gt;&lt;i&gt;Winners&lt;/i&gt;&lt;/b&gt;&lt;/li&gt;&lt;li&gt;&lt;b&gt;&lt;i&gt;Optimal Selling Price P&lt;sub&gt;P2P&lt;/sub&gt;&lt;/i&gt;&lt;/b&gt;&lt;/li&gt;&lt;li&gt;&lt;span&gt;&lt;b&gt;&lt;i&gt;Surplus P&lt;sub&gt;net&lt;/sub&gt;&lt;/i&gt;&lt;/b&gt;&lt;/span&gt;&lt;/li&gt;&lt;/ul&gt;" style="edgeLabel;html=1;align=left;verticalAlign=middle;resizable=0;points=[];fontSize=16;labelBackgroundColor=none;" parent="NcHaRKYVKd67BcyuAStn-60" vertex="1" connectable="0">
          <mxGeometry x="-0.2723" y="1" relative="1" as="geometry">
            <mxPoint x="-25" y="8" as="offset" />
          </mxGeometry>
        </mxCell>
        <mxCell id="NcHaRKYVKd67BcyuAStn-48" value="&lt;font style=&quot;font-size: 16px&quot;&gt;&lt;b&gt;Auctioneer&lt;/b&gt;&lt;br&gt;&lt;i&gt;(First Bid Price)&lt;br&gt;(Optimal power flow)&lt;br&gt;(Profit Maximization Algorithm)&lt;/i&gt;&lt;br&gt;&lt;/font&gt;" style="whiteSpace=wrap;html=1;labelBackgroundColor=none;labelBorderColor=none;sketch=0;fontSize=13;" parent="NcHaRKYVKd67BcyuAStn-37" vertex="1">
          <mxGeometry x="226" y="363" width="296" height="125" as="geometry" />
        </mxCell>
        <mxCell id="NcHaRKYVKd67BcyuAStn-123" style="edgeStyle=orthogonalEdgeStyle;rounded=0;orthogonalLoop=1;jettySize=auto;html=1;entryX=0;entryY=0.75;entryDx=0;entryDy=0;labelBackgroundColor=none;fontSize=10;fontColor=#000000;strokeColor=#000000;exitX=1.002;exitY=0.691;exitDx=0;exitDy=0;exitPerimeter=0;" parent="NcHaRKYVKd67BcyuAStn-37" source="NcHaRKYVKd67BcyuAStn-57" target="NcHaRKYVKd67BcyuAStn-85" edge="1">
          <mxGeometry relative="1" as="geometry" />
        </mxCell>
        <mxCell id="NcHaRKYVKd67BcyuAStn-57" value="&lt;font style=&quot;font-size: 15px&quot;&gt;&lt;b&gt;Local Energy Management System&lt;br&gt;&lt;/b&gt;(Objective fun. : Minimize electricity bills)&lt;br&gt;&lt;/font&gt;" style="whiteSpace=wrap;html=1;labelBackgroundColor=none;labelBorderColor=none;sketch=0;fontSize=13;" parent="NcHaRKYVKd67BcyuAStn-37" vertex="1">
          <mxGeometry x="226" y="572" width="296" height="90" as="geometry" />
        </mxCell>
        <mxCell id="NcHaRKYVKd67BcyuAStn-59" style="edgeStyle=orthogonalEdgeStyle;rounded=0;orthogonalLoop=1;jettySize=auto;html=1;entryX=1;entryY=0.5;entryDx=0;entryDy=0;fontSize=15;" parent="NcHaRKYVKd67BcyuAStn-37" source="NcHaRKYVKd67BcyuAStn-58" target="NcHaRKYVKd67BcyuAStn-48" edge="1">
          <mxGeometry relative="1" as="geometry" />
        </mxCell>
        <mxCell id="NcHaRKYVKd67BcyuAStn-58" value="&lt;font style=&quot;font-size: 13px&quot;&gt;&lt;b&gt;Local Grid Data&lt;/b&gt;&lt;br&gt;&lt;i&gt;Transmission Line Cost (Fees/Losses)&lt;br&gt;Lines Availabality&lt;/i&gt;&lt;/font&gt;" style="rounded=0;whiteSpace=wrap;html=1;labelBackgroundColor=none;labelBorderColor=none;sketch=0;fontSize=15;" parent="NcHaRKYVKd67BcyuAStn-37" vertex="1">
          <mxGeometry x="555" y="385.5" width="184" height="80" as="geometry" />
        </mxCell>
        <mxCell id="NcHaRKYVKd67BcyuAStn-91" style="edgeStyle=orthogonalEdgeStyle;rounded=0;orthogonalLoop=1;jettySize=auto;html=1;entryX=0;entryY=0.5;entryDx=0;entryDy=0;labelBackgroundColor=none;fontSize=12;fontColor=#000000;strokeColor=#000000;" parent="NcHaRKYVKd67BcyuAStn-37" source="NcHaRKYVKd67BcyuAStn-62" target="NcHaRKYVKd67BcyuAStn-57" edge="1">
          <mxGeometry relative="1" as="geometry" />
        </mxCell>
        <mxCell id="NcHaRKYVKd67BcyuAStn-62" value="" style="pointerEvents=1;verticalLabelPosition=bottom;shadow=0;dashed=0;align=center;html=1;verticalAlign=top;shape=mxgraph.electrical.inductors.potential_transformer_2;labelBackgroundColor=none;labelBorderColor=none;sketch=0;fontSize=10;fontColor=#0000FF;strokeColor=#0000FF;" parent="NcHaRKYVKd67BcyuAStn-37" vertex="1">
          <mxGeometry x="48.5" y="558" width="92" height="40" as="geometry" />
        </mxCell>
        <mxCell id="NcHaRKYVKd67BcyuAStn-67" value="&lt;b&gt;&lt;font color=&quot;#0000ff&quot;&gt;Main Utility&lt;/font&gt;&lt;/b&gt;" style="text;html=1;align=center;verticalAlign=middle;resizable=0;points=[];autosize=1;strokeColor=none;fillColor=none;fontSize=13;" parent="NcHaRKYVKd67BcyuAStn-37" vertex="1">
          <mxGeometry x="54.5" y="538" width="80" height="20" as="geometry" />
        </mxCell>
        <mxCell id="NcHaRKYVKd67BcyuAStn-69" value="&lt;font color=&quot;#000000&quot;&gt;&lt;b&gt;&lt;i&gt;Automated Bidding&amp;nbsp; Algorithm&lt;/i&gt;&lt;/b&gt;&lt;/font&gt;" style="shape=process;whiteSpace=wrap;html=1;backgroundOutline=1;labelBackgroundColor=none;labelBorderColor=none;sketch=0;fontSize=13;fontColor=#0000FF;strokeColor=#000000;" parent="NcHaRKYVKd67BcyuAStn-37" vertex="1">
          <mxGeometry x="31.5" y="210" width="120" height="60" as="geometry" />
        </mxCell>
        <mxCell id="NcHaRKYVKd67BcyuAStn-119" style="edgeStyle=orthogonalEdgeStyle;rounded=0;orthogonalLoop=1;jettySize=auto;html=1;exitX=0;exitY=0.25;exitDx=0;exitDy=0;entryX=1.006;entryY=0.31;entryDx=0;entryDy=0;entryPerimeter=0;labelBackgroundColor=none;fontSize=13;fontColor=#000000;strokeColor=#000000;" parent="NcHaRKYVKd67BcyuAStn-37" source="NcHaRKYVKd67BcyuAStn-85" target="NcHaRKYVKd67BcyuAStn-57" edge="1">
          <mxGeometry relative="1" as="geometry" />
        </mxCell>
        <mxCell id="NcHaRKYVKd67BcyuAStn-85" value="&lt;b&gt;Battery&lt;/b&gt;" style="shape=image;html=1;verticalAlign=top;verticalLabelPosition=bottom;labelBackgroundColor=#ffffff;imageAspect=0;aspect=fixed;image=https://cdn0.iconfinder.com/data/icons/kameleon-free-pack-rounded/110/Battery-Charging-128.png;labelBorderColor=none;sketch=0;fontSize=12;fontColor=#000000;strokeColor=#000000;" parent="NcHaRKYVKd67BcyuAStn-37" vertex="1">
          <mxGeometry x="598" y="583" width="68" height="68" as="geometry" />
        </mxCell>
        <mxCell id="NcHaRKYVKd67BcyuAStn-88" style="edgeStyle=orthogonalEdgeStyle;rounded=0;orthogonalLoop=1;jettySize=auto;html=1;labelBackgroundColor=none;fontSize=12;fontColor=#000000;strokeColor=#000000;exitX=0.25;exitY=1;exitDx=0;exitDy=0;entryX=0.509;entryY=1.129;entryDx=0;entryDy=0;entryPerimeter=0;" parent="NcHaRKYVKd67BcyuAStn-37" source="NcHaRKYVKd67BcyuAStn-57" target="NcHaRKYVKd67BcyuAStn-62" edge="1">
          <mxGeometry relative="1" as="geometry">
            <mxPoint x="300" y="713" as="targetPoint" />
            <Array as="points">
              <mxPoint x="300" y="723" />
              <mxPoint x="95" y="723" />
            </Array>
          </mxGeometry>
        </mxCell>
        <mxCell id="NcHaRKYVKd67BcyuAStn-89" value="&lt;b style=&quot;font-size: 13px&quot;&gt;C&lt;sub&gt;in&lt;br&gt;&lt;/sub&gt;&lt;/b&gt;&lt;b style=&quot;font-size: 13px&quot;&gt;C&lt;/b&gt;&lt;b&gt;&lt;span style=&quot;font-size: 10.8333px&quot;&gt;out&lt;/span&gt;&lt;br&gt;&lt;/b&gt;&lt;b style=&quot;font-size: 13px&quot;&gt;P&lt;sub&gt;gin&lt;/sub&gt;&lt;/b&gt;" style="text;html=1;align=center;verticalAlign=middle;resizable=0;points=[];autosize=1;strokeColor=none;fillColor=none;fontSize=12;fontColor=#000000;" parent="NcHaRKYVKd67BcyuAStn-37" vertex="1">
          <mxGeometry x="186" y="548" width="40" height="60" as="geometry" />
        </mxCell>
        <mxCell id="NcHaRKYVKd67BcyuAStn-90" value="&lt;i style=&quot;font-size: 13px&quot;&gt;Main Utility Market&amp;nbsp;&lt;/i&gt;" style="text;html=1;align=center;verticalAlign=middle;resizable=0;points=[];autosize=1;strokeColor=none;fillColor=none;fontSize=12;fontColor=#000000;" parent="NcHaRKYVKd67BcyuAStn-37" vertex="1">
          <mxGeometry x="120" y="683" width="130" height="20" as="geometry" />
        </mxCell>
        <mxCell id="NcHaRKYVKd67BcyuAStn-93" value="&lt;b style=&quot;font-size: 13px&quot;&gt;P&lt;sub&gt;gout&lt;/sub&gt;&lt;/b&gt;" style="text;html=1;align=center;verticalAlign=middle;resizable=0;points=[];autosize=1;strokeColor=none;fillColor=none;fontSize=12;fontColor=#000000;" parent="NcHaRKYVKd67BcyuAStn-37" vertex="1">
          <mxGeometry x="295" y="683" width="50" height="20" as="geometry" />
        </mxCell>
        <mxCell id="NcHaRKYVKd67BcyuAStn-95" value="&lt;b style=&quot;font-size: 13px&quot;&gt;P&lt;/b&gt;&lt;b style=&quot;font-size: 10.8333px&quot;&gt;P2P&lt;/b&gt;" style="text;html=1;align=center;verticalAlign=middle;resizable=0;points=[];autosize=1;strokeColor=none;fillColor=none;fontSize=12;fontColor=#000000;" parent="NcHaRKYVKd67BcyuAStn-37" vertex="1">
          <mxGeometry x="455" y="683" width="40" height="20" as="geometry" />
        </mxCell>
        <mxCell id="NcHaRKYVKd67BcyuAStn-96" value="" style="ellipse;whiteSpace=wrap;html=1;labelBackgroundColor=none;labelBorderColor=none;sketch=0;fontSize=12;fontColor=#000000;strokeColor=#000000;" parent="NcHaRKYVKd67BcyuAStn-37" vertex="1">
          <mxGeometry x="557" y="683" width="144" height="80" as="geometry" />
        </mxCell>
        <mxCell id="NcHaRKYVKd67BcyuAStn-97" value="&lt;b&gt;P2P Market&lt;/b&gt;" style="sketch=0;pointerEvents=1;shadow=0;dashed=0;html=1;strokeColor=none;labelPosition=center;verticalLabelPosition=bottom;verticalAlign=top;align=center;fillColor=#505050;shape=mxgraph.mscae.intune.user_group;labelBackgroundColor=none;labelBorderColor=none;fontSize=12;fontColor=#000000;" parent="NcHaRKYVKd67BcyuAStn-37" vertex="1">
          <mxGeometry x="604" y="691.5" width="50" height="37" as="geometry" />
        </mxCell>
        <mxCell id="NcHaRKYVKd67BcyuAStn-87" style="edgeStyle=orthogonalEdgeStyle;rounded=0;orthogonalLoop=1;jettySize=auto;html=1;labelBackgroundColor=none;fontSize=12;fontColor=#000000;strokeColor=#000000;exitX=0.75;exitY=1;exitDx=0;exitDy=0;entryX=0;entryY=0.5;entryDx=0;entryDy=0;" parent="NcHaRKYVKd67BcyuAStn-37" source="NcHaRKYVKd67BcyuAStn-57" target="NcHaRKYVKd67BcyuAStn-96" edge="1">
          <mxGeometry relative="1" as="geometry">
            <mxPoint x="520" y="713" as="targetPoint" />
            <Array as="points">
              <mxPoint x="448" y="723" />
              <mxPoint x="546" y="723" />
            </Array>
          </mxGeometry>
        </mxCell>
        <mxCell id="NcHaRKYVKd67BcyuAStn-99" value="" style="sketch=0;pointerEvents=1;shadow=0;dashed=0;html=1;strokeColor=none;labelPosition=center;verticalLabelPosition=bottom;verticalAlign=top;align=center;fillColor=#505050;shape=mxgraph.mscae.intune.user_group;labelBackgroundColor=none;labelBorderColor=none;fontSize=12;fontColor=#000000;" parent="NcHaRKYVKd67BcyuAStn-37" vertex="1">
          <mxGeometry x="78.25" y="143" width="26.5" height="20" as="geometry" />
        </mxCell>
        <mxCell id="NcHaRKYVKd67BcyuAStn-102" value="" style="sketch=0;pointerEvents=1;shadow=0;dashed=0;html=1;strokeColor=none;labelPosition=center;verticalLabelPosition=bottom;verticalAlign=top;align=center;fillColor=#505050;shape=mxgraph.mscae.intune.user_management;labelBackgroundColor=none;labelBorderColor=none;fontSize=12;fontColor=#000000;" parent="NcHaRKYVKd67BcyuAStn-37" vertex="1">
          <mxGeometry x="455" y="373" width="50" height="46" as="geometry" />
        </mxCell>
        <mxCell id="NcHaRKYVKd67BcyuAStn-105" value="" style="shape=image;html=1;verticalAlign=top;verticalLabelPosition=bottom;labelBackgroundColor=#ffffff;imageAspect=0;aspect=fixed;image=https://cdn0.iconfinder.com/data/icons/business-startup-10/50/67-128.png;labelBorderColor=none;sketch=0;fontSize=12;fontColor=#000000;strokeColor=#000000;" parent="NcHaRKYVKd67BcyuAStn-37" vertex="1">
          <mxGeometry x="67.5" y="280" width="48" height="48" as="geometry" />
        </mxCell>
        <mxCell id="NcHaRKYVKd67BcyuAStn-109" value="" style="shape=image;html=1;verticalAlign=top;verticalLabelPosition=bottom;labelBackgroundColor=#ffffff;imageAspect=0;aspect=fixed;image=https://cdn2.iconfinder.com/data/icons/weather-color-2/500/weather-02-128.png;labelBorderColor=none;sketch=0;fontSize=12;fontColor=#000000;strokeColor=#000000;" parent="NcHaRKYVKd67BcyuAStn-37" vertex="1">
          <mxGeometry x="382.87999999999994" y="53" width="48" height="48" as="geometry" />
        </mxCell>
        <mxCell id="NcHaRKYVKd67BcyuAStn-110" value="&lt;b&gt;&lt;font style=&quot;font-size: 13px&quot;&gt;&amp;nbsp; Weather Forecast&amp;nbsp;&lt;/font&gt;&lt;/b&gt;&lt;span style=&quot;color: rgba(0 , 0 , 0 , 0) ; font-family: monospace ; font-size: 0px&quot;&gt;%3CmxGraphModel%3E%3Croot%3E%3CmxCell%20id%3D%220%22%2F%3E%3CmxCell%20id%3D%221%22%20parent%3D%220%22%2F%3E%3CmxCell%20id%3D%222%22%20value%3D%22%22%20style%3D%22shape%3Dimage%3Bhtml%3D1%3BverticalAlign%3Dtop%3BverticalLabelPosition%3Dbottom%3BlabelBackgroundColor%3D%23ffffff%3BimageAspect%3D0%3Baspect%3Dfixed%3Bimage%3Dhttps%3A%2F%2Fcdn2.iconfinder.com%2Fdata%2Ficons%2Fweather-color-2%2F500%2Fweather-02-128.png%3BlabelBorderColor%3Dnone%3Bsketch%3D0%3BfontSize%3D12%3BfontColor%3D%23000000%3BstrokeColor%3D%23000000%3B%22%20vertex%3D%221%22%20parent%3D%221%22%3E%3CmxGeometry%20x%3D%22535.06%22%20y%3D%2270%22%20width%3D%2248%22%20height%3D%2248%22%20as%3D%22geometry%22%2F%3E%3C%2FmxCell%3E%3C%2Froot%3E%3C%2FmxGraphModel%3E&lt;/span&gt;" style="text;html=1;align=center;verticalAlign=middle;resizable=0;points=[];autosize=1;strokeColor=none;fillColor=none;fontSize=12;fontColor=#000000;" parent="NcHaRKYVKd67BcyuAStn-37" vertex="1">
          <mxGeometry x="336.88" y="43" width="140" height="20" as="geometry" />
        </mxCell>
        <mxCell id="NcHaRKYVKd67BcyuAStn-116" value="" style="verticalLabelPosition=bottom;shadow=0;dashed=0;align=center;html=1;verticalAlign=top;strokeWidth=1;shape=mxgraph.mockup.containers.userMale;strokeColor=#666666;strokeColor2=#008cff;labelBackgroundColor=none;labelBorderColor=none;sketch=0;fontSize=16;fontColor=#000000;" parent="NcHaRKYVKd67BcyuAStn-37" vertex="1">
          <mxGeometry x="661" y="40" width="55" height="58" as="geometry" />
        </mxCell>
        <mxCell id="NcHaRKYVKd67BcyuAStn-124" value="&lt;b&gt;E&lt;sub&gt;batt&lt;/sub&gt;&lt;br&gt;P&lt;/b&gt;&lt;sub&gt;&lt;b&gt;batt&lt;/b&gt;&lt;br&gt;&lt;/sub&gt;" style="text;html=1;align=center;verticalAlign=middle;resizable=0;points=[];autosize=1;strokeColor=none;fillColor=none;fontSize=10;fontColor=#000000;" parent="NcHaRKYVKd67BcyuAStn-37" vertex="1">
          <mxGeometry x="540" y="597" width="40" height="40" as="geometry" />
        </mxCell>
        <mxCell id="NcHaRKYVKd67BcyuAStn-115" value="&lt;b&gt;&lt;font style=&quot;font-size: 16px&quot;&gt;Seller&lt;/font&gt;&lt;/b&gt;&lt;br&gt;(Prosumer)" style="text;html=1;align=center;verticalAlign=middle;resizable=0;points=[];autosize=1;strokeColor=none;fillColor=none;fontSize=14;fontColor=#000000;" parent="NcHaRKYVKd67BcyuAStn-37" vertex="1">
          <mxGeometry x="643.5" y="103" width="90" height="40" as="geometry" />
        </mxCell>
      </root>
    </mxGraphModel>
  </diagram>
</mxfile>
